<svg id="Capa_1" enable-background="new 0 0 511 511" height="512" viewBox="0 0 511 511" width="512" xmlns="http://www.w3.org/2000/svg"><g><g id="Filled_3_"><path d="m384.5 7.5c-41.66 0-77.141 26.957-89.922 64.343l-39.078 30.657 39.078 30.657c12.781 37.386 48.262 64.343 89.922 64.343 52.383 0 95-42.617 95-95s-42.617-95-95-95z" fill="#f88fa4"/><path d="m384.5 167.5c-5 0-77.141 3.043-89.922-34.343 12.781 37.386 48.262 64.343 89.922 64.343 52.383 0 95-42.617 95-95 0-5.104-.41-10.112-1.188-15-7.214 45.281-46.532 80-93.812 80z" fill="#f05475"/><path d="m161 82.5c-13.807 0-25-11.193-25-25v-25h50v25c0 13.807-11.193 25-25 25z" fill="#ffe4c2"/><path d="m186 32.5h-50v-9c0-8.837 7.163-16 16-16h39.5z" fill="#616161"/><path d="m221.5 189.5v-60c0-26.368-17.016-48.746-40.66-56.796-4.57 5.954-11.755 9.796-19.84 9.796-7.963 0-15.052-3.728-19.63-9.528-23.234 8.275-39.87 30.454-39.87 56.528v60z" fill="#9ce3bf"/><path d="m101.5 159.5h120v30h-120z" fill="#87bcc4"/><path d="m255 396.5c-13.807 0-25-11.193-25-25v-25h50v25c0 13.807-11.193 25-25 25z" fill="#ffe4c2"/><path d="m280 346.5h-50v-9c0-8.837 7.163-16 16-16h39.5z" fill="#616161"/><path d="m315.5 503.5v-60c0-26.368-17.016-48.746-40.66-56.796-4.57 5.954-11.754 9.796-19.84 9.796-7.963 0-15.052-3.728-19.63-9.528-23.234 8.275-39.87 30.454-39.87 56.528v60z" fill="#f8e868"/><path d="m67 396.5c-13.807 0-25-11.193-25-25v-25h50v25c0 13.807-11.193 25-25 25z" fill="#ffe4c2"/><path d="m92 346.5h-50v-9c0-8.837 7.163-16 16-16h39.5z" fill="#616161"/><path d="m127.5 503.5v-60c0-26.368-17.016-48.746-40.66-56.796-4.57 5.954-11.755 9.796-19.84 9.796-7.963 0-15.052-3.728-19.63-9.528-23.233 8.274-39.87 30.454-39.87 56.528v60z" fill="#f8e868"/><path d="m443 396.5c-13.807 0-25-11.193-25-25v-25h50v25c0 13.807-11.193 25-25 25z" fill="#ffe4c2"/><path d="m468 346.5h-50v-9c0-8.837 7.163-16 16-16h39.5z" fill="#616161"/><path d="m503.5 503.5v-60c0-26.368-17.016-48.746-40.66-56.796-4.57 5.954-11.754 9.796-19.84 9.796-7.963 0-15.052-3.728-19.63-9.528-23.234 8.275-39.87 30.454-39.87 56.528v60z" fill="#f8e868"/><circle cx="384.5" cy="102.5" fill="#9ce3bf" r="45"/><path d="m384.5 117.5c-19.555 0-36.228-12.541-42.42-30-1.665 4.695-2.58 9.741-2.58 15 0 24.813 20.187 45 45 45s45-20.187 45-45c0-5.259-.915-10.305-2.58-15-6.192 17.459-22.865 30-42.42 30z" fill="#87bcc4"/><g fill="#efc17a"><path d="m7.5 473.5h120v30h-120z"/><path d="m195.5 473.5h120v30h-120z"/><path d="m383.5 473.5h120v30h-120z"/></g></g><g fill="#fff"><path d="m169 149.5h-15v-15h15zm0-30h-15v-15h15z"/><path d="m365 85.5h15v15h-15z"/><path d="m390 105.5h15v15h-15z"/></g><g id="Outline_3_"><path d="m337.407 193.528 6.914-13.312c-19.882-10.325-35.426-28.362-42.647-49.485l-.719-2.103-33.305-26.128 33.305-26.128.719-2.103c12.12-35.451 45.405-59.269 82.826-59.269 7.357 0 14.67.919 21.733 2.731l3.727-14.529c-8.28-2.124-16.846-3.202-25.46-3.202-43.081 0-81.481 26.945-96.265 67.286l-44.885 35.214 44.885 35.214c8.84 24.136 26.23 43.899 49.172 55.814z"/><path d="m472 102.5c0 48.248-39.252 87.5-87.5 87.5-9.393 0-18.637-1.487-27.476-4.417l-4.721 14.237c10.363 3.437 21.195 5.18 32.196 5.18 56.519 0 102.5-45.981 102.5-102.5 0-40.819-24.235-77.734-61.743-94.047l-5.982 13.756c32.03 13.929 52.726 45.446 52.726 80.291z"/><path d="m229 153.236h-15v28.764h-15v-50.5h-15v50.5h-45v-50.5h-15v50.5h-15v-52.5c0-20.56 12.079-39.152 30.495-47.662 5.735 5.073 13.264 8.162 21.505 8.162 8.402 0 16.07-3.205 21.845-8.457 18.812 8.363 31.155 27.074 31.155 47.957v8.736h15v-8.736c0-25.932-14.803-49.258-37.605-60.509 1.356-3.575 2.105-7.447 2.105-11.491v-24.185l7.329-33.315h-48.829c-12.958 0-23.5 10.542-23.5 23.5v1.5 15 17.5c0 4.203.811 8.219 2.27 11.909-22.299 11.42-36.77 34.577-36.77 60.091v67.5h135zm-85.5-129.736c0-4.687 3.813-8.5 8.5-8.5h30.171l-2.2 10h-36.471zm0 16.5h35v17.5c0 9.649-7.851 17.5-17.5 17.5s-17.5-7.851-17.5-17.5z"/><path d="m120.242 212.771h15v15.001h-15z" transform="matrix(.522 -.853 .853 .522 -126.818 214.192)"/><path d="m285.395 382.991c1.356-3.575 2.105-7.447 2.105-11.491v-24.185l7.329-33.315h-48.829c-12.958 0-23.5 10.542-23.5 23.5v1.5 15 17.5c0 4.203.811 8.219 2.27 11.909-22.299 11.42-36.77 34.577-36.77 60.091v67.5h135v-43.764h-15v28.764h-15v-50.5h-15v50.5h-45v-50.5h-15v50.5h-15v-52.5c0-20.56 12.079-39.152 30.495-47.662 5.735 5.073 13.264 8.162 21.505 8.162 8.402 0 16.07-3.205 21.845-8.457 18.812 8.363 31.155 27.074 31.155 47.957v8.736h15v-8.736c0-25.932-14.803-49.258-37.605-60.509zm-12.895-11.491c0 9.649-7.851 17.5-17.5 17.5s-17.5-7.851-17.5-17.5v-17.5h35zm1.471-32.5h-36.471v-1.5c0-4.687 3.813-8.5 8.5-8.5h30.171z"/><path d="m97.395 382.991c1.356-3.575 2.105-7.447 2.105-11.491v-24.185l7.329-33.315h-48.829c-12.958 0-23.5 10.542-23.5 23.5v1.5 15 17.5c0 4.203.811 8.219 2.27 11.909-22.299 11.42-36.77 34.577-36.77 60.091v67.5h135v-43.764h-15v28.764h-15v-50.5h-15v50.5h-45v-50.5h-15v50.5h-15v-52.5c0-20.56 12.079-39.152 30.495-47.662 5.735 5.073 13.264 8.162 21.505 8.162 8.402 0 16.07-3.205 21.845-8.457 18.812 8.363 31.155 27.074 31.155 47.957v8.736h15v-8.736c0-25.932-14.803-49.258-37.605-60.509zm-12.895-11.491c0 9.649-7.851 17.5-17.5 17.5s-17.5-7.851-17.5-17.5v-17.5h35zm1.471-32.5h-36.471v-1.5c0-4.687 3.813-8.5 8.5-8.5h30.171z"/><path d="m511 452.236v-8.736c0-25.932-14.803-49.258-37.605-60.509 1.356-3.575 2.105-7.447 2.105-11.491v-24.185l7.329-33.315h-48.829c-12.958 0-23.5 10.542-23.5 23.5v1.5 15 17.5c0 4.203.811 8.219 2.27 11.909-22.299 11.42-36.77 34.577-36.77 60.091v67.5h135v-43.764h-15v28.764h-15v-50.5h-15v50.5h-45v-50.5h-15v50.5h-15v-52.5c0-20.56 12.079-39.152 30.495-47.662 5.735 5.073 13.264 8.162 21.505 8.162 8.402 0 16.07-3.205 21.845-8.457 18.812 8.363 31.155 27.074 31.155 47.957v8.736zm-50.5-80.736c0 9.649-7.851 17.5-17.5 17.5s-17.5-7.851-17.5-17.5v-17.5h35zm1.471-32.5h-36.471v-1.5c0-4.687 3.813-8.5 8.5-8.5h30.171z"/><path d="m392 31.5h-15v19.044c-8.881 1.276-17.053 4.775-23.924 9.925l-13.476-13.477-10.607 10.606 13.477 13.477c-5.15 6.871-8.649 15.043-9.925 23.924h-19.045v15h19.044c1.276 8.881 4.775 17.053 9.925 23.924l-13.477 13.477 10.607 10.606 13.477-13.477c6.871 5.15 15.043 8.648 23.924 9.925v19.046h15v-19.044c8.881-1.276 17.053-4.775 23.924-9.925l13.477 13.477 10.607-10.606-13.477-13.477c5.15-6.871 8.649-15.043 9.925-23.924h19.044v-15.001h-19.044c-1.276-8.881-4.775-17.053-9.925-23.924l13.477-13.477-10.608-10.607-13.477 13.477c-6.871-5.15-15.043-8.648-23.924-9.925v-19.044zm30 71c0 20.678-16.822 37.5-37.5 37.5s-37.5-16.822-37.5-37.5 16.822-37.5 37.5-37.5 37.5 16.822 37.5 37.5z"/><path d="m128.124 287.249-3.506-14.584-23.645 5.685 21.416-34.974-12.793-7.833-21.416 34.974-5.686-23.646-14.584 3.506 11.672 48.543z"/><path d="m256.406 205.127h15v15h-15z" transform="matrix(.52 -.854 .854 .52 -54.949 327.467)"/><path d="m382.474 243.478-14.577 3.544 5.747 23.631-86.619-52.732-7.8 12.813 86.619 52.732-23.631 5.746 3.545 14.576 48.512-11.797z"/><path d="m200.611 243.376 21.416 34.974-23.645-5.685-3.506 14.584 48.542 11.671 11.672-48.543-14.584-3.506-5.686 23.646-21.416-34.974z"/><path d="m187.758 212.771h15.001v15h-15.001z" transform="matrix(.853 -.522 .522 .853 -86.288 134.382)"/></g></g></svg>