<svg id="Capa_1" enable-background="new 0 0 511.489 511.489" height="512" viewBox="0 0 511.489 511.489" width="512" xmlns="http://www.w3.org/2000/svg"><g><g id="Filled_29_"><path d="m38.5 363.744-19-48 8-14-2-16-18-4v-21l7-11 20-4 24 9 11-3 22 5 27-6 11 3 19 16 2 20-17 15-25 13-5 9-12 7-25 6-3 18z" fill="#9ce3bf"/><path d="m143.724 265.723-10.224 9.021-25 13-5 9-12 7-31 8-3 18-29.633 7.137 10.633 26.863 25-6 3-18 25-6 12-7 5-9 25-13 17-15-2-20z" fill="#87bcc4"/><path d="m93.5 377.744 11-6 22 8 16 14 30 13-10 37-12 5-7 19-4 36h-22l-11-31 2-12-1-24-12-10-12-22z" fill="#9ce3bf"/><path d="m106.855 473.744 10.645 30h22l3.333-30z" fill="#87bcc4"/><path d="m205.5 371.744-1-19 16-46 43-47 36 4 65-17 137 18-10 30-25 3-8 44-20 14-9 27-30-18-20 17-22-34-31 23-17 38 3 20-28 37-16 2-13-37 4-12-14-33-33 3z" fill="#9ce3bf"/><path d="m284.5 435.744-25.043 6.261 9.043 25.739 16-2 28-37-3-20z" fill="#87bcc4"/><path d="m431.5 328.744-12 19-20-13-32.648 27.454 12.648 19.546 20-17 30 18 9-27 20-14 5.564-30.602z" fill="#87bcc4"/><path d="m502.5 470.744-14-40-63 12 3 44h29l23 13z" fill="#9ce3bf"/><path d="m341.369 35.524c-29.458 29.458-35.486 73.609-18.088 109.082l-5.954 49.31 49.31-5.954c35.473 17.398 79.624 11.371 109.082-18.088 37.04-37.04 37.04-97.31 0-134.35s-97.309-37.04-134.35 0z" fill="#f88fa4"/><path d="m475.72 139.875c-29.458 29.458-73.609 35.486-109.082 18.088l-45.634 5.51-3.676 30.443 49.31-5.954c35.473 17.398 79.624 11.371 109.082-18.088 22.34-22.34 31.184-53.128 26.575-82.175-3.032 19.114-11.875 37.476-26.575 52.176z" fill="#f05475"/><circle cx="408.5" cy="102.744" fill="#9ce3bf" r="45"/><path d="m408.5 117.744c-19.555 0-36.228-12.541-42.42-30-1.665 4.695-2.58 9.742-2.58 15 0 24.813 20.187 45 45 45s45-20.187 45-45c0-5.259-.915-10.305-2.58-15-6.192 17.458-22.865 30-42.42 30z" fill="#87bcc4"/></g><g fill="#fff"><path d="m389 85.744h15v15h-15z"/><path d="m414 105.744h15v15h-15z"/><path d="m430.5 304.244h15v15h-15z"/><path d="m289.5 341.244h15v15h-15z"/><path d="m49.5 300.244h15v15h-15z"/><path d="m340.5 276.244h15v15h-15z"/><path d="m272.5 376.244h15v15h-15z"/></g><g id="Outline_29_"><path d="m474.043 425.864c-1.772-26.833-9.449-50.687-22.481-70.108l13.766-9.636 7.562-41.589 24.224-2.907 14.377-43.132-50.316-6.611-1.953 14.873 32.291 4.242-5.623 16.868-25.776 3.093-8.438 46.411-9.265 6.486c-6.337-7.22-13.555-13.641-21.646-19.13-32.06-21.748-72.43-25.11-102.845-8.568l7.166 13.178c25.541-13.891 59.791-10.828 87.258 7.804 7.051 4.783 13.345 10.4 18.877 16.738l-5.876 17.628-26.599-15.959-17.589 14.951-21.701-33.539-38.998 28.935-18.698 41.795 2.858 19.05-24.186 31.959-6.858.857-10.145-28.871 4.085-12.255-17.243-40.646-32.939 2.995-4.407-10.702-.854-16.254 2.356-6.773c13.814.107 28.701 3.321 44.25 9.646l5.652-13.895c-15.494-6.303-30.512-9.833-44.737-10.606l7.487-21.524 24.487-26.764c12.481 10.552 23.166 23.823 31.294 39.325l13.285-6.967c-8.95-17.067-20.704-31.717-34.444-43.437l4.762-5.205 33.592 3.732 50.744-13.271c25.394 13.569 48.388 28.397 67.38 41.793l8.646-12.258c-14.299-10.086-30.829-20.962-48.938-31.548l66.463 8.733 1.953-14.873-82.278-10.81-11.396 2.981c-36.479-18.993-77.579-35.236-119.13-41.52-36.424-5.506-69.974-2.84-99.721 7.927-21.751 7.873-41.647 20.146-59.468 36.641l-4.972-1.13-10.471 2.855-23.735-8.901-25.238 5.048-9.894 15.542v29.2l18.714 4.158 1.034 8.274-8.548 14.96 22.722 57.402 28.144-6.754 22.343 14.895-9.127 24.643 14.319 26.251 10.544 8.787.829 19.9-2.19 13.146 13.42 37.819h34.01l4.641-41.765 5.553-15.071 12.374-5.156 12.652-46.812-34.876-15.112-.265-.232c8.38-14.747 19.482-25.733 32.884-32.352 5.918-2.923 12.228-5.006 18.867-6.267l-1.11 3.192 1.145 21.746 9.594 23.298 33.061-3.005 10.757 25.354-3.915 11.745 15.855 45.129 25.142-3.143 31.814-42.041-3.142-20.95 15.302-34.205 23.002-17.065 22.299 34.461 22.411-19.049 33.401 20.041 8.391-25.172c10.034 16.827 15.865 37.15 17.124 59.883l-41.608 7.925 3.929 57.623h34.033l26.987 15.254 28.395-37.43-17.465-49.9zm-242.789-210.454c34.154 5.165 68.138 17.45 99.37 32.442l-31.676 8.285-38.407-4.268-10.808 11.813c-18.905-12.819-40.702-20.58-63.724-22.149-17.59-1.198-34.68 1.382-50.581 7.398l-2.36-1.988-14.384-3.923-25.556 5.679c37.427-30.322 83.692-41.52 138.126-33.289zm-171.335 118.2-3 18-13.841 3.322-15.278-38.596 7.452-13.041-2.966-23.726-17.286-3.841v-12.8l4.109-6.457 14.762-2.952 23.824 8.933c-3.504 4.09-6.915 8.362-10.222 12.829l12.055 8.926c6.12-8.266 12.59-15.796 19.385-22.632l12.569 2.857 22.886-5.086c-14.751 9.149-27.978 21.612-38.976 37.047l12.217 8.703c12.37-17.362 27.88-30.473 45.246-38.722l8.486 7.146 1.314 13.145-13.429 11.85-26.187 13.617-5.096 9.172-9.269 5.406zm103.648 77.438-7.348 27.188-11.626 4.844-8.447 22.928-3.359 30.236h-9.99l-8.58-24.18 1.81-10.855-1.171-28.099-13.456-11.213-9.681-17.749 7.839-21.165 5.562-3.034 17.499 6.363 5.063 4.43c-2.891 6.528-5.371 13.544-7.415 21.024l14.469 3.955c1.441-5.273 3.12-10.272 5.018-14.994zm40.027-78.528c-11.019 1.098-21.432 4.018-31.061 8.775-15.331 7.574-28.058 19.695-37.74 35.74l-4.41-3.859-26.501-9.637-9.993 5.45-22.193-14.795 1.386-8.316 21.243-5.099 14.732-8.594 4.904-8.828 23.813-12.383 20.571-18.15-2.686-26.855-6.741-5.677c11.546-3.315 23.673-4.641 36.07-3.793 19.574 1.334 38.167 7.773 54.48 18.401l-25.545 27.921zm274.891 157.47-19.013-10.746h-23.967l-2.071-30.377 25.903-4.934c-.178 5.528-.594 11.167-1.284 16.917l14.893 1.787c.882-7.35 1.367-14.548 1.476-21.578l9.133-1.74 10.535 30.1z"/><path d="m408.546 15.245c23.4 0 45.373 9.085 61.87 25.582 16.497 16.499 25.583 38.473 25.583 61.873 0 23.401-9.085 45.374-25.583 61.872-8.873 8.874-19.29 15.598-30.963 19.983l5.275 14.041c13.688-5.143 25.9-13.021 36.295-23.418 19.33-19.331 29.976-45.07 29.976-72.479 0-27.406-10.646-53.146-29.976-72.479-19.331-19.33-45.07-29.976-72.478-29.976-5.684 0-11.403.474-17.002 1.409l2.471 14.795c4.785-.798 9.674-1.203 14.532-1.203z"/><path d="m308.736 202.508 56.641-6.839c13.424 6.211 28.301 9.484 43.174 9.484 6.923 0 13.867-.701 20.642-2.084l-3-14.697c-5.789 1.182-11.725 1.781-17.642 1.781-13.354 0-26.706-3.086-38.61-8.925l-1.995-.979-42.025 5.074 5.074-42.024-.979-1.996c-5.838-11.904-8.924-25.256-8.924-38.61 0-23.398 9.085-45.37 25.581-61.865 9.652-9.653 21.075-16.733 33.948-21.043l-4.762-14.225c-15.096 5.054-28.483 13.351-39.794 24.66-19.329 19.329-29.974 45.067-29.974 72.473 0 14.872 3.273 29.749 9.483 43.174z"/><path d="m416 173.744v-19.044c8.88-1.276 17.053-4.775 23.924-9.925l13.477 13.477 10.607-10.607-13.477-13.477c5.15-6.871 8.648-15.043 9.925-23.924h19.044v-15h-19.044c-1.276-8.88-4.775-17.053-9.925-23.924l13.477-13.477-10.608-10.607-13.477 13.477c-6.871-5.15-15.043-8.648-23.924-9.925v-19.044h-15v19.044c-8.88 1.276-17.053 4.775-23.924 9.925l-13.475-13.477-10.607 10.607 13.477 13.477c-5.15 6.871-8.648 15.043-9.925 23.924h-19.045v15h19.044c1.276 8.88 4.775 17.053 9.925 23.924l-13.477 13.477 10.607 10.607 13.477-13.477c6.871 5.15 15.043 8.648 23.924 9.925v19.044zm-45-71c0-20.678 16.822-37.5 37.5-37.5s37.5 16.822 37.5 37.5-16.822 37.5-37.5 37.5-37.5-16.822-37.5-37.5z"/></g></g></svg>