<svg id="Capa_1" enable-background="new 0 0 511.5 511.5" height="512" viewBox="0 0 511.5 511.5" width="512" xmlns="http://www.w3.org/2000/svg"><g><g id="Filled_34_"><path d="m255.75 7.5c-60.751 0-110 49.249-110 110s49.249 110 110 110 110-49.249 110-110-49.249-110-110-110zm0 30c16.647 0 32.118 5.116 44.936 13.851l-111.085 111.085c-8.735-12.818-13.851-28.289-13.851-44.936 0-44.112 35.888-80 80-80zm0 160c-16.647 0-32.118-5.116-44.936-13.851l111.085-111.085c8.735 12.818 13.851 28.289 13.851 44.936 0 44.112-35.888 80-80 80z" fill="#f88fa4"/><path d="m187.75 511.5v-97.739c0-12.992-8.363-24.507-20.717-28.528l-26.763-8.71-42.52 42.979-48.77-41.4-20.796 6.998c-12.21 4.108-20.434 15.552-20.434 28.434v97.966z" fill="#e4e8ed"/><path d="m167.033 385.234-8.148-2.652c-19.948 10.035-33.135 30.728-33.135 53.627v45.291h-118v30h180v-97.739c0-12.992-8.363-24.507-20.717-28.527z" fill="#cad8eb"/><path d="m27.75 319.503v-34.107c0-38.538 30.773-70.516 69.309-70.889 38.914-.377 70.691 31.169 70.691 69.997v35c0 16.569-13.431 30-30 30h-80c-16.569-.001-30-13.432-30-30.001z" fill="#616161"/><g fill="#ffe4c2"><path d="m140.27 376.523-42.52 42.98-48.77-41.4 25.56-8.6v-34h44.15v34z"/><path d="m97.75 348.503c22.091 0 40-17.909 40-40 0-18.225-14.775-33-33-33h-47v33c0 22.092 17.909 40 40 40z"/><path d="m7.75 466.5h34v45h-34z"/></g><path d="m303.75 511.5v-116.291c0-13.432 8.928-25.227 21.856-28.874l56.144-15.835h44l56.144 15.835c12.928 3.646 21.856 15.441 21.856 28.874v116.291z" fill="#e4e8ed"/><path d="m385.75 481.5v-45.291c0-26.741-17.975-50.488-43.712-57.748l-26.104-7.362c-7.489 5.538-12.184 14.386-12.184 24.11v116.291h200v-30z" fill="#cad8eb"/><path d="m461.75 446.5h42v65h-42z" fill="#ffe4c2"/><path d="m461.75 481.5h42v30h-42z" fill="#f2d1a5"/><path d="m425.75 317.5h-44v33c4.649 7.222 12.768 12 22 12s17.351-4.778 22-12z" fill="#f2d1a5"/><path d="m359.033 254.5h62.717l26.312 34.8c.443-2.535.688-5.138.688-7.8v-67h-89.717z" fill="#616161"/><path d="m421.75 254.5h-62.717c-.182 1.642-.283 3.309-.283 5v22c0 24.853 20.147 45 45 45 22.191 0 40.617-16.067 44.312-37.2z" fill="#ffe4c2"/><path d="m155.75 511.5v-75.291c0-13.432 8.928-25.227 21.856-28.874l56.144-15.835h44l56.144 15.835c12.928 3.646 21.856 15.441 21.856 28.874v75.291z" fill="#9ce3bf"/><path d="m155.75 481.5h200v30h-200z" fill="#87bcc4"/><path d="m313.75 481.5h42v30h-42z" fill="#ffe4c2"/><path d="m155.75 481.5h42v30h-42z" fill="#ffe4c2"/><path d="m277.75 358.5h-44v33c4.649 7.222 12.768 12 22 12s17.351-4.778 22-12z" fill="#f2d1a5"/><path d="m300.062 330.3c.443-2.535.688-5.138.688-7.8v-22c0-24.853-20.147-45-45-45-23.162 0-42.229 17.501-44.717 40h62.717z" fill="#616161"/><path d="m273.75 295.5h-62.717c-.182 1.642-.283 3.309-.283 5v22c0 24.853 20.147 45 45 45 22.191 0 40.617-16.067 44.312-37.2z" fill="#ffe4c2"/></g><g fill="#fff"><path d="m389.75 474h15v15h-15z"/><path d="m90.25 444.5h15v15h-15z"/><path d="m90.25 474.5h15v15h-15z"/><path d="m248.25 448.5h15v15h-15z"/></g><g id="Outline_34_"><path d="m255.75 235c28.463 0 55.924-10.309 77.323-29.025 21.195-18.538 35.044-44.023 38.996-71.762l-14.85-2.115c-7.14 50.112-50.762 87.902-101.469 87.902-56.519 0-102.5-45.981-102.5-102.5 0-.445.003-.891.008-1.334l-14.998-.186c-.007.506-.01 1.012-.01 1.52 0 64.79 52.71 117.5 117.5 117.5z"/><path d="m255.75 15c56.519 0 102.5 45.981 102.5 102.5l-.003.653 15 .123.003-.776c0-64.79-52.71-117.5-117.5-117.5-28.33 0-55.693 10.224-77.05 28.786-21.142 18.377-35.05 43.68-39.16 71.245l14.836 2.213c7.417-49.737 50.998-87.244 101.374-87.244z"/><path d="m255.75 30c-48.248 0-87.5 39.252-87.5 87.5 0 17.613 5.24 34.612 15.152 49.159l5.1 7.482 123.89-123.89-7.482-5.1c-14.548-9.911-31.547-15.151-49.16-15.151zm-64.635 120.314c-5.166-10.124-7.865-21.312-7.865-32.814 0-39.977 32.523-72.5 72.5-72.5 11.503 0 22.69 2.699 32.814 7.865z"/><path d="m255.75 205c48.248 0 87.5-39.252 87.5-87.5 0-17.613-5.24-34.612-15.152-49.159l-5.1-7.482-123.89 123.89 7.482 5.1c14.548 9.911 31.547 15.151 49.16 15.151zm64.635-120.314c5.166 10.124 7.865 21.312 7.865 32.814 0 39.977-32.523 72.5-72.5 72.5-11.503 0-22.69-2.699-32.814-7.865z"/><path d="m34.25 459h-19v-23.772h-15v76.272h15v-37.5h19v37.5h15v-73.997h-15z"/><path d="m483.93 359.116-4.643-1.31-4.072 14.438 4.643 1.31c9.651 2.722 16.393 11.627 16.393 21.655v43.791h-27v-27.5h-15v32.5h-19.5v15h19.5v15h-34.5v15h34.5v22.5h15v-57.5h27v57.5h15v-116.291c-.001-16.713-11.235-31.555-27.321-36.093z"/><path d="m428.557 359.084 32.222 9.089 4.072-14.438-31.601-8.912v-19.921c13.872-9.459 23-25.383 23-43.402v-74.5h-105v74.5c0 18.019 9.128 33.944 23 43.402v19.921l-50.672 14.297c-14.087 3.966-24.454 15.835-26.817 29.949l-11.511-3.247v-19.92c13.872-9.459 23-25.383 23-43.402v-22c0-28.948-23.552-52.5-52.5-52.5s-52.5 23.552-52.5 52.5v22c0 18.019 9.128 33.944 23 43.402v19.92l-35.567 10.031c-4.54-8.339-12.136-14.762-21.332-17.755l-43.161-14.045v-7.051h11.56c20.678 0 37.5-16.822 37.5-37.5v-35c0-42.735-34.772-77.504-77.513-77.504-.258 0-.516.001-.752.004-17.868.177-35.251 6.676-48.945 18.3l9.707 11.436c11.028-9.361 25.016-14.594 39.409-14.736l.581-.003c34.47 0 62.513 28.039 62.513 62.504v35c0 12.406-10.094 22.5-22.5 22.5h-6.36c8.56-8.595 13.86-20.44 13.86-33.5 0-22.332-18.168-40.5-40.5-40.5h-54.5v40.5c0 13.06 5.3 24.905 13.86 33.5h-6.36c-12.406 0-22.5-10.094-22.5-22.5v-34.109c.001-14.229 4.586-27.702 13.258-38.963l-11.883-9.152c-10.712 13.906-16.374 30.544-16.375 48.115v34.109c0 20.678 16.822 37.5 37.5 37.5h9.292v7.11l-41.25 13.879c-15.277 5.14-25.542 19.423-25.542 35.542v6.693h15v-6.693c0-9.672 6.158-18.241 15.325-21.325l17.095-5.752 50.476 43.264 44.481-44.544 22.081 7.186c4.392 1.429 8.177 4.162 10.914 7.739l-.052.015c-16.086 4.538-27.32 19.38-27.32 36.093v75.29h15v-22.5h27v22.5h15v-58h-15v20.5h-27v-37.791c0-10.028 6.741-18.934 16.393-21.655l51.301-14.469c4.626 5.061 10.651 8.554 17.306 10.063v23.352h15v-23.353c6.655-1.509 12.68-5.002 17.306-10.063l51.301 14.469c9.651 2.722 16.393 11.627 16.393 21.655v37.792h-27v-20.5h-15v58h15v-22.5h27v22.5h15v-75.291c0-16.713-11.234-31.555-27.32-36.093l-24.582-6.933c.838-9.184 7.299-17.092 16.298-19.625l51.297-14.473c6.317 6.909 15.239 10.915 24.807 10.915s18.491-4.006 24.807-10.916zm-363.307-50.581v-25.5h39.5c14.061 0 25.5 11.439 25.5 25.5 0 17.921-14.579 32.5-32.5 32.5s-32.5-14.579-32.5-32.5zm32.104 100.782-33.131-28.397 17.82-5.996v-21.571c4.92 1.73 10.204 2.681 15.708 2.681 4.668 0 9.176-.688 13.44-1.949v20.892l15.438 5.024zm158.396-146.285c20.678 0 37.5 16.822 37.5 37.5v8.354l-15.769-20.854h-57.081c5.16-14.549 19.054-25 35.35-25zm14.5 126.08c-3.523 4.363-8.805 6.92-14.5 6.92s-10.977-2.557-14.5-6.92v-16.133c4.609 1.327 9.47 2.053 14.5 2.053s9.891-.726 14.5-2.053zm-14.5-29.08c-20.678 0-37.5-16.822-37.5-37.5v-19.5h51.769l21.987 29.079c-4.245 16.052-18.888 27.921-36.256 27.921zm110.5-138h75v45.854l-15.769-20.854h-59.231zm0 59.5v-19.5h51.769l21.987 29.079c-4.245 16.052-18.888 27.921-36.256 27.921-20.678 0-37.5-16.822-37.5-37.5zm52 66.58c-3.523 4.363-8.805 6.92-14.5 6.92s-10.977-2.557-14.5-6.92v-16.133c4.609 1.327 9.47 2.053 14.5 2.053s9.891-.726 14.5-2.053z"/></g></g></svg>