<svg id="Capa_1" enable-background="new 0 0 511.5 511.5" height="512" viewBox="0 0 511.5 511.5" width="512" xmlns="http://www.w3.org/2000/svg"><g><g id="Filled_16_"><path d="m227.75 314c0 99.411-21.487 190-85 190s-135 .411-135-99 50-311 135-311c63.513 0 85 120.589 85 220z" fill="#f88fa4"/><path d="m283.75 314c0 99.411 21.487 190 85 190s135 .411 135-99-50-311-135-311c-63.513 0-85 120.589-85 220z" fill="#f88fa4"/><path d="m142.75 474c-60.632 0-128.528.369-134.562-86.087-.291 5.99-.438 11.703-.438 17.087 0 99.411 71.487 99 135 99s85-90.589 85-190c0-4.989-.057-10.033-.168-15.111-2.097 93.385-24.507 175.111-84.832 175.111z" fill="#f05475"/><path d="m368.75 474c-60.325 0-82.735-81.726-84.832-175.111-.111 5.078-.168 10.122-.168 15.111 0 99.411 21.487 190 85 190s135 .411 135-99c0-5.384-.147-11.097-.438-17.087-6.034 86.456-73.93 86.087-134.562 86.087z" fill="#f05475"/><path d="m131.75 195c12.72 10.297 30.38 11.949 44.789 4.191l33.175-17.863c12.956-6.977 21.036-20.504 21.036-35.219v-146.109h50v146.108c0 14.715 8.08 28.242 21.036 35.219l33.175 17.863c14.41 7.759 32.069 6.107 44.789-4.191l-26 101c1.226-15.935-6.657-31.194-20.361-39.416l-46.77-28.062c-19.001-11.401-42.739-11.401-61.74 0l-46.77 28.062c-13.704 8.222-21.586 23.482-20.361 39.416z" fill="#ffe4c2"/><path d="m353.75 296 8.496-33.002c-1.672-13.925-9.66-26.525-21.969-33.911l-50.919-30.551c-20.687-12.412-46.53-12.412-67.216 0l-50.919 30.551c-12.309 7.385-20.297 19.986-21.969 33.911l8.496 33.002c-1.226-15.935 6.657-31.194 20.361-39.416l46.77-28.062c19.001-11.401 42.739-11.401 61.74 0l46.77 28.062c13.703 8.222 21.585 23.481 20.359 39.416z" fill="#f2d1a5"/><circle cx="99.75" cy="359" fill="#9ce3bf" r="35"/><circle cx="405.75" cy="400" fill="#9ce3bf" r="45"/><path d="m99.75 364c-13.934 0-25.988-8.186-31.616-20-2.167 4.549-3.384 9.635-3.384 15 0 19.299 15.701 35 35 35s35-15.701 35-35c0-5.365-1.217-10.451-3.384-15-5.628 11.814-17.682 20-31.616 20z" fill="#87bcc4"/><path d="m405.75 415c-19.555 0-36.228-12.541-42.42-30-1.665 4.695-2.58 9.742-2.58 15 0 24.813 20.187 45 45 45s45-20.187 45-45c0-5.258-.915-10.305-2.58-15-6.192 17.459-22.865 30-42.42 30z" fill="#87bcc4"/><g fill="#9ce3bf"><circle cx="424.75" cy="278" r="20"/><circle cx="92.75" cy="238" r="20"/><circle cx="143.75" cy="451" r="20"/></g></g><g fill="#fff"><path d="m97.25 354h15v15h-15z"/><path d="m386.25 383h15v15h-15z"/><path d="m411.25 403h15v15h-15z"/><path d="m316.75 330.5h15v15h-15z"/><path d="m416.75 209.5h15v15h-15z"/><path d="m346.75 149.5h15v15h-15z"/><path d="m66.75 440.5h15v15h-15z"/><path d="m136.75 149.5h15v15h-15z"/><path d="m176.75 399.5h15v15h-15z"/></g><g id="Outline_16_"><path d="m172.983 192.587c-11.782 6.343-26.115 5.003-36.514-3.416l-9.438 11.658c8.771 7.101 19.465 10.736 30.244 10.736 7.795 0 15.635-1.902 22.82-5.771l33.175-17.863c15.409-8.297 24.98-24.322 24.98-41.822v-14.609h35v14.608c0 17.5 9.572 33.525 24.98 41.822l9.52 5.126 7.111-13.207-9.52-5.126c-10.542-5.677-17.092-16.642-17.092-28.615v-146.108h-15v26.5h-35v-26.5h-15v146.108c0 11.974-6.549 22.938-17.092 28.615zm65.267-151.087h35v30h-35zm0 45h35v30h-35z"/><path d="m329.53 263.015c10.39 6.234 16.844 17.63 16.844 29.74 0 .888-.035 1.787-.103 2.67l14.956 1.15c.097-1.265.146-2.55.146-3.82 0-17.349-9.245-33.673-24.126-42.603l-46.77-28.062c-10.487-6.293-22.497-9.619-34.729-9.619-12.231 0-24.24 3.326-34.729 9.619l-29.057 17.434 7.718 12.862 29.057-17.434c8.157-4.895 17.498-7.481 27.011-7.481 9.514 0 18.854 2.587 27.011 7.481z"/><path d="m181.97 263.015 4.85-2.91-7.718-12.862-4.85 2.91c-14.882 8.93-24.127 25.254-24.127 42.603 0 1.274.05 2.56.147 3.823l14.955-1.157c-.068-.88-.103-1.777-.103-2.666.001-12.111 6.456-23.507 16.846-29.741z"/><path d="m338.517 192.587-10.448-5.626-7.111 13.207 10.448 5.626c6.985 3.761 14.868 5.75 22.795 5.75 10.984 0 21.733-3.805 30.269-10.714l-9.438-11.658c-5.873 4.754-13.271 7.373-20.83 7.373-5.455-.002-10.878-1.37-15.685-3.958z"/><path d="m291.25 314c0-17.781.692-35.513 2.057-52.705l-14.953-1.188c-1.396 17.585-2.104 35.717-2.104 53.892 0 5.27.061 10.554.181 15.706l14.996-.352c-.118-5.034-.177-10.199-.177-15.353z"/><path d="m486.158 244.209-14.426 4.109c15.123 53.094 24.518 113.131 24.518 156.682 0 43.977-14.065 70.074-44.264 82.131l5.562 13.931c36.136-14.427 53.703-45.849 53.703-96.062-.001-44.843-9.615-106.455-25.093-160.791z"/><path d="m368.75 101.5c36.481 0 72.475 48.342 98.753 132.631l14.32-4.465c-12.883-41.324-28.066-74.565-45.128-98.799-20.727-29.44-43.587-44.367-67.945-44.367-28.183 0-50.622 19.87-66.691 59.058l13.878 5.691c13.537-33.011 31.306-49.749 52.813-49.749z"/><path d="m370.315 496.5h-1.565c-60.411 0-74.044-95.442-76.794-152.334l-14.982.724c2.335 48.316 10.09 87.018 23.048 115.03 15.834 34.227 38.958 51.581 68.728 51.581h1.565c23.055 0 49.187 0 71.958-5.596l-3.579-14.566c-21.008 5.161-46.175 5.161-68.379 5.161z"/><path d="m218.193 261.295c1.365 17.191 2.057 34.924 2.057 52.705 0 5.153-.059 10.318-.177 15.353l14.996.352c.121-5.151.182-10.436.181-15.705 0-18.175-.708-36.307-2.104-53.892z"/><path d="m15.25 405c0-43.551 9.395-103.587 24.518-156.681l-14.426-4.109c-15.478 54.336-25.092 115.947-25.092 160.79 0 50.212 17.566 81.635 53.703 96.062l5.562-13.931c-30.2-12.057-44.265-38.154-44.265-82.131z"/><path d="m142.75 496.5h-1.565c-22.204 0-47.371 0-68.379-5.162l-3.579 14.566c22.771 5.596 48.902 5.596 71.958 5.596h1.565c29.771 0 52.894-17.354 68.728-51.581 12.958-28.012 20.713-66.713 23.048-115.03l-14.982-.724c-2.75 56.893-16.383 152.335-76.794 152.335z"/><path d="m142.75 101.5c21.507 0 39.276 16.738 52.814 49.749l13.878-5.691c-16.071-39.188-38.509-59.058-66.692-59.058-24.358 0-47.218 14.927-67.945 44.368-17.062 24.234-32.245 57.475-45.128 98.799l14.32 4.465c26.278-84.29 62.272-132.632 98.753-132.632z"/><path d="m92.25 400.824v19.176h15v-19.176c6.143-1.099 11.83-3.517 16.76-6.958l13.57 13.57 10.606-10.606-13.57-13.57c3.44-4.929 5.859-10.617 6.958-16.76h19.176v-15h-19.176c-1.099-6.143-3.517-11.83-6.958-16.76l13.57-13.57-10.606-10.606-13.57 13.57c-4.929-3.44-10.617-5.859-16.76-6.958v-19.176h-15v19.176c-6.143 1.099-11.83 3.517-16.76 6.958l-13.57-13.57-10.607 10.606 13.57 13.57c-3.44 4.929-5.859 10.617-6.958 16.76h-19.175v15h19.176c1.099 6.143 3.517 11.83 6.958 16.76l-13.57 13.57 10.606 10.606 13.57-13.57c4.93 3.44 10.617 5.859 16.76 6.958zm7.5-69.324c15.164 0 27.5 12.336 27.5 27.5s-12.336 27.5-27.5 27.5-27.5-12.336-27.5-27.5 12.336-27.5 27.5-27.5z"/><path d="m447.781 431.424c5.15-6.871 8.649-15.044 9.925-23.924h19.044v-15h-19.044c-1.276-8.881-4.775-17.053-9.925-23.924l13.477-13.477-10.606-10.606-13.477 13.477c-6.871-5.15-15.044-8.649-23.924-9.925v-19.045h-15v19.044c-8.881 1.276-17.053 4.775-23.924 9.925l-13.477-13.477-10.606 10.606 13.477 13.477c-5.15 6.871-8.649 15.044-9.925 23.924h-19.046v15h19.044c1.276 8.881 4.775 17.053 9.925 23.924l-13.477 13.477 10.606 10.606 13.477-13.477c6.871 5.15 15.044 8.649 23.924 9.925v19.046h15v-19.044c8.881-1.276 17.053-4.775 23.924-9.925l13.477 13.477 10.606-10.606zm-42.031 6.076c-20.678 0-37.5-16.822-37.5-37.5s16.822-37.5 37.5-37.5 37.5 16.822 37.5 37.5-16.822 37.5-37.5 37.5z"/><path d="m424.75 305.5c15.164 0 27.5-12.336 27.5-27.5s-12.336-27.5-27.5-27.5-27.5 12.336-27.5 27.5 12.336 27.5 27.5 27.5zm0-40c6.893 0 12.5 5.607 12.5 12.5s-5.607 12.5-12.5 12.5-12.5-5.607-12.5-12.5 5.607-12.5 12.5-12.5z"/><path d="m65.25 238c0 15.164 12.336 27.5 27.5 27.5s27.5-12.336 27.5-27.5-12.336-27.5-27.5-27.5-27.5 12.336-27.5 27.5zm27.5-12.5c6.893 0 12.5 5.607 12.5 12.5s-5.607 12.5-12.5 12.5-12.5-5.607-12.5-12.5 5.607-12.5 12.5-12.5z"/><path d="m143.75 423.5c-15.164 0-27.5 12.336-27.5 27.5s12.336 27.5 27.5 27.5 27.5-12.336 27.5-27.5-12.336-27.5-27.5-27.5zm0 40c-6.893 0-12.5-5.607-12.5-12.5s5.607-12.5 12.5-12.5 12.5 5.607 12.5 12.5-5.607 12.5-12.5 12.5z"/><path d="m176.75 320.5h15v15h-15z"/><path d="m456.75 309.5h15v15h-15z"/><path d="m386.75 129.5h15v15h-15z"/><path d="m86.75 169.5h15v15h-15z"/></g></g></svg>