<svg id="Capa_1" enable-background="new 0 0 511 511" height="512" viewBox="0 0 511 511" width="512" xmlns="http://www.w3.org/2000/svg"><g><g id="Filled_37_"><path d="m503.5 162.5v-56c0-16.569-13.431-30-30-30h-294v86z" fill="#e4e8ed"/><path d="m473.5 450.5h-436c-16.569 0-30-13.431-30-30v-330c0-16.569 13.431-30 30-30h111c11.354 0 22.369 3.864 31.235 10.957l47.609 38.087c8.866 7.093 19.881 10.957 31.235 10.957h214.921c16.569 0 30 13.431 30 30v270c0 16.568-13.431 29.999-30 29.999z" fill="#f8e868"/><path d="m473.5 420.5h-436c-16.569 0-30-13.431-30-30v30c0 16.569 13.431 30 30 30h436c16.569 0 30-13.431 30-30v-30c0 16.569-13.431 30-30 30z" fill="#efc17a"/><circle cx="170.5" cy="273.5" fill="#9ce3bf" r="70"/><g fill="#87bcc4"><path d="m170.5 313.5c-33.509 0-61.503-23.551-68.372-55-1.056 4.834-1.628 9.849-1.628 15 0 38.66 31.34 70 70 70s70-31.34 70-70c0-5.151-.572-10.166-1.628-15-6.869 31.449-34.863 55-68.372 55z"/><circle cx="55.5" cy="273.5" r="15"/><circle cx="89.183" cy="354.817" r="15"/><circle cx="170.5" cy="388.5" r="15"/><circle cx="251.817" cy="354.817" r="15"/><circle cx="285.5" cy="273.5" r="15"/><circle cx="251.817" cy="192.183" r="15"/><circle cx="170.5" cy="158.5" r="15"/><circle cx="89.183" cy="192.183" r="15"/><circle cx="157.5" cy="257.5" r="15"/></g><path d="m440.5 211.5h-80c-13.807 0-25-11.193-25-25 0-13.807 11.193-25 25-25h80c13.807 0 25 11.193 25 25 0 13.807-11.193 25-25 25z" fill="#e4e8ed"/></g><g fill="#fff"><path d="m112.5 83h15v15h-15z"/><path d="m142.5 83h15v15h-15z"/><path d="m173 303.5h15v15h-15z"/><path d="m192 238.5h15v15h-15z"/><path d="m173 303.5h15v15h-15z"/><path d="m192 238.5h15v15h-15z"/><path d="m415.5 304h15v15h-15z"/><path d="m415.5 374h15v15h-15z"/></g><g id="Outline_37_"><path d="m15 420.5v-75.795h-15v75.795c0 20.678 16.822 37.5 37.5 37.5h107.062v-15h-107.062c-12.407 0-22.5-10.094-22.5-22.5z"/><path d="m496 420.5c0 12.406-10.094 22.5-22.5 22.5h-313.938v15h313.938c20.678 0 37.5-16.822 37.5-37.5v-182.857h-15z"/><path d="m473.5 69h-146.857v15h146.857c12.406 0 22.5 10.094 22.5 22.5v14.02c-6.272-4.719-14.064-7.52-22.5-7.52h-214.922c-9.614 0-19.042-3.308-26.55-9.313l-24.608-19.687h104.223v-15h-122.973l-4.249-3.399c-10.158-8.126-22.914-12.601-35.921-12.601h-111c-20.678 0-37.5 16.822-37.5 37.5v239.205h15v-239.205c0-12.406 10.093-22.5 22.5-22.5h111c9.614 0 19.042 3.308 26.55 9.313l47.608 38.086c10.156 8.126 22.913 12.601 35.92 12.601h214.922c12.406 0 22.5 10.094 22.5 22.5v12 60.143h15v-116.143c0-20.678-16.822-37.5-37.5-37.5z"/><path d="m37.5 83h60v15h-60z"/><path d="m193 388.5c0-9.777-6.271-18.114-15-21.21v-16.659c15.749-1.52 30.137-7.765 41.716-17.309l11.816 11.816c-3.978 8.361-2.537 18.677 4.374 25.588 4.25 4.25 9.9 6.591 15.911 6.591s11.661-2.341 15.909-6.59c4.25-4.249 6.591-9.899 6.591-15.91s-2.341-11.661-6.59-15.909c-4.249-4.25-9.899-6.591-15.91-6.591-3.412 0-6.697.779-9.686 2.208l-11.809-11.81c9.543-11.579 15.789-25.967 17.308-41.716h16.66c3.096 8.729 11.433 15 21.21 15 12.406 0 22.5-10.094 22.5-22.5s-10.094-22.499-22.5-22.499c-9.777 0-18.114 6.271-21.21 15h-16.66c-1.52-15.749-7.765-30.137-17.308-41.716l11.809-11.81c2.99 1.429 6.274 2.208 9.686 2.208 6.01 0 11.66-2.34 15.909-6.59l.001-.001c4.25-4.249 6.59-9.899 6.59-15.909 0-6.011-2.341-11.661-6.59-15.909-4.249-4.25-9.899-6.591-15.91-6.591-6.01 0-11.661 2.341-15.91 6.59-6.912 6.912-8.353 17.229-4.375 25.589l-11.816 11.816c-11.579-9.543-25.967-15.789-41.716-17.309v-16.658c8.729-3.096 15-11.433 15-21.21 0-12.406-10.093-22.5-22.5-22.5s-22.5 10.094-22.5 22.5c0 9.777 6.271 18.114 15 21.21v16.659c-15.749 1.52-30.137 7.765-41.716 17.309l-11.816-11.816c3.978-8.361 2.537-18.677-4.374-25.588-4.25-4.25-9.9-6.591-15.91-6.591s-11.661 2.341-15.91 6.59c-4.25 4.25-6.59 9.9-6.59 15.91s2.341 11.66 6.59 15.909c4.25 4.25 9.9 6.591 15.911 6.591 3.412 0 6.696-.779 9.686-2.208l11.809 11.81c-9.543 11.579-15.789 25.967-17.308 41.716h-16.662c-3.096-8.729-11.432-15-21.21-15-12.407-.001-22.5 10.093-22.5 22.499s10.093 22.5 22.5 22.5c9.777 0 18.114-6.271 21.21-15h16.659c1.52 15.749 7.765 30.137 17.308 41.716l-11.809 11.81c-2.989-1.429-6.274-2.208-9.686-2.208-6.01 0-11.66 2.341-15.91 6.59v.001c-4.249 4.249-6.59 9.899-6.59 15.909s2.341 11.66 6.59 15.909c4.25 4.25 9.9 6.591 15.911 6.591 6.01 0 11.66-2.341 15.91-6.59 6.912-6.912 8.353-17.229 4.375-25.589l11.816-11.816c11.579 9.543 25.967 15.789 41.716 17.309v16.659c-8.729 3.096-15 11.433-15 21.21 0 12.406 10.093 22.5 22.5 22.5s22.5-10.095 22.5-22.501zm53.514-38.986c1.417-1.416 3.3-2.196 5.303-2.196s3.886.78 5.304 2.197c1.416 1.416 2.196 3.3 2.196 5.303s-.78 3.887-2.197 5.304c-1.417 1.416-3.299 2.196-5.303 2.196s-3.887-.78-5.303-2.196v-.001c-2.925-2.925-2.925-7.683 0-10.607zm38.986-83.514c4.136 0 7.5 3.364 7.5 7.5s-3.364 7.5-7.5 7.5-7.5-3.364-7.5-7.5 3.364-7.5 7.5-7.5zm-38.986-79.121c1.417-1.416 3.3-2.196 5.303-2.196s3.886.78 5.304 2.197c1.416 1.416 2.196 3.3 2.196 5.303s-.78 3.887-2.196 5.303l-.001.001c-1.417 1.416-3.299 2.196-5.303 2.196s-3.887-.78-5.304-2.197c-2.924-2.924-2.924-7.682.001-10.607zm-152.028 10.607c-1.417 1.416-3.3 2.196-5.303 2.196s-3.887-.78-5.304-2.197c-1.417-1.416-2.197-3.3-2.197-5.303s.78-3.887 2.197-5.304c1.417-1.416 3.3-2.196 5.303-2.196s3.886.78 5.303 2.196v.001c2.926 2.925 2.926 7.683.001 10.607zm-38.986 83.514c-4.136 0-7.5-3.364-7.5-7.5s3.364-7.5 7.5-7.5 7.5 3.364 7.5 7.5-3.364 7.5-7.5 7.5zm38.986 79.121c-1.417 1.416-3.3 2.196-5.303 2.196s-3.887-.78-5.304-2.197c-1.417-1.416-2.197-3.3-2.197-5.303s.78-3.887 2.197-5.303v-.001c1.417-1.416 3.3-2.196 5.303-2.196s3.886.78 5.303 2.197c2.926 2.924 2.926 7.682.001 10.607zm76.014-209.121c4.136 0 7.5 3.364 7.5 7.5s-3.364 7.5-7.5 7.5-7.5-3.364-7.5-7.5 3.364-7.5 7.5-7.5zm-62.5 122.5c0-34.463 28.038-62.5 62.5-62.5s62.5 28.037 62.5 62.5-28.038 62.5-62.5 62.5-62.5-28.037-62.5-62.5zm55 115c0-4.136 3.364-7.5 7.5-7.5s7.5 3.364 7.5 7.5-3.364 7.5-7.5 7.5-7.5-3.364-7.5-7.5z"/><path d="m173.41 273.409c4.249-4.249 6.59-9.899 6.59-15.909s-2.341-11.66-6.59-15.909c-4.25-4.25-9.9-6.591-15.91-6.591s-11.66 2.341-15.91 6.59c-4.25 4.25-6.59 9.9-6.59 15.91s2.341 11.66 6.59 15.909c4.25 4.25 9.9 6.591 15.91 6.591s11.66-2.341 15.91-6.591c0 .001 0 .001 0 0zm-10.607-10.606c-1.417 1.417-3.3 2.197-5.303 2.197s-3.886-.78-5.303-2.197c-1.417-1.416-2.197-3.3-2.197-5.303s.78-3.887 2.197-5.304c1.417-1.416 3.3-2.196 5.303-2.196s3.886.78 5.303 2.197c1.417 1.416 2.197 3.3 2.197 5.303s-.78 3.887-2.197 5.303z"/><path d="m137 292.5h15v15h-15z"/><path d="m199 272.5h15v15h-15z"/><path d="m440.5 154h-80c-17.921 0-32.5 14.579-32.5 32.5s14.579 32.5 32.5 32.5h80c17.921 0 32.5-14.579 32.5-32.5s-14.579-32.5-32.5-32.5zm0 50h-80c-9.649 0-17.5-7.851-17.5-17.5s7.851-17.5 17.5-17.5h80c9.649 0 17.5 7.851 17.5 17.5s-7.851 17.5-17.5 17.5z"/><path d="m330.5 244h140v15h-140z"/><path d="m330.5 274h140v15h-140z"/><path d="m330.5 304h70v15h-70z"/><path d="m330.5 344h140v15h-140z"/><path d="m330.5 374h70v15h-70z"/></g></g></svg>