<svg id="Capa_1" enable-background="new 0 0 512.5 512.5" height="512" viewBox="0 0 512.5 512.5" width="512" xmlns="http://www.w3.org/2000/svg"><g><g id="Filled_22_"><path d="m252.899 224.597 25.351-17.097 18.066-29.307 38.071 24.746-17.137 28.561-39.522 28.619c-10.048 7.276-24.142 4.649-30.894-5.76-6.431-9.914-3.733-23.154 6.065-29.762z" fill="#ffe4c2"/><path d="m462.25 319.5h22c11.046 0 20-8.954 20-20v-90h-42z" fill="#ffe4c2"/><path d="m484.412 129.358-55.162-19.858h-44l-46.759 18.854c-9.9 3.992-18.263 11.048-23.864 20.135l-18.311 29.704 38.071 24.746 15.863-26.439h2v95h110v-62h42v-51.915c0-12.651-7.936-23.942-19.838-28.227z" fill="#9ce3bf"/><path d="m259.601 224.597-25.351-17.097-18.066-29.307-38.071 24.746 17.137 28.561 39.522 28.619c10.048 7.276 24.142 4.649 30.894-5.76 6.431-9.914 3.733-23.154-6.065-29.762z" fill="#ffe4c2"/><path d="m197.873 148.489c-5.602-9.087-13.964-16.143-23.864-20.135l-46.759-18.854h-44l-55.162 19.858c-11.902 4.285-19.838 15.576-19.838 28.227v51.915h42v81h110v-114h2l15.863 26.439 38.071-24.746z" fill="#f8e868"/><path d="m352.25 301.5h110v211h-110z" fill="#e4e8ed"/><path d="m352.25 482.5h110v30h-110z" fill="#cad8eb"/><path d="m352.25 241.5h110v30h-110z" fill="#87bcc4"/><path d="m352.25 271.5h110v30h-110z" fill="#f8e868"/><path d="m367.25 7.5v40h51l29 24v-64z" fill="#616161"/><path d="m367.25 47.5v30c0 22.091 17.909 40 40 40 22.091 0 40-17.909 40-40v-6l-29-24z" fill="#ffe4c2"/><circle cx="256.25" cy="67.5" fill="#f88fa4" r="60"/><path d="m256.25 97.5c-27.958 0-51.449-19.122-58.11-45-1.234 4.794-1.89 9.82-1.89 15 0 33.137 26.863 60 60 60s60-26.863 60-60c0-5.18-.656-10.206-1.89-15-6.661 25.878-30.152 45-58.11 45z" fill="#f05475"/><path d="m50.25 290.5h110v222h-110z" fill="#e4e8ed"/><path d="m50.25 482.5h110v30h-110z" fill="#cad8eb"/><path d="m50.25 260.5h110v30h-110z" fill="#efc17a"/><path d="m50.25 319.5h-22c-11.046 0-20-8.954-20-20v-90h42z" fill="#ffe4c2"/><path d="m105.25 7.5c-22.091 0-40 17.909-40 40v24l29-24h51c0-22.091-17.909-40-40-40z" fill="#616161"/><path d="m65.25 71.5v6c0 22.091 17.909 40 40 40 22.091 0 40-17.909 40-40v-30h-51z" fill="#ffe4c2"/></g><g fill="#fff"><path d="m112.75 262.5h-15v-15h15zm0-35h-15v-15h15zm0-35h-15v-15h15zm0-35h-15v-15h15z"/><path d="m399.75 162.5h15v15h-15z"/></g><g id="Outline_22_"><path d="m42.75 414.5h15v98h-15z"/><path d="m97.75 342.5h15v170h-15z"/><path d="m152.75 374.667h15v137.833h-15z"/><path d="m454.75 414.5h15v98h-15z"/><path d="m399.75 342.5h15v170h-15z"/><path d="m344.75 378.952h15v133.548h-15z"/><path d="m511.75 167.929v-10.344c0-15.765-9.966-29.944-24.799-35.283l-42.511-15.304c6.446-8.109 10.31-18.358 10.31-29.497v-77.501h-95v77.5c0 11.327 3.991 21.735 10.632 29.907l-34.702 13.989c-11.469 4.634-20.956 12.643-27.435 23.158l-35.531 57.633-16.463 11.105-16.466-11.105-35.527-57.633c-6.488-10.525-15.978-18.532-27.444-23.155l-34.697-13.99c6.642-8.172 10.633-18.581 10.633-29.908v-30c0-26.191-21.309-47.5-47.5-47.5s-47.5 21.309-47.5 47.5v30c0 11.14 3.865 21.388 10.31 29.497l-42.512 15.305c-14.832 5.338-24.798 19.517-24.798 35.282v10.344h15v-10.344c0-9.459 5.979-17.966 14.879-21.17l50.328-18.118c7.113 4.252 15.421 6.703 24.293 6.703 8.782 0 17.009-2.405 24.074-6.577l41.88 16.888c8.475 3.417 15.489 9.335 20.285 17.114l14.468 23.47-25.413 16.518-14.047-23.413h-13.747v114h-95v-113.5h-15v32.5h-27v-19.071h-15v116.571c0 15.164 12.336 27.5 27.5 27.5h14.5v72.5h15v-101.5h95v61.667h15v-159.423l21.858 36.43 15.572 11.277 8.798-12.149-13.087-9.477-12.625-21.041 25.564-16.617 14.884 24.145 26.692 18.002c3.914 2.639 6.25 7.039 6.25 11.769 0 2.729-.79 5.39-2.284 7.694-2.625 4.047-7.078 6.463-11.913 6.463-2.988 0-5.854-.932-8.29-2.696l-13.042-9.445-8.798 12.149 13.042 9.445c5.012 3.629 10.92 5.547 17.088 5.547 3.034 0 5.993-.469 8.797-1.35 2.835.894 5.777 1.349 8.783 1.349 6.173 0 12.083-1.918 17.09-5.546l40.762-29.52 21.858-36.43v163.708h15v-54.951h95v90.5h15v-72.5h14.5c15.163 0 27.5-12.336 27.5-27.5v-116.571h-15v19.071h-27v-32.5h-15v94.5h-95v-95h-13.746l-14.048 23.413-25.411-16.517 14.471-23.472c4.789-7.774 11.804-13.694 20.278-17.118l41.881-16.883c5.012 2.96 10.608 5.029 16.575 5.98v23.097h15v-23.098c6.053-.964 11.726-3.077 16.793-6.106l50.328 18.118c8.899 3.204 14.879 11.711 14.879 21.17v10.344h15.001zm-439-120.429c0-17.92 14.58-32.5 32.5-32.5 15.339 0 28.221 10.685 31.617 25h-45.318l-18.799 15.558zm65 30c0 17.92-14.58 32.5-32.5 32.5s-32.5-14.58-32.5-32.5v-2.472l24.201-20.028h40.799zm-95 234.5h-14.5c-6.893 0-12.5-5.607-12.5-12.5v-82.5h27zm427-95h27v82.5c0 6.893-5.607 12.5-12.5 12.5h-14.5zm-110 62h95v15h-95zm-35.517-73.715-12.625 21.041-36.908 26.729c1.285-3.327 1.958-6.867 1.958-10.471 0-7.418-2.805-14.438-7.708-19.764l14.836-10.007 14.885-24.144zm115.517-127.785c0 17.92-14.579 32.5-32.5 32.5s-32.5-14.58-32.5-32.5v-22.5h40.799l24.201 20.029zm0-21.942-18.799-15.558h-46.201v-25h65z"/><path d="m256.25 135c37.22 0 67.5-30.28 67.5-67.5s-30.28-67.5-67.5-67.5-67.5 30.28-67.5 67.5 30.28 67.5 67.5 67.5zm0-120c28.948 0 52.5 23.551 52.5 52.5s-23.552 52.5-52.5 52.5c-28.949 0-52.5-23.551-52.5-52.5s23.551-52.5 52.5-52.5z"/><path d="m236.553 97.803 19.697-19.696 19.696 19.696 10.608-10.606-19.697-19.697 19.697-19.697-10.608-10.606-19.696 19.696-19.697-19.696-10.606 10.606 19.696 19.697-19.696 19.697z"/></g></g></svg>