<svg id="Capa_1" enable-background="new 0 0 511.5 511.5" height="512" viewBox="0 0 511.5 511.5" width="512" xmlns="http://www.w3.org/2000/svg"><g><g id="Filled_35_"><path d="m474 207.75h-66l-150 60v-60h-34c-16.569 0-30-13.431-30-30v-140c0-16.569 13.431-30 30-30h250c16.569 0 30 13.431 30 30v140c0 16.569-13.431 30-30 30z" fill="#f88fa4"/><path d="m474 177.75h-71.777l-114.223 45.689v-45.689h-64c-16.569 0-30-13.431-30-30v30c0 16.569 13.431 30 30 30h34v60l150-60h66c16.569 0 30-13.431 30-30v-30c0 16.569-13.431 30-30 30z" fill="#f05475"/><path d="m154.669 188.419-60.811-60.811c-7.81-7.81-20.474-7.81-28.284 0l-14.142 14.142 89.095 89.095 14.142-14.142c7.811-7.81 7.811-20.473 0-28.284z" fill="#c4e5f9"/><path d="m334.274 424.593-89.095-89.095-9.9 9.9c-7.811 7.81-20.474 7.81-28.284 0l-76.368-76.367c-7.81-7.811-7.81-20.474 0-28.284l9.9-9.899-89.095-89.098-14.142 14.142c-39.053 39.052-39.053 102.369 0 141.421l141.421 141.421c39.052 39.052 102.369 39.052 141.421 0z" fill="#e4e8ed"/><path d="m259.321 321.355-14.142 14.142 89.095 89.095 14.142-14.142c7.81-7.81 7.81-20.474 0-28.284l-60.811-60.811c-7.81-7.81-20.474-7.81-28.284 0z" fill="#c4e5f9"/><path d="m178.711 408.735-141.422-141.422c-15.699-15.699-25.082-35.321-28.159-55.711-4.577 30.329 4.806 62.358 28.159 85.711l141.421 141.421c39.052 39.052 102.369 39.052 141.421 0l14.142-14.142-15.011-15.011c-39.116 38.197-101.786 37.919-140.551-.846z" fill="#cad8eb"/><path d="m347.559 381.308-27.427 27.427c-.287.287-.579.564-.869.847l15.011 15.011 14.142-14.142c7.81-7.81 7.81-20.474 0-28.284z" fill="#9eb6f4"/><circle cx="349" cy="113.75" fill="#9ce3bf" r="50"/><path d="m349 133.75c-22.346 0-41.312-14.736-47.698-35-1.493 4.738-2.302 9.776-2.302 15 0 27.57 22.43 50 50 50s50-22.43 50-50c0-5.224-.809-10.262-2.302-15-6.386 20.264-25.352 35-47.698 35z" fill="#87bcc4"/></g><g fill="#fff"><path d="m434 30.25h15v15h-15z"/><path d="m345.5 86.75h15v15h-15z"/><path d="m320.5 107.25h15v15h-15z"/><path d="m360.5 116.75h15v15h-15z"/><path d="m67 257.25h15v15h-15z"/></g><g id="Outline_35_"><path d="m474 .25h-250c-20.678 0-37.5 16.822-37.5 37.5v93.697h15v-93.697c0-12.406 10.093-22.5 22.5-22.5h250c9.777 0 18.114 6.271 21.21 15h-31.21v15h32.5v15h-18.5v15h18.5v34.517h15v-72.017c0-20.678-16.822-37.5-37.5-37.5z"/><path d="m496.5 177.75c0 12.406-10.093 22.5-22.5 22.5h-67.444l-141.056 56.422v-56.422h-41.5c-12.407 0-22.5-10.094-22.5-22.5v-31.303h-15v31.303c0 20.678 16.822 37.5 37.5 37.5h26.5v63.578l158.944-63.578h64.556c20.678 0 37.5-16.822 37.5-37.5v-52.983h-15z"/><path d="m173.408 444.039c2.873 2.872 5.931 5.606 9.091 8.126l9.352-11.729c-2.723-2.171-5.359-4.527-7.836-7.005l-141.422-141.42c-5.967-5.968-10.994-12.62-15.06-19.761h24.467v-15h-31.312c-1.702-4.861-2.982-9.876-3.85-15h19.162v-15h-20.484c-.001-.217-.016-.431-.016-.648 0-24.707 9.622-47.936 27.093-65.406l8.839-8.839 78.489 78.489-4.596 4.596c-5.194 5.194-8.055 12.101-8.055 19.445 0 7.346 2.86 14.252 8.055 19.446l40.493 40.492 10.606-10.607-40.493-40.492c-2.361-2.36-3.661-5.5-3.661-8.839s1.3-6.478 3.661-8.838l24.042-24.042c5.194-5.194 8.055-12.101 8.055-19.446s-2.86-14.251-8.055-19.445l-60.812-60.812c-5.195-5.193-12.101-8.054-19.445-8.054-7.345 0-14.251 2.86-19.445 8.054l-28.284 28.284c-20.305 20.305-31.487 47.3-31.487 76.014 0 28.713 11.182 55.709 31.486 76.016zm-102.532-311.128c2.361-2.361 5.5-3.661 8.839-3.661 3.338 0 6.478 1.3 8.839 3.661l60.811 60.812c2.361 2.36 3.661 5.499 3.661 8.838s-1.3 6.479-3.661 8.84l-8.839 8.838-78.488-78.489z"/><path d="m267.571 496.25h15v15h-15z"/><path d="m237.571 496.25h15v15h-15z"/><path d="m45.5 483.75c0-6.893 5.607-12.5 12.5-12.5h33c17.92 0 32.5-14.579 32.5-32.5s-14.58-32.5-32.5-32.5h-91v15h91c9.649 0 17.5 7.851 17.5 17.5s-7.851 17.5-17.5 17.5h-33c-15.164 0-27.5 12.337-27.5 27.5s12.336 27.5 27.5 27.5h164.571v-15h-164.571c-6.893 0-12.5-5.607-12.5-12.5z"/><path d="m344.885 424.588 8.834-8.834c5.194-5.194 8.055-12.101 8.055-19.446s-2.86-14.251-8.055-19.445l-60.811-60.81c-5.193-5.194-12.099-8.055-19.446-8.055-7.345 0-14.251 2.86-19.445 8.054l-24.042 24.041c-2.361 2.361-5.5 3.661-8.839 3.661-3.338 0-6.477-1.301-8.838-3.661l-25.268-25.269-10.606 10.607 25.269 25.269c5.195 5.193 12.1 8.054 19.444 8.054 7.346 0 14.252-2.86 19.446-8.054l4.596-4.596 78.489 78.489-8.839 8.839c-17.471 17.471-40.699 27.092-65.407 27.092-16.212 0-32.159-4.249-46.119-12.287l-7.485 12.998c16.233 9.348 34.769 14.289 53.604 14.289 28.714 0 55.71-11.182 76.014-31.484l8.843-8.844 22.645 22.645c5.497 5.496 6.65 11.567 6.65 15.693 0 11.166-8.438 22.716-22.561 22.716h-43.442v15h43.442c23.2 0 37.561-19.577 37.561-37.716 0-9.839-3.922-19.18-11.044-26.301zm-10.611-10.602-78.489-78.489 8.838-8.838c2.361-2.361 5.5-3.661 8.839-3.661s6.479 1.3 8.839 3.661l60.812 60.811c2.361 2.36 3.661 5.499 3.661 8.838s-1.3 6.479-3.661 8.839z"/><path d="m304.5 276.75h15v30h-15z"/><path d="m335.787 304.25h42.426v15h-42.426z" transform="matrix(.707 -.707 .707 .707 -115.878 343.747)"/><path d="m362 349.25h30v15h-30z"/><path d="m269 106.25v15h23.005c1.342 10.251 5.388 19.658 11.406 27.482l-16.282 16.282 10.606 10.607 16.283-16.283c7.824 6.018 17.231 10.063 27.482 11.406v23.005h15v-23.005c10.251-1.342 19.658-5.388 27.482-11.406l16.283 16.283 10.606-10.607-16.282-16.282c6.018-7.824 10.063-17.231 11.406-27.482h23.005v-15h-23.005c-1.342-10.251-5.388-19.658-11.406-27.482l16.282-16.282-10.606-10.607-16.283 16.283c-7.824-6.018-17.231-10.063-27.482-11.406v-23.006h-15v23.005c-10.251 1.342-19.658 5.388-27.482 11.406l-16.283-16.283-10.606 10.607 16.282 16.282c-6.018 7.824-10.063 17.231-11.406 27.482h-23.005zm80-35c23.435 0 42.5 19.065 42.5 42.5s-19.065 42.5-42.5 42.5-42.5-19.065-42.5-42.5 19.065-42.5 42.5-42.5z"/></g></g></svg>