<svg id="Capa_1" enable-background="new 0 0 511 511" height="512" viewBox="0 0 511 511" width="512" xmlns="http://www.w3.org/2000/svg"><g><g id="Filled_8_"><circle cx="263.5" cy="255.5" fill="#f88fa4" r="240"/><path d="m263.5 465.5c-127.509 0-231.774-99.441-239.52-225-.306 4.962-.48 9.96-.48 15 0 132.548 107.452 240 240 240s240-107.452 240-240c0-5.04-.174-10.038-.48-15-7.746 125.559-112.011 225-239.52 225z" fill="#f05475"/><circle cx="263.5" cy="255.5" fill="#c4e5f9" r="210"/><path d="m263.5 435.5c-110.935 0-201.768-86.022-209.461-195-.35 4.956-.539 9.955-.539 15 0 115.98 94.02 210 210 210s210-94.02 210-210c0-5.045-.189-10.044-.539-15-7.693 108.978-98.526 195-209.461 195z" fill="#9eb6f4"/><path d="m7.5 60.5h90v50h-90z" fill="#e4e8ed"/><path d="m52.5 450.5c-16.569 0-30-13.431-30-30v-310h60v310c0 16.569-13.431 30-30 30z" fill="#f8e868"/><path d="m52.5 420.5c-16.569 0-30-13.431-30-30v30c0 16.569 13.431 30 30 30s30-13.431 30-30v-30c0 16.569-13.431 30-30 30z" fill="#efc17a"/><path d="m22.5 180.5h60v160h-60z" fill="#e4e8ed"/><path d="m22.5 310.5h60v30h-60z" fill="#e4e8ed"/><circle cx="323.5" cy="182.5" fill="#9ce3bf" r="50"/><path d="m323.5 202.5c-22.346 0-41.312-14.736-47.698-35-1.493 4.738-2.302 9.776-2.302 15 0 27.57 22.43 50 50 50s50-22.43 50-50c0-5.224-.809-10.262-2.302-15-6.386 20.264-25.352 35-47.698 35z" fill="#87bcc4"/><g fill="#9ce3bf"><circle cx="173.5" cy="182.5" r="25"/><circle cx="384.5" cy="312.5" r="25"/><circle cx="213.5" cy="342.5" r="50"/></g><path d="m213.5 362.5c-22.346 0-41.312-14.736-47.698-35-1.493 4.738-2.302 9.776-2.302 15 0 27.57 22.43 50 50 50s50-22.43 50-50c0-5.224-.809-10.262-2.302-15-6.386 20.264-25.352 35-47.698 35z" fill="#87bcc4"/></g><g fill="#fff"><path d="m320 155.5h15v15h-15z"/><path d="m295 176h15v15h-15z"/><path d="m335 185.5h15v15h-15z"/><path d="m210 315.5h15v15h-15z"/><path d="m185 336h15v15h-15z"/><path d="m225 345.5h15v15h-15z"/><path d="m206.5 102h15v15h-15z"/><path d="m126.5 242h15v15h-15z"/><path d="m306.5 302h15v15h-15z"/><path d="m296.5 412h15v15h-15z"/></g><g id="Outline_8_"><path d="m105 53h-105v65h15v251.785h15v-21.785h45v72.5c0 12.407-10.094 22.5-22.5 22.5s-22.5-10.093-22.5-22.5v-35.715h-15v35.715c0 20.678 16.822 37.5 37.5 37.5s37.5-16.822 37.5-37.5v-302.5h15zm-60 15h15v35h-15zm-30 35v-35h15v35zm60 230h-45v-145h45zm0-160h-45v-55h45zm15-70h-15v-35h15z"/><path d="m45 223h15v15h-15z"/><path d="m45 283h15v15h-15z"/><path d="m45 253h15v15h-15z"/><path d="m206 182.5c0-17.92-14.579-32.5-32.5-32.5s-32.5 14.58-32.5 32.5 14.579 32.5 32.5 32.5 32.5-14.58 32.5-32.5zm-50 0c0-9.649 7.851-17.5 17.5-17.5s17.5 7.851 17.5 17.5-7.851 17.5-17.5 17.5-17.5-7.851-17.5-17.5z"/><path d="m384.5 345c17.921 0 32.5-14.58 32.5-32.5s-14.579-32.5-32.5-32.5-32.5 14.58-32.5 32.5 14.579 32.5 32.5 32.5zm0-50c9.649 0 17.5 7.851 17.5 17.5s-7.851 17.5-17.5 17.5-17.5-7.851-17.5-17.5 7.851-17.5 17.5-17.5z"/><path d="m374.765 244.372 10.607-10.606-16.283-16.283c6.018-7.824 10.063-17.231 11.406-27.482h23.005v-15h-23.005c-1.342-10.251-5.388-19.658-11.406-27.482l16.283-16.283-10.607-10.606-16.282 16.282c-7.824-6.018-17.231-10.063-27.482-11.406v-23.006h-15v23.005c-10.251 1.342-19.658 5.388-27.482 11.406l-16.282-16.282-10.607 10.606 16.283 16.283c-6.018 7.824-10.063 17.231-11.406 27.482h-23.007v15h23.005c1.342 10.251 5.388 19.658 11.406 27.482l-16.283 16.283 10.607 10.606 16.282-16.282c7.824 6.018 17.231 10.063 27.482 11.406v23.005h15v-23.005c10.251-1.342 19.658-5.388 27.482-11.406zm-51.265-19.372c-23.435 0-42.5-19.065-42.5-42.5s19.065-42.5 42.5-42.5 42.5 19.065 42.5 42.5-19.065 42.5-42.5 42.5z"/><path d="m293.5 350v-15h-23.005c-1.342-10.251-5.388-19.658-11.406-27.482l16.283-16.283-10.607-10.606-16.282 16.282c-7.824-6.018-17.231-10.063-27.482-11.406v-23.005h-15v23.005c-10.251 1.342-19.658 5.388-27.482 11.406l-16.282-16.282-10.607 10.606 16.283 16.283c-6.018 7.824-10.063 17.231-11.406 27.482h-23.007v15h23.005c1.342 10.251 5.388 19.658 11.406 27.482l-16.283 16.283 10.607 10.606 16.282-16.282c7.824 6.018 17.231 10.063 27.482 11.406v23.005h15v-23.005c10.251-1.342 19.658-5.388 27.482-11.406l16.282 16.282 10.607-10.606-16.283-16.283c6.018-7.824 10.063-17.231 11.406-27.482zm-80 35c-23.435 0-42.5-19.065-42.5-42.5s19.065-42.5 42.5-42.5 42.5 19.065 42.5 42.5-19.065 42.5-42.5 42.5z"/><path d="m226.5 222h15v15h-15z"/><path d="m416.5 242h15v15h-15z"/><path d="m336.5 372h15v15h-15z"/><path d="m486.264 147.518-13.494 6.552c15.415 31.743 23.23 65.869 23.23 101.43 0 69.652-30.848 135.052-84.634 179.429l9.547 11.57c57.251-47.237 90.087-116.853 90.087-190.999 0-37.85-8.322-74.18-24.736-107.982z"/><path d="m263.5 488c-55.285 0-108.863-19.749-150.866-55.608l-9.74 11.408c44.716 38.176 101.753 59.2 160.606 59.2 52.564 0 102.768-16.264 145.182-47.033l-8.809-12.142c-39.836 28.9-86.993 44.175-136.373 44.175z"/><path d="m263.5 23c83.672 0 161.27 45.291 202.511 118.198l13.057-7.386c-21.218-37.507-52.006-68.998-89.038-91.067-38.14-22.73-81.893-34.745-126.53-34.745-22.915 0-45.613 3.133-67.462 9.312l4.082 14.434c20.521-5.804 41.845-8.746 63.38-8.746z"/><path d="m186.271 36.138-4.982-14.148c-21.326 7.51-41.549 17.944-60.106 31.01l8.635 12.265c17.432-12.274 36.426-22.074 56.453-29.127z"/><path d="m453.697 361.083c17.862-32.109 27.303-68.619 27.303-105.583 0-48.606-15.678-94.574-45.339-132.934-28.73-37.156-69.359-64.435-114.4-76.811l-3.975 14.464c87.561 24.06 148.714 104.363 148.714 195.281 0 34.418-8.787 68.407-25.41 98.291z"/><path d="m263.5 53c13.368 0 26.732 1.31 39.722 3.893l2.926-14.712c-13.952-2.774-28.3-4.181-42.648-4.181-52.584 0-103.345 19.023-142.931 53.564l9.861 11.302c36.854-32.157 84.112-49.866 133.07-49.866z"/><path d="m175.712 454.547c27.715 12.245 57.251 18.453 87.788 18.453 73.693 0 141.796-36.872 182.174-98.633l-12.555-8.208c-37.598 57.508-101.007 91.841-169.619 91.841-56.443 0-108.839-22.662-147.536-63.812l-10.928 10.276c20.133 21.409 43.911 38.259 70.676 50.083z"/></g></g></svg>