<svg id="Capa_1" enable-background="new 0 0 511 511" height="512" viewBox="0 0 511 511" width="512" xmlns="http://www.w3.org/2000/svg"><g><g id="Filled_45_"><path d="m127.5 342.5v-73c0-33.137-26.863-60-60-60-33.137 0-60 26.863-60 60v73c0 11.046 8.954 20 20 20h80c11.046 0 20-8.954 20-20z" fill="#9ce3bf"/><path d="m35.5 332.5h64v140h-64z" fill="#e4e8ed"/><g fill="#87bcc4"><path d="m99.5 332.5v30h8c11.046 0 20-8.954 20-20v-10z"/><path d="m35.5 332.5h-28v10c0 11.046 8.954 20 20 20h8z"/></g><path d="m35.5 442.5h64v30h-64z" fill="#cad8eb"/><path d="m67.5 222.5c-13.807 0-25-11.193-25-25v-25h50v25c0 13.807-11.193 25-25 25z" fill="#ffe4c2"/><path d="m92.5 172.5h-50v-14c0-8.837 7.163-16 16-16h42z" fill="#616161"/><path d="m503.5 342.5v-73c0-33.137-26.863-60-60-60-33.137 0-60 26.863-60 60v73c0 11.046 8.954 20 20 20h80c11.046 0 20-8.954 20-20z" fill="#9ce3bf"/><path d="m411.5 332.5h64v140h-64z" fill="#e4e8ed"/><g fill="#87bcc4"><path d="m411.5 332.5h-28v10c0 11.046 8.954 20 20 20h8z"/><path d="m475.5 332.5v30h8c11.046 0 20-8.954 20-20v-10z"/></g><path d="m411.5 442.5h64v30h-64z" fill="#cad8eb"/><path d="m443.5 222.5c-13.807 0-25-11.193-25-25v-25h50v25c0 13.807-11.193 25-25 25z" fill="#ffe4c2"/><path d="m468.5 172.5h-50v-14c0-8.837 7.163-16 16-16h42z" fill="#616161"/></g><g fill="#fff"><path d="m60 244.5h15v15h-15z"/><path d="m436 267.5h15v15h-15z"/></g><g id="Outline_45_"><path d="m92 465h-17v-102.5h-15v102.5h-17v-27.5h-15v42.5h79v-68.5h-15z"/><path d="m60 274.5h15v40h-15z"/><path d="m120 342.5c0 6.893-5.607 12.5-12.5 12.5h-.5v-92.5h-15v134h15v-26.5h.5c15.164 0 27.5-12.337 27.5-27.5v-50.571h-15z"/><path d="m97.813 209.2c1.407-3.633 2.187-7.576 2.187-11.7v-24.017l10.262-38.483h-51.762c-12.958 0-23.5 10.542-23.5 23.5v6.5 15 17.5c0 4.124.78 8.067 2.187 11.7-22.55 11.337-37.187 34.578-37.187 60.3v73c0 15.163 12.336 27.5 27.5 27.5h.5v52.5h15v-160h-15v92.5h-.5c-6.893 0-12.5-5.607-12.5-12.5v-73c0-20.72 12.211-39.372 30.825-47.809 5.756 5.162 13.354 8.309 21.675 8.309s15.919-3.147 21.675-8.309c18.614 8.437 30.825 27.089 30.825 47.809v7.429h15v-7.429c0-25.722-14.637-48.963-37.187-60.3zm-12.813-11.7c0 9.649-7.851 17.5-17.5 17.5s-17.5-7.851-17.5-17.5v-17.5h35zm1.738-32.5h-36.738v-6.5c0-4.687 3.813-8.5 8.5-8.5h32.238z"/><path d="m468 465h-17v-102.5h-15v102.5h-17v-27.5h-15v42.5h79v-68.5h-15z"/><path d="m496 342.5c0 6.893-5.607 12.5-12.5 12.5h-.5v-92.5h-15v134h15v-26.5h.5c15.164 0 27.5-12.337 27.5-27.5v-50.571h-15z"/><path d="m473.813 209.2c1.407-3.633 2.187-7.576 2.187-11.7v-24.017l10.262-38.483h-51.762c-12.958 0-23.5 10.542-23.5 23.5v6.5 15 17.5c0 4.124.78 8.067 2.187 11.7-22.55 11.337-37.187 34.578-37.187 60.3v73c0 15.163 12.336 27.5 27.5 27.5h.5v52.5h15v-160h-15v92.5h-.5c-6.893 0-12.5-5.607-12.5-12.5v-73c0-20.72 12.211-39.372 30.825-47.809 3.97 3.561 8.818 6.155 14.175 7.426v23.383h15v-23.383c5.357-1.271 10.205-3.865 14.175-7.426 18.614 8.437 30.825 27.089 30.825 47.809v7.429h15v-7.429c0-25.722-14.637-48.963-37.187-60.3zm-12.813-11.7c0 9.649-7.851 17.5-17.5 17.5s-17.5-7.851-17.5-17.5v-17.5h35zm1.738-32.5h-36.738v-6.5c0-4.687 3.813-8.5 8.5-8.5h32.238z"/><path d="m383 188.5v-60h-15v22.5h-225v-22.5h-15v60h15v-22.5h225v22.5z"/><path d="m168 55.896v45.104h-15.5v15h46v-15h-15.5v-70h-14.063l-24.251 29.763 11.628 9.474z"/><path d="m239 57.678 22.5 26.38 22.5-26.38v58.822h15v-85.5h-11.96l-25.54 29.942-25.54-29.942h-11.96v85.5h15z"/><path d="m332 99.5h15v-17.5h17.5v-15h-17.5v-17.5h-15v17.5h-17.5v15h17.5z"/></g></g></svg>