<svg id="Capa_1" enable-background="new 0 0 511 511" height="512" viewBox="0 0 511 511" width="512" xmlns="http://www.w3.org/2000/svg"><g><g id="Filled_46_"><path d="m361.5 68.5h58v110h-58z" fill="#e4e8ed"/><path d="m361.5 78.845v99.655h58v-49.941z" fill="#cad8eb"/><path d="m255.5 27.5-180 154.286v321.714h360v-321.714z" fill="#e4e8ed"/><path d="m75.5 473.5h360v30h-360z" fill="#cad8eb"/><path d="m130.5 353.5h250v150h-250z" fill="#c4e5f9"/><path d="m130.5 473.5h250v30h-250z" fill="#9eb6f4"/><path d="m369.5 354.5v-43c0-33.137-26.863-60-60-60-33.137 0-60 26.863-60 60v43z" fill="#f88fa4"/><path d="m309.5 264.5c-13.807 0-25-11.193-25-25v-25h50v25c0 13.807-11.193 25-25 25z" fill="#ffe4c2"/><path d="m334.5 214.5h-50v-14c0-8.837 7.163-16 16-16h42z" fill="#616161"/><path d="m237.5 323.5h-80c-11.046 0-20-8.954-20-20v-50c0-11.046 8.954-20 20-20h80c11.046 0 20 8.954 20 20v50c0 11.046-8.954 20-20 20z" fill="#f8e868"/></g><g fill="#fff"><path d="m302 309.5h15v15h-15z"/><path d="m342 379.5h15v15h-15z"/><path d="m342 409.5h15v15h-15z"/><path d="m160.5 466h15v15h-15z"/><path d="m220.5 256h15v15h-15z"/><path d="m220.5 286h15v15h-15z"/></g><g id="Outline_46_"><path d="m427 164.622v-103.622h-73v41.051l-98.5-84.429-116.731 100.056 9.762 11.389 106.969-91.689 240.119 205.816 9.762-11.389zm-15-12.857-43-36.857v-38.908h43z"/><path d="m92.677 140.277h45.001v15h-45.001z" transform="matrix(.759 -.651 .651 .759 -68.444 110.533)"/><path d="m-1.581 197.341h100.368v15h-100.368z" transform="matrix(.759 -.651 .651 .759 -121.608 80.944)"/><path d="m413.5 30h15v15h-15z"/><path d="m383.5 30h15v15h-15z"/><path d="m352.5 30h15v15h-15z"/><path d="m397.5 0h15v15h-15z"/><path d="m367.5 0h15v15h-15z"/><path d="m428 215.5h15v81h-15z"/><path d="m428 496h-40v-135h17.5v-15h-28.5v-34.5c0-25.722-14.637-48.963-37.187-60.3 1.407-3.633 2.187-7.576 2.187-11.7v-24.017l10.262-38.483h-51.762c-12.958 0-23.5 10.542-23.5 23.5v6.5 15 17.5c0 4.124.78 8.067 2.188 11.701-5.132 2.582-9.892 5.81-14.188 9.578v-7.279c0-15.163-12.336-27.5-27.5-27.5h-80c-15.164 0-27.5 12.337-27.5 27.5v50c0 15.163 12.336 27.5 27.5 27.5h32.5v15h-84.5v15h17.5v72.5h15v-72.5h235v105h-182.5v15h182.5v15h-235v-47.5h-15v47.5h-40v-280.5h-15v295.5h375v-139.5h-15zm-186-150h-37v-15h32.5c1.533 0 3.035-.132 4.5-.374zm8-42.5c0 6.893-5.607 12.5-12.5 12.5h-80c-6.893 0-12.5-5.607-12.5-12.5v-50c0-6.893 5.607-12.5 12.5-12.5h80c6.893 0 12.5 5.607 12.5 12.5zm42-103c0-4.687 3.813-8.5 8.5-8.5h32.238l-4 15h-36.738zm0 21.5h35v17.5c0 9.649-7.851 17.5-17.5 17.5s-17.5-7.851-17.5-17.5zm70 124h-105v-23.131c4.941-4.974 8-11.821 8-19.369v-19.835c5.499-8.774 13.446-15.719 22.824-19.976 3.97 3.562 8.819 6.156 14.176 7.427v23.384h15v-23.383c5.357-1.271 10.205-3.865 14.175-7.426 18.614 8.437 30.825 27.089 30.825 47.809z"/><path d="m428 311.5h15v45h-15z"/></g></g></svg>