<svg id="Capa_1" enable-background="new 0 0 511.706 511.706" height="512" viewBox="0 0 511.706 511.706" width="512" xmlns="http://www.w3.org/2000/svg"><g><g id="Filled_19_"><path d="m484.103 503.5h-160c-11.046 0-20-8.954-20-20v-320c0-11.046 8.954-20 20-20h160c11.046 0 20 8.954 20 20v320c0 11.046-8.955 20-20 20z" fill="#9ce3bf"/><path d="m484.103 473.5h-160c-11.046 0-20-8.954-20-20v30c0 11.046 8.954 20 20 20h160c11.046 0 20-8.954 20-20v-30c0 11.046-8.955 20-20 20z" fill="#87bcc4"/><path d="m359.103 83.5h90v60h-90z" fill="#e4e8ed"/><path d="m359.103 113.5h90v30h-90z" fill="#cad8eb"/><path d="m389.103 7.5h30v76h-30z" fill="#e4e8ed"/><path d="m445.818 372.341c-14.107-19.75-40.737-25.862-62.044-14.24l-94.135 51.347c.303-1.523.465-3.096.465-4.708 0-13.255-10.745-24-24-24h-72.701s-11.383-24.827-20.573-31.246c-48.33-44.218-139.7 3.669-139.7 3.669h-33.027v91.109h52.515l184.85 59.228 208.635-130.76z" fill="#ffe4c2"/><path d="m237.468 473.5-184.85-59.228h-52.515v30h52.515l184.85 59.228 208.635-130.76-.285-.399c-5.416-7.582-12.681-13.146-20.779-16.476z" fill="#f2d1a5"/><path d="m464.103 239.5h-40v-40h-40v40h-40v40h40v40h40v-40h40z" fill="#fff"/><path d="m233.103 209.5-33.765 51.261c-16.795 25.497 2.314 58.739 33.765 58.739 31.452 0 50.56-33.242 33.765-58.739z" fill="#c4e5f9"/><path d="m233.103 289.5c-17.282 0-30.819-10.044-36.739-23.318-11.086 24.542 7.475 53.318 36.739 53.318s47.825-28.776 36.739-53.318c-5.92 13.274-19.457 23.318-36.739 23.318z" fill="#9eb6f4"/></g><g fill="#fff"><path d="m344.103 466h15v15h-15z"/><path d="m97.103 359.25h15v15h-15z"/><path d="m231.103 283h15v15h-15z"/></g><g id="Outline_19_"><path d="m496.603 466h-122.5v15h122.5v2.5c0 6.893-5.607 12.5-12.5 12.5h-160c-4.997 0-9.504-2.97-11.483-7.565l-13.777 5.934c4.352 10.103 14.267 16.631 25.26 16.631h160c15.163 0 27.5-12.336 27.5-27.5v-235.276h-15z"/><path d="m296.603 335.919h15v36.023h-15z"/><path d="m484.103 136h-27.5v-60h-30v-61h27.5v-15h-183.75l-32.25 43 12 9 27.75-37h103.75v61h-30v60h-27.5c-15.163 0-27.5 12.336-27.5 27.5v157.419h15v-157.419c0-6.893 5.607-12.5 12.5-12.5h160c6.893 0 12.5 5.607 12.5 12.5v69.724h15v-69.724c0-15.164-12.337-27.5-27.5-27.5zm-87.5-121h15v61h-15zm45 121h-75v-45h75z"/><path d="m.103 436.771v15h51.344l44.847 14.37 4.576-14.284-47.08-15.086z"/><path d="m351.399 423.243-114.961 72.051-121.282-38.86-4.577 14.284 127.919 40.988 120.867-75.753z"/><path d="m36.608 359.808c.868-.454 87.304-44.904 131.158-4.78l.363.333.405.283c1.079.753 2.303 2.01 3.604 3.606h-45.035v15h54.63c1.853 3.397 3.539 6.756 4.853 9.618l2.007 4.373h77.511c9.098 0 16.5 7.402 16.5 16.5s-7.402 16.5-16.5 16.5h-102v15h102c13.965 0 25.829-9.138 29.947-21.745l91.316-49.809c5.937-3.238 12.632-4.95 19.362-4.95 10.521 0 20.564 4.111 28.04 11.257l-70.659 44.284 7.966 12.71 84.765-53.125-4.918-6.881c-10.397-14.556-27.292-23.246-45.193-23.246-9.233 0-18.412 2.345-26.546 6.781l-83.526 45.56c-3.432-13.677-15.826-23.837-30.553-23.837h-67.975c-4.008-8.097-12.366-23.518-20.568-29.58-48.515-43.858-132.836-4.663-146.226 2.003h-31.233v15l34.873-.002z"/><path d="m376.603 192v40h-40v55h40v40h55v-40h40v-55h-40v-40zm80 55v25h-40v40h-25v-40h-40v-25h40v-40h25v40z"/><path d="m233.103 327c17.764 0 33.894-9.457 42.095-24.68 7.896-14.655 7.123-31.733-2.066-45.685l-40.028-60.77-40.028 60.77c-9.189 13.951-9.962 31.029-2.066 45.685 8.199 15.223 24.329 24.68 42.093 24.68zm-27.501-62.114 27.501-41.752 27.501 41.752c6.104 9.268 6.624 20.602 1.389 30.319-5.667 10.517-16.466 16.795-28.89 16.795s-23.224-6.278-28.89-16.795c-5.235-9.717-4.716-21.051 1.389-30.319z"/><path d="m225.603 120.5h15v40h-15z"/><path d="m225.603 90.5h15v15h-15z"/><path d="m265.603 150.5h15v40h-15z"/><path d="m265.603 120.5h15v15h-15z"/><path d="m185.603 150.5h15v40h-15z"/><path d="m185.603 120.5h15v15h-15z"/></g></g></svg>