<svg id="Capa_1" enable-background="new 0 0 512 512" height="512" viewBox="0 0 512 512" width="512" xmlns="http://www.w3.org/2000/svg"><g><g id="Filled_44_"><path d="m394 7.75c-60.751 0-110 49.249-110 110s49.249 110 110 110 110-49.249 110-110-49.249-110-110-110zm0 30c16.647 0 32.118 5.116 44.936 13.851l-111.085 111.085c-8.735-12.818-13.851-28.289-13.851-44.936 0-44.112 35.888-80 80-80zm0 160c-16.647 0-32.118-5.116-44.936-13.851l111.085-111.085c8.735 12.818 13.851 28.289 13.851 44.936 0 44.112-35.888 80-80 80z" fill="#f88fa4"/><path d="m441 431.75 45-80h-190l-36 21h-249l16 58 7 25h394z" fill="#f88fa4"/><circle cx="323" cy="400.75" fill="#f8e868" r="20"/><path d="m382 308.75-28-60h-252l-27 60z" fill="#e4e8ed"/><path d="m27 430.75 7 25h394l13-24 15.487-27.533c-11.631-4.72-26.328-8.467-46.891-8.467-33.269 0-51.193 9.803-65.596 17.679-11.366 6.215-18.875 10.321-36.809 10.321-17.933 0-25.44-4.105-36.805-10.321-14.402-7.876-32.327-17.679-65.594-17.679s-51.19 9.803-65.593 17.679c-11.364 6.216-18.872 10.321-36.804 10.321s-25.439-4.105-36.804-10.321c-11.623-6.356-25.545-13.964-47.969-16.665z" fill="#f05475"/><path d="m0 511.75h512v-58c-51.202 0-51.202-28-102.404-28s-51.202 28-102.404 28c-51.2 0-51.2-28-102.399-28-51.198 0-51.198 28-102.396 28-51.199 0-51.199-28-102.398-28v86z" fill="#c4e5f9"/><path d="m212 248.75-25-80h-46l-13 80z" fill="#f8e868"/><path d="m202.625 218.75h-69.75l-4.875 30h84z" fill="#efc17a"/><path d="m55.861 63.11c5.311 0 10.282 1.439 14.557 3.938 6.196-9.09 16.639-15.062 28.481-15.062 1.552 0 3.077.113 4.575.311 7.919-12.922 22.181-21.547 38.463-21.547 24.888 0 45.063 20.147 45.063 45s-20.176 45-45.063 45c-8.445 0-78.095 0-86.076 0-15.94 0-28.861-12.903-28.861-28.82s12.921-28.82 28.861-28.82z" fill="#e4e8ed"/><path d="m141.937 90.75h-86.076c-10.437 0-19.578-5.533-24.647-13.82-2.673 4.37-4.214 9.505-4.214 15 0 15.917 12.921 28.82 28.861 28.82h86.076c24.888 0 45.063-20.147 45.063-45 0-5.261-.913-10.307-2.574-15-6.188 17.476-22.87 30-42.489 30z" fill="#cad8eb"/><path d="m368 278.75h-279.5l-13.5 30h307z" fill="#cad8eb"/><path d="m260 372.75 36-21h132l-20-43h-348l-30 64z" fill="#e4e8ed"/><path d="m251.89 342.75h-207.828l-14.062 30h230l36-21h132l-13.954-30h-126.156z" fill="#cad8eb"/></g><g fill="#fff"><path d="m381 374.25h15v15h-15z"/><path d="m325.5 286.25h-15v-15h15zm-45 0h-15v-15h15zm-45 0h-15v-15h15zm-45 0h-15v-15h15zm-45 0h-15v-15h15z"/><path d="m246 346.25h-15v-15h15zm-45 0h-15v-15h15zm-45 0h-15v-15h15zm-45 0h-15v-15h15z"/><path d="m149 97.25h-15v-15h15zm-30 0h-15v-15h15z"/></g><g id="Outline_44_"><path d="m394 235.25c28.463 0 55.924-10.309 77.323-29.025 21.195-18.538 35.044-44.023 38.996-71.762l-14.85-2.115c-7.14 50.112-50.762 87.902-101.469 87.902-56.519 0-102.5-45.981-102.5-102.5 0-.445.003-.891.008-1.334l-14.998-.186c-.007.506-.01 1.012-.01 1.52 0 64.79 52.71 117.5 117.5 117.5z"/><path d="m394 15.25c56.519 0 102.5 45.981 102.5 102.5l-.003.653 15 .123.003-.776c0-64.79-52.71-117.5-117.5-117.5-28.33 0-55.693 10.224-77.05 28.786-21.142 18.377-35.05 43.68-39.16 71.245l14.836 2.213c7.417-49.737 50.998-87.244 101.374-87.244z"/><path d="m394 30.25c-48.248 0-87.5 39.252-87.5 87.5 0 17.613 5.24 34.612 15.152 49.159l5.1 7.482 123.89-123.89-7.482-5.1c-14.548-9.911-31.547-15.151-49.16-15.151zm-64.635 120.314c-5.166-10.124-7.865-21.312-7.865-32.814 0-39.977 32.523-72.5 72.5-72.5 11.503 0 22.69 2.699 32.814 7.865z"/><path d="m394 205.25c48.248 0 87.5-39.252 87.5-87.5 0-17.613-5.24-34.612-15.152-49.159l-5.1-7.482-123.89 123.89 7.482 5.1c14.548 9.911 31.547 15.151 49.16 15.151zm64.635-120.314c5.166 10.124 7.865 21.312 7.865 32.814 0 39.977-32.523 72.5-72.5 72.5-11.503 0-22.69-2.699-32.814-7.865z"/><path d="m51 395.25h15v15h-15z"/><path d="m81 395.25h15v15h-15z"/><path d="m409.597 468.25c-27.518 0-41.388 7.585-54.801 14.92-12.301 6.727-23.919 13.08-47.604 13.08-23.683 0-35.301-6.354-47.601-13.08-13.412-7.335-27.281-14.92-54.798-14.92-27.516 0-41.385 7.585-54.797 14.92-12.3 6.727-23.917 13.08-47.6 13.08-23.682 0-35.3-6.354-47.6-13.08-13.41-7.335-27.279-14.92-54.796-14.92v15c23.683 0 35.301 6.354 47.601 13.08 13.412 7.335 27.281 14.92 54.797 14.92s41.385-7.585 54.797-14.92c12.3-6.727 23.917-13.08 47.6-13.08s35.301 6.354 47.601 13.08c13.412 7.335 27.281 14.92 54.798 14.92 27.518 0 41.388-7.585 54.801-14.92 12.301-6.727 23.919-13.08 47.604-13.08 23.684 0 35.302 6.354 47.603 13.08 13.413 7.335 27.283 14.92 54.801 14.92v-15c-23.685 0-35.303-6.354-47.604-13.08-13.416-7.335-27.285-14.92-54.802-14.92z"/><path d="m102.397 461.25c27.516 0 41.385-7.585 54.797-14.92 12.3-6.727 23.917-13.08 47.6-13.08 9.805 0 18.279 1.09 25.908 3.331l4.229-14.391c-9.022-2.651-18.88-3.94-30.137-3.94-27.516 0-41.385 7.585-54.797 14.92-12.3 6.727-23.917 13.08-47.6 13.08-23.682 0-35.3-6.354-47.6-13.08-6.722-3.676-13.56-7.415-22.173-10.23l-11.775-42.69h107.616v-15h-86.666l22.969-49h135.656v-15h-113.824l20.25-45h169.355v-15h-58.691l-25-80h-57.894l-13 80h-24.47l-27 60h-14.918l-30 64h-24.081l14.892 53.983c-4.801-.628-10.103-.983-16.043-.983v15c23.683 0 35.301 6.354 47.601 13.08 13.412 7.335 27.281 14.92 54.796 14.92zm44.983-285h34.106l10.938 35h-29.424v15h34.111l4.688 15h-64.981z"/><path d="m464.396 433.17c-3.881-2.123-7.803-4.265-12.08-6.239l46.508-82.681h-66.041l-20-43h-26.006l-28.001-60h-67.571v15h58.019l21 45h-154.8v15h187.793l13.023 28h-122.267l-36 21h-114.508v15h118.562l36-21h175.148l-8.438 15h-53.737v15h45.301l-18.25 32.446c-7.727-2.101-16.88-3.446-28.454-3.446-27.518 0-41.388 7.585-54.801 14.92-12.301 6.727-23.919 13.08-47.604 13.08-23.683 0-35.3-6.354-47.601-13.08-3.055-1.671-6.215-3.398-9.571-5.039l-6.586 13.477c3.047 1.489 5.92 3.061 8.96 4.724 13.413 7.334 27.282 14.919 54.798 14.919 27.518 0 41.388-7.585 54.801-14.92 12.301-6.727 23.919-13.08 47.604-13.08 23.684 0 35.302 6.354 47.603 13.08 13.413 7.335 27.283 14.92 54.801 14.92v-15c-23.686-.001-35.304-6.355-47.605-13.081z"/><path d="m350.5 400.75c0-15.163-12.337-27.5-27.5-27.5s-27.5 12.337-27.5 27.5 12.337 27.5 27.5 27.5 27.5-12.337 27.5-27.5zm-40 0c0-6.893 5.607-12.5 12.5-12.5s12.5 5.607 12.5 12.5-5.607 12.5-12.5 12.5-12.5-5.607-12.5-12.5z"/><path d="m55.86 128.25h62.697v-15h-62.697c-11.778 0-21.36-9.564-21.36-21.32s9.582-21.32 21.36-21.32c3.787 0 7.513 1.008 10.772 2.913l6.042 3.532 3.94-5.783c5.029-7.38 13.359-11.785 22.283-11.785 1.15 0 2.359.083 3.591.246l4.833.639 2.546-4.155c6.894-11.25 18.882-17.966 32.068-17.966 20.713 0 37.563 16.822 37.563 37.5s-16.851 37.5-37.563 37.5h-8.379v15h8.379c28.983 0 52.563-23.552 52.563-52.5s-23.58-52.5-52.563-52.5c-16.874 0-32.345 7.861-42.24 21.244-.267-.005-.533-.008-.798-.008-11.717 0-22.775 4.879-30.646 13.299-3.956-1.433-8.152-2.176-12.393-2.176-20.049 0-36.36 16.293-36.36 36.32s16.314 36.32 36.362 36.32z"/></g></g></svg>