<svg id="Capa_1" enable-background="new 0 0 511.5 511.5" height="512" viewBox="0 0 511.5 511.5" width="512" xmlns="http://www.w3.org/2000/svg"><g><g id="Filled_47_"><path d="m277.12 62.864c-13.104 0-23.727 10.623-23.727 23.727v-32.691c0-13.104-10.623-23.727-23.727-23.727s-23.727 10.623-23.727 23.727v-22.673c0-13.104-10.623-23.727-23.727-23.727-13.104 0-23.727 10.623-23.727 23.727v34.273c0-13.104-10.623-23.727-23.727-23.727-13.104 0-23.727 10.623-23.727 23.727v162.543c-3.1-.431-6.265-.671-9.491-.671l-16.6-24.506c-16.28-24.032-46.811-33.923-74.09-24.004l64.327 120.218 55.673 46.418v24h140v-24l30-47.473v-211.434c-.002-13.104-10.625-23.727-23.73-23.727z" fill="#ffe4c2"/><path d="m393.848 70.5c-60.654 0-110 49.346-110 110 0 12.085 1.965 23.719 5.582 34.606l-37.582 59.394 72.256-9c18.995 15.614 43.293 25 69.744 25 60.654 0 110-49.346 110-110s-49.346-110-110-110z" fill="#f88fa4"/><path d="m393.848 260.5c-26.451 0-50.749-9.386-69.744-25l-51.649 6.433-20.607 32.567 72.256-9c18.995 15.614 43.293 25 69.744 25 60.654 0 110-49.346 110-110 0-5.088-.355-10.094-1.027-15-7.339 53.583-53.407 95-108.973 95z" fill="#f05475"/><path d="m123.651 339.5 7.197 6v24h140v-24l3.791-6z" fill="#f2d1a5"/><path d="m110.848 449.5v-60c0-11.046 8.954-20 20-20h140c11.046 0 20 8.954 20 20v60c0 11.046-8.954 20-20 20h-140c-11.046 0-20-8.954-20-20z" fill="#c4e5f9"/><path d="m270.848 439.5h-140c-11.046 0-20-8.954-20-20v30c0 11.046 8.954 20 20 20h140c11.046 0 20-8.954 20-20v-30c0 11.046-8.955 20-20 20z" fill="#9eb6f4"/><path d="m130.848 469.5h140v42h-140z" fill="#c4e5f9"/><circle cx="393.848" cy="180.5" fill="#9ce3bf" r="50"/><path d="m393.848 200.5c-22.346 0-41.312-14.736-47.698-35-1.493 4.738-2.302 9.776-2.302 15 0 27.57 22.43 50 50 50s50-22.43 50-50c0-5.224-.809-10.262-2.302-15-6.387 20.264-25.352 35-47.698 35z" fill="#87bcc4"/></g><g fill="#fff"><path d="m150.984 176.5h15v15h-15z"/><path d="m198.438 176.5h15v15h-15z"/><path d="m245.893 176.5h15v15h-15z"/><path d="m390.348 153.5h15v15h-15z"/><path d="m365.348 174h15v15h-15z"/><path d="m405.348 183.5h15v15h-15z"/><path d="m187.848 332h15v15h-15z"/><path d="m268.348 436.5h-15v-15h15zm0-30h-15v-15h15z"/></g><g id="Outline_47_"><path d="m21.869 183.564c3.49-.679 7.037-1.021 10.611-1.021 18.555 0 35.844 9.17 46.249 24.529l18.832 27.8h3.978c33.37 0 60.518 27.385 60.518 61.045h15c0-20.33-7.807-39.417-21.981-53.743-10.164-10.274-22.775-17.236-36.546-20.383v-74.443h-15v69.59l-12.382-18.278c-13.199-19.484-35.13-31.117-58.667-31.117-8.261 0-16.401 1.437-24.195 4.271l-8.132 2.957 41.424 77.417 13.226-7.076z"/><path d="m445.112 118.628-16.282 16.282c-7.824-6.018-17.231-10.063-27.482-11.405v-23.005h-15v23.005c-10.251 1.342-19.658 5.387-27.482 11.405l-16.282-16.282-10.607 10.607 16.282 16.282c-6.018 7.824-10.063 17.231-11.405 27.482h-23.005v15h23.005c1.342 10.251 5.387 19.658 11.405 27.482l-16.282 16.282 10.607 10.607 16.282-16.282c7.824 6.018 17.231 10.063 27.482 11.405v23.007h15v-23.005c10.251-1.342 19.658-5.387 27.482-11.405l16.282 16.282 10.607-10.607-16.282-16.282c6.018-7.824 10.063-17.231 11.405-27.482h23.005v-15h-23.005c-1.342-10.251-5.387-19.658-11.405-27.482l16.282-16.282zm-51.264 104.372c-23.435 0-42.5-19.065-42.5-42.5s19.065-42.5 42.5-42.5 42.5 19.065 42.5 42.5-19.066 42.5-42.5 42.5z"/><path d="m326.375 257.659-59.701 7.437 30.994-48.982-1.121-3.373c-3.45-10.384-5.199-21.23-5.199-32.24 0-56.519 45.981-102.5 102.499-102.5 10.112.001 20.102 1.476 29.692 4.384l4.352-14.355c-11.001-3.335-22.455-5.027-34.043-5.028-33.662 0-64.058 14.232-85.5 36.991v-13.4c0-17.219-14.009-31.228-31.228-31.228-5.938 0-11.495 1.666-16.227 4.556v-6.021c0-17.219-14.009-31.228-31.228-31.228-6.038 0-11.681 1.723-16.464 4.702-1.903-15.407-15.075-27.374-30.99-27.374-17.219 0-31.228 14.009-31.228 31.228v7.601c-4.732-2.89-10.288-4.556-16.227-4.556-17.219 0-31.228 14.009-31.228 31.228v66.849h15v-66.85c0-8.948 7.28-16.228 16.228-16.228s16.227 7.279 16.227 16.228v95h15v-95-34.272c0-8.948 7.28-16.228 16.228-16.228s16.227 7.279 16.227 16.228v22.672 106.6h15v-106.6c0-8.948 7.28-16.228 16.228-16.228s16.227 7.279 16.227 16.228v32.69 73.91h15v-73.909h.001c0-8.948 7.279-16.228 16.227-16.228s16.228 7.279 16.228 16.228v33.086c-10.785 17.754-17 38.576-17 60.823 0 11.413 1.641 22.677 4.883 33.538l-44.209 69.866 56.326-7.016v18.968l-30 47.473v18.671h-28.929v15h36.429c6.893 0 12.5 5.607 12.5 12.5v60c0 6.893-5.607 12.5-12.5 12.5h-90.714v15h83.214v34.5h15v-35.548c11.528-3.274 20-13.889 20-26.452v-60c0-12.563-8.472-23.178-20-26.452v-15.377l30-47.473v-25.178l13.545-1.687c10.133 7.875 21.377 13.989 33.468 18.192l4.926-14.168c-11.437-3.976-22.008-9.915-31.42-17.651z"/><path d="m442.86 73.717-6.275 13.623c36.305 16.726 59.763 53.293 59.763 93.16 0 56.519-45.981 102.5-102.5 102.5-6.761 0-13.521-.665-20.096-1.978l-2.938 14.709c7.539 1.506 15.289 2.269 23.033 2.269 64.79 0 117.5-52.71 117.5-117.5.001-45.702-26.882-87.617-68.487-106.783z"/><path d="m118.348 449.5v-60c0-6.893 5.607-12.5 12.5-12.5h88.571v-15h-81.071v-15h34.5v-15h-46.48l-45.269-37.743-19.22-35.919-13.226 7.076 20.597 38.493 54.097 45.104v14.036c-11.528 3.274-20 13.889-20 26.452v60c0 12.563 8.472 23.178 20 26.452v35.549h15v-34.5h26.786v-15h-34.286c-6.892 0-12.499-5.607-12.499-12.5z"/></g></g></svg>