<svg id="Capa_1" enable-background="new 0 0 511 511" height="512" viewBox="0 0 511 511" width="512" xmlns="http://www.w3.org/2000/svg"><g><g id="Filled_36_"><path d="m483.5 503.5h-456c-11.046 0-20-8.954-20-20v-420c0-11.046 8.954-20 20-20h456c11.046 0 20 8.954 20 20v420c0 11.046-8.954 20-20 20z" fill="#9ce3bf"/><path d="m483.5 473.5h-456c-11.046 0-20-8.954-20-20v30c0 11.046 8.954 20 20 20h456c11.046 0 20-8.954 20-20v-30c0 11.046-8.954 20-20 20z" fill="#87bcc4"/><g fill="#e4e8ed"><path d="m175.5 7.5h40v72h-40z"/><path d="m55.5 7.5h40v72h-40z"/><path d="m415.5 7.5h40v72h-40z"/><path d="m295.5 7.5h40v72h-40z"/></g><path d="m175.5 49.5h40v30h-40z" fill="#cad8eb"/><path d="m55.5 49.5h40v30h-40z" fill="#cad8eb"/><path d="m415.5 49.5h40v30h-40z" fill="#cad8eb"/><path d="m295.5 49.5h40v30h-40z" fill="#cad8eb"/><path d="m45.5 122.5h420v240h-420z" fill="#e4e8ed"/><path d="m465.5 122.5h-300v60h-120v120h120v-60h300z" fill="#f8e868"/></g><g fill="#fff"><path d="m72.5 466h15v15h-15z"/><path d="m423.5 466h15v15h-15z"/></g><g id="Outline_36_"><path d="m108 405.5h15v74h-15z"/><path d="m183 479.5v-74h-15v29.5h-15v-29.5h-15v44.5h30v29.5z"/><path d="m263 442.5c0-20.678-16.822-37.5-37.5-37.5h-17.5v75h17.5c20.678 0 37.5-16.822 37.5-37.5zm-37.5 22.5h-2.5v-45h2.5c12.407 0 22.5 10.094 22.5 22.5s-10.093 22.5-22.5 22.5z"/><path d="m333 479.5v-47c0-15.163-12.336-27.5-27.5-27.5s-27.5 12.337-27.5 27.5v47h15v-13.5h25v13.5zm-40-28.5v-18.5c0-6.893 5.607-12.5 12.5-12.5s12.5 5.607 12.5 12.5v18.5z"/><path d="m383 479.5v-29.548c11.528-3.274 20-13.889 20-26.452v-18h-15v18c0 6.893-5.607 12.5-12.5 12.5s-12.5-5.607-12.5-12.5v-18h-15v18c0 12.563 8.472 23.178 20 26.452v29.548z"/><path d="m473 115h-435v255h435zm-60 15h34.393l-34.393 34.393zm0 60h34.393l-34.393 34.393zm-60-60h34.393l-34.393 34.393zm0 60h34.393l-34.393 34.393zm-60-60h34.393l-34.393 34.393zm0 60h34.393l-34.393 34.393zm-60-60h34.393l-34.393 34.393zm0 60h34.393l-34.393 34.393zm-60-60h34.393l-34.393 34.393zm0 60h34.393l-34.393 34.393zm-60 0h34.393l-34.393 34.393zm0 60h34.393l-34.393 34.393zm-60-60h34.393l-34.393 34.393zm0 60h34.393l-34.393 34.393zm45 105h-45v-45h45zm0-60h-34.393l34.393-34.393zm0-60h-34.393l34.393-34.393zm0-60h-45v-45h45zm60 180h-45v-45h45zm0-60h-34.393l34.393-34.393zm0-60h-34.393l34.393-34.393zm0-60h-45v-45h45zm60 180h-45v-45h45zm0-60h-45v-45h45zm0-60h-34.393l34.393-34.393zm0-60h-34.393l34.393-34.393zm60 180h-45v-45h45zm0-60h-45v-45h45zm0-60h-34.393l34.393-34.393zm0-60h-34.393l34.393-34.393zm60 180h-45v-45h45zm0-60h-45v-45h45zm0-60h-34.393l34.393-34.393zm0-60h-34.393l34.393-34.393zm60 180h-45v-45h45zm0-60h-45v-45h45zm0-60h-34.393l34.393-34.393zm0-60h-34.393l34.393-34.393zm60 180h-45v-45h45zm0-60h-45v-45h45zm0-60h-34.393l34.393-34.393zm0-60h-34.393l34.393-34.393z"/><path d="m15 483.5v-2.5h42.5v-15h-42.5v-15h28.5v-15h-28.5v-56.929h-15v104.429c0 15.164 12.336 27.5 27.5 27.5h194.143v-15h-194.143c-6.893 0-12.5-5.607-12.5-12.5z"/><path d="m483.5 36h-20.5v-36h-55v36h-65v-36h-55v36h-65v-36h-55v36h-65v-36h-55v36h-20.5c-15.164 0-27.5 12.336-27.5 27.5v300.571h15v-300.571c0-6.893 5.607-12.5 12.5-12.5h20.5v36h55v-36h65v36h55v-36h65v36h55v-36h65v36h55v-36h20.5c6.893 0 12.5 5.607 12.5 12.5v113.286h15v-113.286c0-15.164-12.336-27.5-27.5-27.5zm-395.5 36h-25v-57h25zm120 0h-25v-57h25zm120 0h-25v-57h25zm120 0h-25v-57h25z"/><path d="m496 436h-28.5v15h28.5v15h-42.5v15h42.5v2.5c0 6.893-5.607 12.5-12.5 12.5h-246.857v15h246.857c15.164 0 27.5-12.336 27.5-27.5v-291.714h-15z"/></g></g></svg>