<svg id="Capa_1" enable-background="new 0 0 511 511" height="512" viewBox="0 0 511 511" width="512" xmlns="http://www.w3.org/2000/svg"><g><g id="Filled_32_"><path d="m380.5 473.5v30h-250v-30h39l30-68h112l30 68z" fill="#e4e8ed"/><path d="m169.5 473.5h172l-13.235-30h-145.53z" fill="#cad8eb"/><path d="m503.5 85.5c0-16.569-13.431-30-30-30h-436c-16.569 0-30 13.431-30 30v236h496z" fill="#c4e5f9"/><path d="m7.5 283.5h496v38h-496z" fill="#9eb6f4"/><path d="m7.5 313.5v62c0 16.569 13.431 30 30 30h436c16.569 0 30-13.431 30-30v-62z" fill="#e4e8ed"/><circle cx="255.5" cy="359.5" fill="#fff" r="15"/><path d="m473.5 375.5h-436c-16.569 0-30-13.431-30-30v30c0 16.569 13.431 30 30 30h436c16.569 0 30-13.431 30-30v-30c0 16.569-13.431 30-30 30z" fill="#cad8eb"/><path d="m378.5 283.5c16.569 0 30-13.431 30-30v-198h-60v228z" fill="#e4e8ed"/><path d="m378.5 253.5h-30v30h30c16.569 0 30-13.431 30-30v-30c0 16.569-13.431 30-30 30z" fill="#cad8eb"/><path d="m348.5 253.5v-246h-246v236c0 22.091 17.909 40 40 40h236c-16.569 0-30-13.431-30-30z" fill="#f88fa4"/><path d="m348.5 253.5h-206c-22.091 0-40-17.909-40-40v30c0 22.091 17.909 40 40 40h236c-16.569 0-30-13.431-30-30z" fill="#f05475"/><circle cx="225.5" cy="113.5" fill="#9ce3bf" r="50"/><path d="m225.5 133.5c-22.346 0-41.312-14.736-47.698-35-1.493 4.738-2.302 9.776-2.302 15 0 27.57 22.43 50 50 50s50-22.43 50-50c0-5.224-.809-10.262-2.302-15-6.386 20.264-25.352 35-47.698 35z" fill="#87bcc4"/></g><g id="Outline_32_"><path d="m33.5 306h15v15h-15z" fill="#231f20"/><path d="m265.5 466h15v15h-15z" fill="#231f20"/><path d="m255.5 382c-12.407 0-22.5-10.094-22.5-22.5s10.093-22.5 22.5-22.5c12.406 0 22.5 10.094 22.5 22.5s-10.094 22.5-22.5 22.5zm0-30c-4.136 0-7.5 3.364-7.5 7.5s3.364 7.5 7.5 7.5 7.5-3.364 7.5-7.5-3.364-7.5-7.5-7.5z"/><g><path d="m496 176.931v129.069h-432.5v15h432.5v54.5c0 12.406-10.094 22.5-22.5 22.5h-384.287v15h98.781l-23.382 53h-41.612v45h75.824v-15h-60.824v-15h112.5v-15h-69.494l23.382-53h102.222l30 68h36.39v15h-159.176v15h174.176v-45h-41.611l-23.382-53h150.493c20.678 0 37.5-16.822 37.5-37.5v-198.569z"/><path d="m0 85.5v290c0 20.678 16.822 37.5 37.5 37.5h36.713v-15h-36.713c-12.407 0-22.5-10.094-22.5-22.5v-290c0-12.406 10.093-22.5 22.5-22.5h39v-15h-39c-20.678 0-37.5 16.822-37.5 37.5z"/><path d="m473.5 48h-39v15h39c12.406 0 22.5 10.094 22.5 22.5v76.431h15v-76.431c0-20.678-16.822-37.5-37.5-37.5z"/></g><path d="m378.5 291h-195.143v-15h165.16c-4.717-6.271-7.517-14.065-7.517-22.5v-141.715h15v141.715c0 12.406 10.094 22.5 22.5 22.5s22.5-10.094 22.5-22.5v-190.5h-28.5v-15h43.5v205.5c0 20.678-16.822 37.5-37.5 37.5zm-210.143 0h-25.857c-26.191 0-47.5-21.309-47.5-47.5v-243.5h261v96.785h-15v-81.785h-231v228.5c0 17.921 14.58 32.5 32.5 32.5h25.857z"/><path d="m310.5 227h-90v-15h90zm-105 0h-15v-15h15zm-30 0h-35v-15h35z"/><path d="m140.5 242h80v15h-80z"/><path d="m305.5 121v-15h-23.005c-1.342-10.251-5.388-19.658-11.405-27.482l16.282-16.282-10.607-10.607-16.283 16.281c-7.824-6.018-17.231-10.063-27.482-11.405v-23.005h-15v23.005c-10.251 1.342-19.658 5.388-27.482 11.406l-16.283-16.283-10.606 10.607 16.282 16.282c-6.018 7.824-10.063 17.231-11.406 27.482h-23.005v15h23.005c1.342 10.251 5.388 19.658 11.406 27.482l-16.282 16.282 10.606 10.607 16.283-16.283c7.824 6.018 17.231 10.063 27.482 11.406v23.007h15v-23.005c10.251-1.342 19.658-5.387 27.482-11.405l16.282 16.282 10.607-10.607-16.282-16.282c6.018-7.824 10.063-17.231 11.405-27.482h23.006zm-80 35c-23.435 0-42.5-19.065-42.5-42.5s19.065-42.5 42.5-42.5 42.5 19.065 42.5 42.5-19.065 42.5-42.5 42.5z"/></g><g fill="#fff"><path d="m466 115.5h15v15h-15z"/><path d="m466 85.5h15v15h-15z"/><path d="m235.5 242h15v15h-15z"/><path d="m265.5 242h15v15h-15z"/><path d="m222 86.5h15v15h-15z"/><path d="m197 107h15v15h-15z"/><path d="m237 116.5h15v15h-15z"/></g></g></svg>