<svg id="Capa_1" enable-background="new 0 0 511.5 511.5" height="512" viewBox="0 0 511.5 511.5" width="512" xmlns="http://www.w3.org/2000/svg"><g><g id="Filled_33_"><path d="m299.4 294.208-28.284-28.284 106.066-106.066c7.81-7.81 20.474-7.81 28.284 0 7.81 7.81 7.81 20.474 0 28.284z" fill="#e4e8ed"/><path d="m341.826 308.35-28.284-28.284 106.066-106.066c7.81-7.81 20.474-7.81 28.284 0 7.81 7.81 7.81 20.474 0 28.284z" fill="#e4e8ed"/><path d="m395.75 504h-280c-16.569 0-30-13.431-30-30v-10h340v10c0 16.569-13.431 30-30 30z" fill="#f88fa4"/><path d="m55.75 254v30c0 79.169 46.003 147.588 112.733 180h174.535c66.73-32.412 112.733-100.831 112.733-180v-30z" fill="#f8e868"/><path d="m407.732 414c10.409-12.157 19.384-25.578 26.665-40h-357.294c7.281 14.422 16.256 27.843 26.665 40z" fill="#f88fa4"/></g><g fill="#fff"><path d="m410.75 306.5h15v15h-15z"/><path d="m115.75 276.5h15v15h-15z"/><path d="m85.75 276.5h15v15h-15z"/></g><g id="Outline_33_"><path d="m245.25 0h15v15h-15z"/><path d="m87.75 170.5h143c12.406 0 22.5 10.094 22.5 22.5v33h15v-33c0-20.678-16.822-37.5-37.5-37.5h-92c-9.649 0-17.5-7.851-17.5-17.5s7.851-17.5 17.5-17.5h285c17.921 0 32.5-14.579 32.5-32.5s-14.579-32.5-32.5-32.5h-141c-12.406 0-22.5-10.094-22.5-22.5v-3h-15v3c0 20.678 16.822 37.5 37.5 37.5h92c9.649 0 17.5 7.851 17.5 17.5s-7.851 17.5-17.5 17.5h-287c-17.921 0-32.5 14.579-32.5 32.5s14.579 32.5 32.5 32.5zm314.365-100h21.635c9.649 0 17.5 7.851 17.5 17.5s-7.851 17.5-17.5 17.5h-21.635c3.245-5.056 5.135-11.059 5.135-17.5s-1.891-12.444-5.135-17.5zm-314.365 50h23.635c-3.245 5.056-5.135 11.059-5.135 17.5s1.891 12.444 5.135 17.5h-23.635c-9.649 0-17.5-7.851-17.5-17.5s7.851-17.5 17.5-17.5z"/><path d="m215.25 26h15v15h-15z"/><path d="m215.25 56h15v15h-15z"/><path d="m275.25 0h15v34h-15z"/><path d="m430.728 395.572c21.276-33.298 32.522-71.879 32.522-111.572v-37.5h-48.966l38.912-38.912c10.722-10.723 10.722-28.169 0-38.892-9.686-9.686-24.858-10.62-35.605-2.806-1.274-4.151-3.544-8.058-6.822-11.336-10.722-10.72-28.168-10.722-38.892 0l-91.945 91.946h-70.257v15h238.575v15h-302.5v15h302.354c-1.003 26.547-7.317 51.949-18.186 75h-119.168v15h111.257c-5.142 8.779-10.987 17.137-17.484 25h-297.546c-6.498-7.863-12.342-16.221-17.484-25h206.257v-15h-214.168c-11.889-25.214-18.332-53.239-18.332-82.5v-22.5h131.425v-15h-146.425v37.5c0 39.693 11.246 78.274 32.522 111.572 15.537 24.315 35.853 45.02 59.614 60.928h-62.136v17.5c0 20.678 16.822 37.5 37.5 37.5h15v-15h-15c-12.406 0-22.5-10.094-22.5-22.5v-2.5h170.357v-15h-93.367c-18.592-9.226-35.194-21.08-49.455-35h269.929c-14.261 13.92-30.863 25.774-49.455 35h-62.652v15h139.643v2.5c0 12.406-10.094 22.5-22.5 22.5h-250v15h250c20.678 0 37.5-16.822 37.5-37.5v-17.5h-62.136c23.761-15.908 44.077-36.612 59.614-60.928zm-129.582-149.072 81.339-81.339c2.36-2.361 5.5-3.662 8.839-3.662 3.338 0 6.478 1.301 8.838 3.662 4.871 4.871 4.874 12.793.009 17.668l-63.671 63.671zm56.569 0 53.054-53.054c.006-.006.012-.013.019-.02l14.123-14.123c4.873-4.875 12.805-4.875 17.678 0 2.361 2.36 3.661 5.5 3.661 8.839 0 3.338-1.3 6.478-3.661 8.838l-49.52 49.52z"/></g></g></svg>