<svg id="Capa_1" enable-background="new 0 0 511.219 511.219" height="512" viewBox="0 0 511.219 511.219" width="512" xmlns="http://www.w3.org/2000/svg"><g><g id="Filled_41_"><path d="m255.609 503.476c117.706-30.234 200-136.336 200-257.863v-131.852l-200-105.286-200 105.286v131.851c0 121.527 82.294 227.63 200 257.864z" fill="#e4e8ed"/><path d="m255.61 473.476c-117.707-30.234-200-136.336-200-257.863v30c0 121.527 82.294 227.63 200 257.863 117.706-30.234 200-136.336 200-257.863v-30c-.001 121.526-82.294 227.629-200 257.863z" fill="#cad8eb"/><path d="m255.609 461.936c-94.714-28.956-160-116.472-160-216.323v-107.705l160-84.229 160 84.229v107.704c0 99.852-65.286 187.367-160 216.324z" fill="#f8e868"/><path d="m255.609 431.935c-94.714-28.956-160-116.472-160-216.323v30c0 99.852 65.286 187.367 160 216.323 94.714-28.956 160-116.472 160-216.323v-30c0 99.852-65.286 187.367-160 216.323z" fill="#efc17a"/><path d="m331.514 156.065c-9.994 0-18.095 7.998-18.095 17.863v-35.727c0-9.866-8.101-17.863-18.095-17.863s-18.095 7.998-18.095 17.863v-17.863c0-9.866-8.101-17.863-18.095-17.863s-18.095 7.998-18.095 17.863v26.795c0-9.866-8.101-17.863-18.095-17.863s-18.095 7.998-18.095 17.863v92.961c0-12.492-10.127-22.619-22.619-22.619-12.492 0-22.619 10.127-22.619 22.619v67.741c0 15.947 5.445 31.417 15.434 43.847l29.566 36.793v50.65c15.75 9.538 32.831 17.255 51 22.81 24.792-7.58 47.563-19.178 67.68-33.953v-39.507l26.32-66.76v-147.786c-.002-9.866-8.103-17.864-18.097-17.864z" fill="#ffe4c2"/><path d="m255.609 431.936c-18.169-5.555-35.25-13.272-51-22.81v30c15.75 9.538 32.831 17.255 51 22.81 24.792-7.58 47.563-19.178 67.68-33.953v-30c-20.117 14.775-42.887 26.373-67.68 33.953z" fill="#f2d1a5"/></g><g fill="#fff"><g><path d="m144.109 138.976h15v15h-15z"/><path d="m144.109 188.976h15v15h-15z"/><path d="m169.109 163.976h15v15h-15z"/><path d="m119.109 163.976h15v15h-15z"/></g><g><path d="m260.109 358.976h15v15h-15z"/><path d="m260.109 408.976h15v15h-15z"/><path d="m285.109 383.976h15v15h-15z"/><path d="m235.109 383.976h15v15h-15z"/></g></g><g id="Outline_41_"><path d="m63.109 118.289 192.5-101.338 93.183 49.055 6.987-13.274-100.17-52.732-207.5 109.234v59.254h15z"/><path d="m255.609 495.725c-33.684-8.912-64.683-24.218-92.162-45.506l-9.187 11.857c29.612 22.942 63.083 39.314 99.482 48.664l1.866.479 1.866-.479c48.829-12.542 93.177-38.267 128.25-74.394 34.604-35.644 58.87-79.98 70.174-128.217l-14.604-3.422c-21.898 93.447-92.957 166.476-185.685 191.018z"/><path d="m63.109 245.612v-62.124h-15v62.124c0 79.301 34.35 154.636 94.242 206.688l9.84-11.322c-56.613-49.202-89.082-120.41-89.082-195.366z"/><path d="m369.052 59.72-6.987 13.273 86.045 45.296v127.323c0 15.025-1.311 30.112-3.896 44.842l14.774 2.594c2.735-15.584 4.122-31.544 4.122-47.436v-136.378z"/><path d="m88.109 133.381v112.231c0 50.525 15.892 98.665 45.958 139.215 29.979 40.432 71.25 69.575 119.35 84.28l2.193.671 2.193-.671c48.1-14.705 89.371-43.849 119.35-84.28 30.065-40.55 45.958-88.689 45.958-139.215v-112.231l-167.5-88.177zm320 112.231c0 66.328-29.187 126.662-77.32 167.182v-22.894l26.32-66.761v-86.785h-15v83.936l-26.32 66.761v37.288c-18.034 12.674-38.234 22.787-60.18 29.742-15.409-4.883-29.956-11.326-43.5-19.114v-49.131l-31.219-38.852c-8.887-11.059-13.781-24.962-13.781-39.149v-22.414h-15v22.414c0 17.593 6.069 34.833 17.088 48.546l27.912 34.734v34.4c-57.991-39.942-94-106.226-94-179.903v-103.176l152.5-80.28 152.5 80.28z"/><path d="m233.538 120.339v3.708c-3.23-1.461-6.819-2.276-10.595-2.276-14.113 0-25.595 11.378-25.595 25.363v66.928c-4.447-2.593-9.611-4.086-15.119-4.086-16.608 0-30.119 13.512-30.119 30.119v30.326h15v-30.326c0-8.337 6.782-15.119 15.119-15.119s15.119 6.782 15.119 15.119v32.381 20.82h15v-20.82-32.381-92.961c0-5.714 4.753-10.363 10.595-10.363s10.595 4.649 10.595 10.363v110.436h15v-110.436-26.795c0-5.714 4.753-10.363 10.595-10.363s10.595 4.649 10.595 10.363v17.863 119.367h15v-119.367c0-5.714 4.753-10.363 10.595-10.363s10.595 4.649 10.595 10.363v35.727 83.641h15v-83.641c0-5.715 4.753-10.363 10.595-10.363s10.595 4.648 10.595 10.363v47.426h15v-47.426c0-13.985-11.482-25.363-25.595-25.363-3.776 0-7.365.815-10.595 2.276v-12.64c0-13.985-11.482-25.363-25.595-25.363-3.972 0-7.735.901-11.093 2.508-2.346-11.604-12.708-20.371-25.098-20.371-14.112 0-25.594 11.378-25.594 25.363z"/><path d="m257.609 322.869-20.696-20.697-10.607 10.607 31.303 31.303 57.304-57.303-10.607-10.607z"/></g></g></svg>