<svg id="Capa_1" enable-background="new 0 0 511 511" height="512" viewBox="0 0 511 511" width="512" xmlns="http://www.w3.org/2000/svg"><g><g id="Filled"><g fill="#f8e868"><path d="m255.5 7.5c11.598 0 21 8.745 21 22 0 8.237-3.534 13.301-8.739 19-7.011 7.678-12.261 22.683-12.261 34.241 0-11.558-5.25-26.563-12.261-34.241-5.204-5.699-8.739-10.763-8.739-19 0-13.255 9.402-22 21-22z"/><path d="m255.5 503.5c11.598 0 21-8.745 21-22 0-8.237-3.534-13.301-8.739-19-7.011-7.678-12.261-22.683-12.261-34.241 0 11.558-5.25 26.563-12.261 34.241-5.204 5.699-8.739 10.763-8.739 19 0 13.255 9.402 22 21 22z"/><path d="m80.138 80.138c8.201-8.201 21.033-8.665 30.406.707 5.825 5.825 6.906 11.904 7.256 19.614.471 10.387 7.369 24.709 15.542 32.882-8.173-8.173-22.495-15.071-32.882-15.542-7.71-.35-13.789-1.431-19.614-7.256-9.374-9.372-8.909-22.204-.708-30.405z"/><path d="m430.862 430.862c8.201-8.201 8.665-21.033-.707-30.406-5.825-5.825-11.904-6.906-19.614-7.256-10.387-.471-24.709-7.369-32.882-15.542 8.173 8.173 15.071 22.495 15.542 32.882.35 7.71 1.431 13.789 7.256 19.614 9.372 9.374 22.204 8.91 30.405.708z"/><path d="m7.5 255.5c0-11.598 8.745-21 22-21 8.237 0 13.301 3.534 19 8.739 7.678 7.011 22.683 12.261 34.241 12.261-11.558 0-26.563 5.25-34.241 12.261-5.699 5.204-10.763 8.739-19 8.739-13.255 0-22-9.402-22-21z"/><path d="m503.5 255.5c0-11.598-8.745-21-22-21-8.237 0-13.301 3.534-19 8.739-7.678 7.011-22.683 12.261-34.241 12.261 11.558 0 26.563 5.25 34.241 12.261 5.699 5.204 10.763 8.739 19 8.739 13.255 0 22-9.402 22-21z"/><path d="m80.138 430.862c-8.201-8.201-8.665-21.033.707-30.406 5.825-5.825 11.904-6.906 19.614-7.256 10.387-.471 24.709-7.369 32.882-15.542-8.173 8.173-15.071 22.495-15.542 32.882-.35 7.71-1.431 13.789-7.256 19.614-9.372 9.374-22.204 8.91-30.405.708z"/><path d="m430.862 80.138c-8.201-8.201-21.033-8.665-30.406.707-5.825 5.825-6.906 11.904-7.256 19.614-.471 10.387-7.369 24.709-15.542 32.882 8.173-8.173 22.495-15.071 32.882-15.542 7.71-.35 13.789-1.431 19.614-7.256 9.374-9.372 8.91-22.204.708-30.405z"/></g><circle cx="255.5" cy="255.5" fill="#f8e868" r="175"/><path d="m255.5 400.5c-91.442 0-166.716-70.501-174.35-160-.422 4.946-.65 9.947-.65 15 0 96.495 78.505 175 175 175s175-78.505 175-175c0-5.053-.228-10.054-.65-15-7.634 89.499-82.908 160-174.35 160z" fill="#efc17a"/><circle cx="255.5" cy="255.5" fill="#9ce3bf" r="140"/><path d="m255.5 365.5c-72.252 0-131.713-54.734-139.199-125-.525 4.929-.801 9.932-.801 15 0 77.32 62.68 140 140 140s140-62.68 140-140c0-5.068-.276-10.071-.801-15-7.486 70.266-66.947 125-139.199 125z" fill="#87bcc4"/></g><g fill="#fff"><path d="m210.5 254h15v15h-15z"/><path d="m240.5 294h15v15h-15z"/><path d="m260.5 234h15v15h-15z"/><path d="m290.5 264h15v15h-15z"/><path d="m240.5 204h15v15h-15z"/></g><g id="Outline"><path d="m329.847 192.105c-3.719.656-9.48 1.673-12.63 1.679.006-3.15 1.023-8.911 1.679-12.63 2.128-12.062 4.139-23.455-4.127-28.246-8.2-4.75-17.002 2.607-26.324 10.396-2.944 2.46-7.51 6.276-10.275 7.851-1.526-2.7-3.475-8.054-4.735-11.517-4.237-11.641-8.24-22.638-17.935-22.638-9.696 0-13.697 10.997-17.935 22.639-1.26 3.463-3.208 8.816-4.734 11.517-2.766-1.576-7.331-5.391-10.275-7.851-9.321-7.79-18.128-15.148-26.323-10.397-8.267 4.791-6.256 16.184-4.128 28.246.656 3.719 1.673 9.48 1.679 12.63-3.15-.006-8.911-1.023-12.63-1.679-12.062-2.128-23.455-4.139-28.246 4.127-4.75 8.197 2.607 17.002 10.396 26.324 2.46 2.944 6.276 7.51 7.852 10.275-2.701 1.526-8.055 3.475-11.518 4.735-11.641 4.236-22.638 8.239-22.638 17.934 0 9.696 10.997 13.697 22.639 17.935 3.463 1.26 8.816 3.208 11.517 4.734-1.576 2.766-5.391 7.331-7.851 10.275-7.79 9.322-15.147 18.126-10.397 26.323 4.79 8.268 16.184 6.256 28.246 4.128 3.719-.656 9.48-1.673 12.63-1.679-.006 3.15-1.023 8.911-1.679 12.63-2.128 12.062-4.139 23.455 4.127 28.246 6.081 3.523 14.26 1.01 28.229-8.672 8.097-5.612 15.172-11.644 15.469-11.898l-9.745-11.403c-9.034 7.716-19.289 14.793-24.925 17.403.24-3.272 1.058-7.905 1.616-11.069 1.974-11.185 3.678-20.845-1.903-26.426-5.582-5.581-15.241-3.877-26.426-1.903-2.767.488-6.656 1.174-9.777 1.5 1.812-2.496 4.283-5.452 6.045-7.561 7.337-8.78 13.673-16.362 11.609-24.062-2.015-7.514-11.117-10.826-21.655-14.662-2.811-1.023-6.815-2.48-9.771-3.839 2.956-1.359 6.961-2.816 9.771-3.839 10.539-3.836 19.641-7.148 21.655-14.662 2.065-7.699-4.271-15.282-11.608-24.062-1.762-2.109-4.233-5.065-6.045-7.561 3.121.326 7.01 1.012 9.777 1.5 11.185 1.974 20.845 3.678 26.426-1.903 5.582-5.582 3.877-15.241 1.903-26.426-.488-2.767-1.174-6.656-1.5-9.777 2.496 1.812 5.452 4.283 7.561 6.045 8.779 7.337 16.362 13.676 24.062 11.609 7.514-2.015 10.826-11.116 14.662-21.655 1.023-2.811 2.48-6.815 3.839-9.771 1.359 2.956 2.816 6.961 3.839 9.771 3.835 10.539 7.148 19.641 14.661 21.655 7.703 2.062 15.282-4.272 24.062-11.608 2.109-1.762 5.065-4.233 7.561-6.045-.326 3.121-1.012 7.01-1.5 9.777-1.974 11.185-3.678 20.845 1.903 26.426 5.581 5.58 15.24 3.876 26.426 1.903 2.767-.488 6.656-1.174 9.777-1.5-1.812 2.496-4.283 5.452-6.045 7.561-7.337 8.78-13.673 16.362-11.609 24.062 2.015 7.514 11.117 10.826 21.655 14.662 2.811 1.023 6.815 2.48 9.771 3.839-2.956 1.359-6.961 2.816-9.771 3.839-10.539 3.835-19.641 7.148-21.655 14.661-2.065 7.699 4.271 15.282 11.608 24.062 1.762 2.109 4.233 5.065 6.045 7.561-3.121-.326-7.01-1.012-9.777-1.5-11.184-1.973-20.844-3.677-26.426 1.903-5.582 5.582-3.877 15.241-1.903 26.426.559 3.164 1.376 7.796 1.616 11.068-5.636-2.61-15.891-9.687-24.924-17.403l-9.745 11.403c.297.254 7.372 6.286 15.468 11.898 10 6.931 17.031 10.188 22.451 10.188 2.152 0 4.05-.514 5.778-1.515 8.267-4.791 6.256-16.184 4.128-28.246-.656-3.719-1.673-9.48-1.679-12.63 3.15.006 8.911 1.023 12.63 1.679 12.062 2.128 23.455 4.139 28.246-4.127 4.75-8.197-2.607-17.002-10.396-26.324-2.46-2.944-6.276-7.51-7.852-10.275 2.701-1.526 8.055-3.475 11.518-4.735 11.641-4.236 22.638-8.239 22.638-17.934 0-9.696-10.997-13.698-22.639-17.935-3.463-1.26-8.816-3.208-11.517-4.734 1.576-2.766 5.391-7.331 7.851-10.275 7.79-9.321 15.147-18.126 10.397-26.323-4.79-8.267-16.183-6.257-28.245-4.128z"/><path d="m481.5 227c-11.387 0-18.389 5.523-24.058 10.701-4.343 3.967-12.039 7.41-19.649 9.13-.866-18.756-4.54-36.96-10.889-54.211l17.165-7.11-5.74-13.858-17.192 7.121c-5.961-12.78-13.457-24.94-22.439-36.296-2.637-3.334-5.393-6.563-8.249-9.695 6.614-4.192 14.531-7.222 20.431-7.49 7.669-.348 16.525-1.393 24.577-9.445 5.852-5.851 9.098-13.275 9.14-20.903.042-7.487-2.953-14.628-8.433-20.108s-12.596-8.491-20.109-8.433c-7.628.042-15.052 3.289-20.903 9.14-8.052 8.052-9.097 16.908-9.445 24.577-.268 5.902-3.301 13.823-7.495 20.439-13.725-12.463-29.282-22.802-46.022-30.609l7.157-17.278-13.858-5.74-7.142 17.243c-6-2.216-12.12-4.119-18.335-5.683l-3.659 14.547c5.55 1.396 10.972 3.064 16.261 4.978l-7.671 18.519c-13.221-4.718-27.302-7.608-41.944-8.345v-20.018c6.485.288 12.952.943 19.306 1.97l2.392-14.809c-6.76-1.092-13.635-1.795-20.53-2.121 1.72-7.613 5.164-15.311 9.132-19.656 5.178-5.668 10.701-12.67 10.701-24.057 0-16.818-12.252-29.5-28.5-29.5s-28.5 12.682-28.5 29.5c0 11.387 5.523 18.389 10.701 24.058 3.967 4.344 7.411 12.042 9.131 19.653-18.954.891-37.163 4.681-54.187 10.946l-7.135-17.227-13.858 5.74 7.147 17.255c-16.895 7.858-32.401 18.217-46.023 30.615-4.189-6.612-7.217-14.524-7.484-20.422-.348-7.669-1.393-16.525-9.445-24.577-5.851-5.852-13.275-9.098-20.903-9.14-.052 0-.104 0-.155 0-7.431 0-14.511 2.991-19.953 8.433-5.48 5.48-8.475 12.622-8.433 20.109.042 7.628 3.289 15.052 9.14 20.903 8.052 8.052 16.908 9.097 24.577 9.445 5.897.268 13.81 3.296 20.422 7.484-12.398 13.623-22.757 29.128-30.615 46.023l-17.255-7.147-5.74 13.858 17.227 7.135c-6.265 17.024-10.055 35.232-10.946 54.187-7.612-1.72-15.309-5.164-19.653-9.131-5.671-5.177-12.673-10.7-24.06-10.7-16.818 0-29.5 12.252-29.5 28.5s12.682 28.5 29.5 28.5c11.387 0 18.389-5.523 24.058-10.701 4.348-3.971 12.055-7.417 19.673-9.135.881 18.593 4.58 36.851 10.949 54.181l-17.25 7.145 5.74 13.858 17.273-7.155c3.066 6.6 6.511 13.042 10.375 19.269l12.745-7.909c-3.433-5.532-6.506-11.249-9.252-17.104l18.478-7.654c6.2 12.995 14.244 24.947 23.795 35.514l-14.131 14.131c-3.801-4.143-7.42-8.481-10.81-13.028l-12.025 8.967c3.577 4.798 7.408 9.407 11.443 13.832-6.617 4.195-14.539 7.229-20.442 7.498-7.669.348-16.525 1.393-24.577 9.445-5.852 5.851-9.098 13.275-9.14 20.903-.042 7.487 2.953 14.628 8.433 20.108 5.442 5.442 12.522 8.434 19.954 8.434h.155c7.628-.042 15.052-3.289 20.903-9.14 8.052-8.052 9.097-16.908 9.445-24.577.268-5.905 3.304-13.83 7.501-20.448 11.928 10.849 25.255 20.15 39.543 27.494 2.139 1.099 4.297 2.137 6.464 3.147l-7.147 17.255 13.858 5.74 7.129-17.211c17.357 6.411 35.492 10.061 54.194 10.923-1.719 7.614-5.164 15.315-9.133 19.661-5.178 5.668-10.701 12.67-10.701 24.057 0 16.818 12.252 29.5 28.5 29.5s28.5-12.682 28.5-29.5c0-11.387-5.523-18.389-10.701-24.058-3.97-4.347-7.416-12.053-9.135-19.67 18.504-.887 36.834-4.604 54.177-10.961l7.149 17.259 13.858-5.74-7.151-17.264c2.394-1.111 4.772-2.256 7.114-3.471 14.044-7.29 27.153-16.469 38.9-27.155 4.196 6.617 7.23 14.539 7.498 20.442.348 7.669 1.393 16.525 9.445 24.577 5.851 5.852 13.275 9.098 20.903 9.14h.155c7.431 0 14.511-2.991 19.953-8.433 5.48-5.48 8.475-12.622 8.433-20.109-.042-7.628-3.289-15.052-9.14-20.903-8.052-8.052-16.908-9.097-24.577-9.445-5.904-.268-13.826-3.302-20.443-7.498 4.203-4.611 8.185-9.422 11.891-14.435l-12.062-8.917c-3.51 4.748-7.266 9.27-11.221 13.581l-14.069-14.069c9.574-10.616 17.586-22.599 23.751-35.568l18.464 7.648c-2.649 5.647-5.603 11.165-8.89 16.511l12.778 7.856c3.704-6.025 7.018-12.25 9.978-18.624l17.271 7.154 5.74-13.858-17.255-7.147c6.369-17.332 10.073-35.591 10.954-54.179 7.618 1.718 15.325 5.165 19.673 9.135 5.67 5.178 12.672 10.701 24.059 10.701 16.818 0 29.5-12.252 29.5-28.5s-12.682-28.5-29.5-28.5zm-80.807-126.202c.309-6.802 1.146-10.729 5.067-14.65 3.085-3.084 6.674-4.726 10.381-4.747h.069c3.424 0 6.742 1.433 9.349 4.04 2.625 2.624 4.06 5.969 4.04 9.417-.021 3.707-1.663 7.296-4.747 10.381-3.921 3.921-7.849 4.758-14.65 5.067-3.65.166-7.693.984-11.821 2.312 1.328-4.127 2.147-8.17 2.312-11.82zm-299.895 9.509c-6.802-.309-10.729-1.146-14.65-5.067-3.084-3.085-4.726-6.674-4.747-10.381-.02-3.449 1.416-6.793 4.04-9.417 2.606-2.607 5.924-4.04 9.349-4.04h.069c3.707.021 7.296 1.663 10.381 4.747 3.921 3.921 4.758 7.849 5.067 14.65.166 3.65.984 7.693 2.312 11.821-4.128-1.329-8.171-2.148-11.821-2.313zm-57.356 151.916c-5.027 4.592-8.396 6.777-13.942 6.777-8.538 0-14.5-5.551-14.5-13.5s5.962-13.5 14.5-13.5c5.546 0 8.915 2.185 13.942 6.777 2.698 2.464 6.136 4.743 9.994 6.723-3.858 1.98-7.296 4.26-9.994 6.723zm66.865 147.979c-.309 6.802-1.146 10.729-5.067 14.65-3.085 3.084-6.674 4.726-10.381 4.747-3.489.022-6.793-1.416-9.417-4.04-2.625-2.624-4.06-5.969-4.04-9.417.021-3.707 1.663-7.296 4.747-10.381 3.921-3.921 7.849-4.758 14.65-5.067 3.65-.166 7.693-.984 11.821-2.312-1.329 4.127-2.148 8.17-2.313 11.82zm299.895-9.509c6.802.309 10.729 1.146 14.65 5.067 3.084 3.085 4.726 6.674 4.747 10.381.02 3.449-1.416 6.793-4.04 9.417-2.606 2.607-5.924 4.04-9.349 4.04-.022 0-.046 0-.069 0-3.707-.021-7.296-1.663-10.381-4.747-3.921-3.921-4.758-7.849-5.067-14.65-.166-3.65-.984-7.693-2.312-11.821 4.128 1.329 8.171 2.148 11.821 2.313zm-83.722-296.956c15.558 7.259 29.702 16.782 42.078 28.098l-14.249 14.249c-10.567-9.551-22.518-17.595-35.514-23.795zm-84.48-74.237c0-8.538 5.551-14.5 13.5-14.5s13.5 5.962 13.5 14.5c0 5.546-2.185 8.915-6.777 13.942-2.464 2.698-4.743 6.136-6.723 9.994-1.98-3.858-4.26-7.296-6.723-9.994-4.592-5.027-6.777-8.396-6.777-13.942zm6 58.676v20.035c-14.378.727-28.506 3.523-41.952 8.302l-7.656-18.483c15.594-5.673 32.263-9.085 49.608-9.854zm-149.969 110.216 18.418 7.629c-4.727 13.346-7.53 27.457-8.251 41.979h-20.022c.769-17.345 4.181-34.014 9.855-49.608zm.011 114.212c-5.768-15.873-9.094-32.589-9.854-49.604h20.001c.737 14.641 3.627 28.723 8.345 41.944zm24.146-120.442-18.393-7.618c7.243-15.424 16.764-29.573 28.138-42.004l14.078 14.078c-9.712 10.703-17.708 22.672-23.823 35.544zm62.403 214.929c-15.265-7.165-29.451-16.622-42.012-28.063l14.112-14.111c10.567 9.551 22.518 17.595 35.514 23.795zm13.848 5.765 7.617-18.39c13.221 4.718 27.302 7.608 41.944 8.345v20c-17.04-.779-33.749-4.182-49.561-9.955zm70.561 68.644c0 8.538-5.551 14.5-13.5 14.5s-13.5-5.962-13.5-14.5c0-5.546 2.185-8.915 6.777-13.942 2.464-2.698 4.743-6.136 6.723-9.994 1.98 3.858 4.26 7.296 6.723 9.994 4.592 5.027 6.777 8.396 6.777 13.942zm99.422-102.472c-12.559 11.441-26.747 20.896-42.013 28.062l-7.588-18.319c13.092-6.216 25.039-14.267 35.559-23.785zm-79.216 4.649 3.805 14.51c4.062-1.065 8.047-2.295 11.95-3.68l7.599 18.345c-15.811 5.773-32.517 9.184-49.559 9.96v-20.024c4.88-.245 9.747-.706 14.538-1.424l-2.223-14.834c-6.511.976-13.178 1.47-19.815 1.47-73.062 0-132.501-59.439-132.501-132.5 0-41.367 18.802-79.614 51.585-104.933l-9.169-11.872c-3.037 2.346-5.957 4.8-8.775 7.339l-14.101-14.101c12.431-11.374 26.58-20.895 42.004-28.138l7.646 18.459c-4.708 2.238-9.309 4.726-13.777 7.469l7.85 12.782c20.779-12.76 44.72-19.505 69.237-19.505 73.061 0 132.5 59.439 132.5 132.5 0 60.216-40.625 112.925-98.794 128.177zm99.505-191.473c-6.2-12.995-14.244-24.947-23.795-35.514l14.25-14.25c11.414 12.488 20.909 26.67 28.108 42.074zm24.241 120.397-18.481-7.655c4.728-13.285 7.596-27.383 8.332-41.946h20.009c-.761 17.01-4.093 33.726-9.86 49.601zm-10.141-64.601c-.737-14.641-3.627-28.723-8.345-41.944l18.536-7.678c5.671 15.665 9.066 32.351 9.829 49.622zm78.689 21c-5.546 0-8.915-2.185-13.942-6.777-2.698-2.464-6.136-4.743-9.994-6.723 3.858-1.98 7.296-4.26 9.994-6.723 5.028-4.592 8.396-6.777 13.942-6.777 8.538 0 14.5 5.551 14.5 13.5s-5.962 13.5-14.5 13.5z"/></g></g></svg>