<svg id="Capa_1" enable-background="new 0 0 510.838 510.838" height="512" viewBox="0 0 510.838 510.838" width="512" xmlns="http://www.w3.org/2000/svg"><g><g id="Filled_24_"><path d="m199.402 432.169v-57.627h8.985c20.621 0 37.823-15.759 39.624-36.302l4.024-38.998 25.113-5.659c8.258-1.861 12.681-10.879 9.097-18.548l-30.232-61.159c0-74.439-42.269-127.707-124.256-127.707-68.626 0-124.257 52.508-124.257 117.281v21.134c0 35.981 12.418 70.983 35.374 99.708l30.87 38.965v68.913h125.658z" fill="#ffe4c2"/><path d="m73.744 402.169h125.658v30h-125.658z" fill="#f2d1a5"/><path d="m212.5 344.542h-41v30h36.887c20.621 0 37.823-15.759 39.624-36.302l2.125-20.594c-5.383 15.755-20.299 26.896-37.636 26.896z" fill="#f2d1a5"/><path d="m460.5 140.169h35l7 66h-36z" fill="#9ce3bf"/><path d="m463.773 176.169 2.727 30h36l-3.182-30z" fill="#87bcc4"/><path d="m316.5 140.169h30v80h-30z" fill="#9ce3bf"/><path d="m460.5 140.169h-114v80h60l14 110h33l25-28z" fill="#e4e8ed"/><path d="m445.5 300.169h-28.818l3.818 30h33l25-28-3.766-33.892z" fill="#cad8eb"/><g fill="#9ce3bf"><path d="m413.5 270.169h-37l-7-50h37z"/><circle cx="134.5" cy="224.169" r="75"/></g></g><g fill="#fff"><path d="m140.5 367.042h15v15h-15z"/><path d="m441.5 187.669h-15v-15h15zm-30 0h-15v-15h15z"/></g><g id="Outline_24_"><path d="m15 224.583v-21.133c0-38.811 22.151-75.129 57.81-94.782l-7.24-13.137c-40.445 22.291-65.57 63.643-65.57 107.919v21.134c0 37.449 13.146 74.521 36.995 104.365l29.249 36.918v24.156h15v-29.377l-32.511-41.036c-21.754-27.221-33.733-60.968-33.733-95.027z"/><path d="m131.757 93.669c39.778 0 71.465 13.313 91.633 38.501l11.709-9.375c-23.114-28.868-58.85-44.126-103.343-44.126-17.993 0-35.436 3.375-51.843 10.032l5.639 13.899c14.608-5.926 30.153-8.931 46.205-8.931z"/><path d="m263.505 212.109c-.25-29.353-6.738-54.958-19.295-76.125l-12.9 7.652c11.415 19.244 17.203 42.876 17.203 70.241v1.752l30.965 62.64c.347.763.522 1.56.522 2.372 0 2.221-1.408 4.929-4.5 5.625l-30.372 6.844-4.577 44.36-.012.115c-1.472 16.793-15.295 29.457-32.152 29.457h-36.887v15h20.402v50.127h15v-50.127h1.484c24.671 0 44.904-18.518 47.09-43.084l3.466-33.584 19.854-4.474c9.54-2.149 16.203-10.48 16.203-20.258 0-3.044-.659-5.999-1.96-8.782z"/><path d="m66.244 405.022h15v27.146h-15z"/><path d="m464.042 239.964 14.908-1.656-2.738-24.639h34.625l-8.591-81h-92.171v15h43.711zm24.711-92.295 5.409 51h-19.616l-5.667-51z"/><path d="m465.698 254.872 4.978 44.798-20.534 22.999h-23.035l-14-110h-59.107v-65h41.076v-15h-86.076v95h53.977l7 50h36.281l7.636 60h42.965l29.466-33.001-5.718-51.452zm-126.698-42.203h-15v-65h15zm44.023 50-4.9-35h21.77l4.455 35z"/><path d="m217 224.169c0-45.491-37.01-82.5-82.5-82.5s-82.5 37.009-82.5 82.5 37.01 82.5 82.5 82.5 82.5-37.009 82.5-82.5zm-82.5 67.5c-37.22 0-67.5-30.28-67.5-67.5s30.28-67.5 67.5-67.5 67.5 30.28 67.5 67.5-30.28 67.5-67.5 67.5z"/><path d="m114.5 242.562-20.696-20.696-10.608 10.606 31.304 31.303 67.304-67.303-10.608-10.606z"/></g></g></svg>