<svg id="Capa_1" enable-background="new 0 0 511 511" height="512" viewBox="0 0 511 511" width="512" xmlns="http://www.w3.org/2000/svg"><g><g id="Filled_18_"><path d="m346.333 128.083-33.833-14.583-5.586-59.208c-2.502-26.524-24.772-46.792-51.414-46.792-26.642 0-48.912 20.268-51.414 46.792l-5.586 59.208-33.833 14.583c-14.667 6.322-24.167 20.762-24.167 36.733v124.684c0 11.046 8.954 20 20 20h20v144c0 11.046 8.954 20 20 20h20c11.046 0 20-8.954 20-20v-129c0-8.284 6.716-15 15-15s15 6.716 15 15v129c0 11.046 8.954 20 20 20h20c11.046 0 20-8.954 20-20v-144h20c11.046 0 20-8.954 20-20v-124.684c0-15.971-9.5-30.411-24.167-36.733z" fill="#e4e8ed"/><g fill="#c4e5f9"><path d="m220.5 443.5h-20c-11.046 0-20-8.954-20-20v30c0 11.046 8.954 20 20 20h20c11.046 0 20-8.954 20-20v-30c0 11.046-8.954 20-20 20z"/><path d="m180.5 279.5h-20c-11.046 0-20-8.954-20-20v30c0 11.046 8.954 20 20 20h20z"/><path d="m350.5 279.5h-20v30h20c11.046 0 20-8.954 20-20v-30c0 11.046-8.954 20-20 20z"/><path d="m310.5 443.5h-20c-11.046 0-20-8.954-20-20v30c0 11.046 8.954 20 20 20h20c11.046 0 20-8.954 20-20v-30c0 11.046-8.954 20-20 20z"/></g><path d="m195.5 473.5h30v30h-30z" fill="#f8e868"/><g fill="#cad8eb"><path d="m140.5 249.5h40v30h-40z"/><path d="m180.5 413.5h60v30h-60z"/><path d="m270.5 413.5h60v30h-60z"/></g><path d="m285.5 473.5h30v30h-30z" fill="#f8e868"/><path d="m330.5 249.5h40v30h-40z" fill="#cad8eb"/><path d="m262.5 86.5h-14c-9.941 0-18-8.059-18-18 0-9.941 8.059-18 18-18h14c9.941 0 18 8.059 18 18 0 9.941-8.059 18-18 18z" fill="#f8e868"/></g><g fill="#fff"><path d="m308 389.5h-15v-15h15zm0-30h-15v-15h15z"/><path d="m218 389.5h-15v-15h15zm0-30h-15v-15h15z"/><path d="m248 267.5h15v15h-15z"/></g><g id="Outline_18_"><path d="m323 406h-45v-81.5c0-12.407-10.094-22.5-22.5-22.5s-22.5 10.093-22.5 22.5v81.5h-45v-35.5h-15v83c0 10.664 6.105 19.922 15 24.482v33.018h45v-33.018c8.895-4.56 15-13.819 15-24.482v-129c0-4.136 3.364-7.5 7.5-7.5s7.5 3.364 7.5 7.5v129c0 10.664 6.105 19.922 15 24.482v33.018h45v-33.018c8.895-4.56 15-13.819 15-24.482v-96.143h-15zm-105 90h-15v-15h15zm15-42.5c0 6.893-5.607 12.5-12.5 12.5h-20c-6.893 0-12.5-5.607-12.5-12.5v-2.5h45zm0-17.5h-45v-15h45zm75 60h-15v-15h15zm15-42.5c0 6.893-5.607 12.5-12.5 12.5h-20c-6.893 0-12.5-5.607-12.5-12.5v-2.5h45zm0-17.5h-45v-15h45z"/><path d="m173 355.5h15v-180h-15v66.5h-25v-26.616h-15v74.116c0 15.164 12.337 27.5 27.5 27.5h12.5zm-25-98.5h25v15h-25zm12.5 45c-6.893 0-12.5-5.607-12.5-12.5v-2.5h25v15z"/><path d="m278.5 161h30v15h-30z"/><path d="m349.302 121.196-29.752-12.825-5.169-54.784c-2.882-30.549-28.195-53.587-58.881-53.587s-55.999 23.038-58.881 53.587l-.323 3.426 14.934 1.409.323-3.426c2.15-22.801 21.044-39.996 43.947-39.996s41.797 17.195 43.947 39.997l5.069 53.728-49.016 20.637-49.016-20.638 3.336-35.368-14.934-1.409-3.437 36.425-29.752 12.824c-17.432 7.513-28.697 24.636-28.697 43.62v35.567h15v-35.567c0-12.99 7.707-24.705 19.636-29.846l30.899-13.319 49.465 20.829v110.02h15v-110.02l49.465-20.827 30.899 13.319c11.929 5.14 19.636 16.855 19.636 29.844v1.112h15v-1.112c0-18.984-11.265-36.107-28.698-43.62z"/><path d="m363 242h-25v-66.5h-15v166.857h15v-25.357h12.5c15.163 0 27.5-12.336 27.5-27.5v-108.571h-15zm0 47.5c0 6.893-5.607 12.5-12.5 12.5h-12.5v-15h25zm0-17.5h-25v-15h25z"/><path d="m262.5 94c14.061 0 25.5-11.439 25.5-25.5s-11.439-25.5-25.5-25.5h-14c-14.061 0-25.5 11.439-25.5 25.5s11.439 25.5 25.5 25.5zm-24.5-25.5c0-5.79 4.71-10.5 10.5-10.5h14c5.79 0 10.5 4.71 10.5 10.5s-4.71 10.5-10.5 10.5h-14c-5.79 0-10.5-4.71-10.5-10.5z"/></g></g></svg>