<svg id="Capa_1" enable-background="new 0 0 511 511" height="512" viewBox="0 0 511 511" width="512" xmlns="http://www.w3.org/2000/svg"><g><g id="Filled_23_"><path d="m361.5 68.5h58v110h-58z" fill="#ffe4c2"/><path d="m361.5 78.845v99.655h58v-49.941z" fill="#f2d1a5"/><path d="m255.5 27.5-180 154.286v321.714h360v-321.714z" fill="#f88fa4"/><path d="m75.5 473.5h360v30h-360z" fill="#f05475"/><path d="m287.5 503.5v-30h8c11.046 0 20-8.954 20-20v-63c0-33.137-26.863-60-60-60-33.137 0-60 26.863-60 60v63c0 11.046 8.954 20 20 20h8v30z" fill="#9ce3bf"/><g fill="#87bcc4"><path d="m223.5 453.5h64v50h-64z"/><path d="m287.5 473.5h8c11.046 0 20-8.954 20-20v-10h-28z"/><path d="m195.5 443.5v10c0 11.046 8.954 20 20 20h8v-30z"/></g><path d="m255.5 343.5c-13.807 0-25-11.193-25-25v-25h50v25c0 13.807-11.193 25-25 25z" fill="#ffe4c2"/><path d="m280.5 293.5h-50v-14c0-8.837 7.163-16 16-16h42z" fill="#616161"/></g><g fill="#fff"><path d="m248 364.5h15v15h-15z"/><g><path d="m104.5 466h15v15h-15z"/><path d="m134.5 466h15v15h-15z"/><path d="m104.5 436h15v15h-15z"/><path d="m391.5 466h15v15h-15z"/><path d="m361.5 466h15v15h-15z"/><path d="m391.5 436h15v15h-15z"/></g></g><g id="Outline_23_"><path d="m92.677 140.277h45v15h-45z" transform="matrix(.759 -.651 .651 .759 -68.444 110.533)"/><path d="m427 164.622v-103.622h-73v41.051l-98.5-84.429-116.731 100.056 9.762 11.389 106.969-91.689 240.119 205.816 9.762-11.389zm-15-12.857-43-36.857v-38.908h43z"/><path d="m-1.582 197.341h100.368v15h-100.368z" transform="matrix(.759 -.651 .651 .759 -121.608 80.944)"/><path d="m413.5 30h15v15h-15z"/><path d="m383.5 30h15v15h-15z"/><path d="m352.5 30h15v15h-15z"/><path d="m397.5 0h15v15h-15z"/><path d="m367.5 0h15v15h-15z"/><path d="m428 215.5h15v81h-15z"/><path d="m428 311.5h15v45h-15z"/><path d="m428 496h-133v-15h.5c15.163 0 27.5-12.336 27.5-27.5v-63c0-25.722-14.637-48.963-37.187-60.3 1.407-3.633 2.187-7.576 2.187-11.7v-24.019l10.262-38.481h-51.762c-12.958 0-23.5 10.542-23.5 23.5v6.5 15 17.5c0 4.124.78 8.067 2.187 11.7-22.55 11.337-37.187 34.578-37.187 60.3v25.849h15v-25.849c0-20.72 12.211-39.372 30.826-47.809 5.755 5.162 13.353 8.309 21.674 8.309s15.919-3.147 21.674-8.309c18.615 8.437 30.826 27.089 30.826 47.809v63c0 6.893-5.607 12.5-12.5 12.5h-.5v-70.5h-15v85.5 15h-17v-22.5h-15v22.5h-17v-15-45.92-15-24.58h-15v24.58 15 30.92h-.5c-6.893 0-12.5-5.607-12.5-12.5v-22.151h-15v22.151c0 15.164 12.337 27.5 27.5 27.5h.5v15h-133v-280.5h-15v295.5h375v-139.5h-15zm-155-177.5c0 9.649-7.851 17.5-17.5 17.5s-17.5-7.851-17.5-17.5v-17.5h35zm1.738-32.5h-36.738v-6.5c0-4.687 3.813-8.5 8.5-8.5h32.238z"/><path d="m218 83.5h15v72h-15z"/><path d="m248 83.5v43.5h30v28.5h15v-72h-15v28.5h-15v-28.5z"/><path d="m213 205.5c0-20.678-16.822-37.5-37.5-37.5h-17.5v75h17.5c20.678 0 37.5-16.822 37.5-37.5zm-37.5 22.5h-2.5v-45h2.5c12.406 0 22.5 10.093 22.5 22.5s-10.094 22.5-22.5 22.5z"/><path d="m228 195.5v46h15v-12.5h25v12.5h15v-46c0-15.164-12.337-27.5-27.5-27.5s-27.5 12.336-27.5 27.5zm15 0c0-6.893 5.607-12.5 12.5-12.5s12.5 5.607 12.5 12.5v18.5h-25z"/><path d="m298 169.5v17c0 12.563 8.472 23.178 20 26.452v28.548h15v-28.548c11.528-3.274 20-13.889 20-26.452v-17h-15v17c0 6.893-5.607 12.5-12.5 12.5s-12.5-5.607-12.5-12.5v-17z"/><path d="m248 394.5h15v40h-15z"/></g></g></svg>