<svg id="Capa_1" enable-background="new 0 0 511.398 511.398" height="512" viewBox="0 0 511.398 511.398" width="512" xmlns="http://www.w3.org/2000/svg"><g><g id="Filled_48_"><path d="m501.36 244.798c-2.152-3.587-5.607-6.206-9.553-7.595l-26.395-9.294c-21.836-7.689-45.662-7.564-67.416.354l-292.428 106.435-58.368-52.185-37.588 13.681 33.518 92.09c9.445 25.949 38.137 39.328 64.086 29.884l354.336-128.968c13.598-4.949 26.074-12.557 36.7-22.38 6.027-5.572 7.498-14.705 3.108-22.022z" fill="#e4e8ed"/><path d="m501.36 244.798c-2.152-3.587-5.607-6.206-9.553-7.595l-1.898-.668c-.578.74-1.214 1.443-1.918 2.094-10.626 9.823-23.102 17.431-36.7 22.38l-354.336 128.968c-25.949 9.445-54.641-3.935-64.086-29.884l10.261 28.191c9.445 25.949 38.137 39.328 64.086 29.884l354.336-128.968c13.598-4.949 26.074-12.557 36.7-22.38 6.027-5.572 7.498-14.706 3.108-22.022z" fill="#cad8eb"/><path d="m338.111 289.433-96.574 182.007-61.081 22.231 29.856-157.723z" fill="#e4e8ed"/><path d="m186.944 459.399-6.487 34.272 61.079-22.231 21.007-39.589z" fill="#cad8eb"/><path d="m167.899 233.671c19.513 0 37.851-5.114 53.756-14.061l56.244 14.061-12.145-59.79c7.76-15.061 12.145-32.133 12.145-50.21 0-60.654-49.346-110-110-110s-110 49.346-110 110 49.346 110 110 110z" fill="#f88fa4"/><path d="m221.656 189.61c-15.906 8.948-34.244 14.061-53.756 14.061-55.566 0-101.634-41.417-108.973-95-.672 4.906-1.027 9.912-1.027 15 0 60.654 49.346 110 110 110 19.513 0 37.851-5.114 53.756-14.061l56.244 14.061-6.42-31.605z" fill="#f05475"/><circle cx="167.899" cy="123.671" fill="#c4e5f9" r="50"/><path d="m167.899 143.671c-22.346 0-41.312-14.736-47.698-35-1.493 4.738-2.302 9.776-2.302 15 0 27.57 22.43 50 50 50s50-22.43 50-50c0-5.224-.809-10.262-2.302-15-6.386 20.264-25.352 35-47.698 35z" fill="#9eb6f4"/></g><g fill="#fff"><path d="m360.834 281.695-5.129-14.096 14.096-5.13 5.129 14.096zm28.19-10.261-5.129-14.096 14.096-5.13 5.129 14.096z"/><path d="m109.936 373.014-5.129-14.096 14.096-5.13 5.129 14.096zm28.19-10.261-5.129-14.096 14.096-5.13 5.129 14.096zm28.192-10.259-5.131-14.096 14.096-5.131 5.131 14.096z"/><path d="m238.915 347.233h14.999v15h-14.999z" transform="matrix(.94 -.342 .342 .94 -106.472 105.682)"/><path d="m164.399 96.671h15v15h-15z"/><path d="m139.399 117.171h15v15h-15z"/><path d="m179.399 126.671h15v15h-15z"/></g><g id="Outline_48_"><path d="m236.262 465.378-45.986 16.738 27.406-144.774-14.739-2.789-8.292 43.809-47.934 17.446 5.131 14.096 39.557-14.398-20.769 109.721 76.175-27.726 31.571-59.5-13.25-7.031z"/><path d="m115.57 228.864 6.701-13.42c-35.08-17.517-56.872-52.682-56.872-91.772 0-56.519 45.981-102.5 102.5-102.5 14.198 0 27.95 2.861 40.874 8.504l6.002-13.746c-14.828-6.475-30.6-9.758-46.876-9.758-64.79 0-117.5 52.71-117.5 117.5 0 22.229 6.266 43.887 18.118 62.633 11.527 18.227 27.797 32.944 47.053 42.559z"/><path d="m270.399 123.671c0 16.47-3.806 32.207-11.312 46.776l-1.208 2.344 10.303 50.72-47.604-11.9-2.601 1.463c-15.232 8.568-32.549 13.098-50.08 13.098-.003 0-.005 0-.008 0-11.198 0-22.213-1.804-32.733-5.36l-4.805 14.209c12.073 4.082 24.701 6.151 37.537 6.151h.01c19.089 0 37.961-4.686 54.776-13.574l64.94 16.234-13.996-68.907c7.714-15.871 11.779-33.531 11.779-51.253 0-20.482-5.375-40.664-15.545-58.364-9.855-17.154-23.995-31.675-40.889-41.991l-7.818 12.803c30.842 18.831 49.254 51.56 49.254 87.551z"/><path d="m175.399 66.677v-23.006h-15v23.005c-10.251 1.342-19.658 5.387-27.482 11.405l-16.282-16.282-10.607 10.607 16.282 16.282c-6.018 7.824-10.063 17.231-11.405 27.482h-23.006v15h23.005c1.342 10.251 5.387 19.658 11.405 27.482l-16.282 16.282 10.607 10.607 16.282-16.282c7.824 6.018 17.231 10.063 27.482 11.405v23.005h15v-23.005c10.251-1.342 19.658-5.387 27.482-11.405l16.282 16.282 10.607-10.607-16.282-16.282c6.018-7.824 10.063-17.231 11.405-27.482h23.005v-15h-23.005c-1.342-10.251-5.387-19.658-11.405-27.482l16.282-16.282-10.607-10.607-16.282 16.282c-7.822-6.017-17.23-10.062-27.481-11.404zm-7.5 99.494c-23.435 0-42.5-19.065-42.5-42.5s19.065-42.5 42.5-42.5 42.5 19.065 42.5 42.5-19.065 42.5-42.5 42.5z"/><path d="m507.787 240.933c-2.979-4.955-7.771-8.792-13.488-10.801l-26.39-9.294c-11.5-4.053-23.515-6.107-35.712-6.107-12.574 0-24.942 2.181-36.763 6.482l-66.548 24.222 5.131 14.096 66.548-24.222c10.17-3.701 20.812-5.578 31.632-5.578 7.074 0 14.073.823 20.917 2.414l-38.209 13.907 5.131 14.096 56.226-20.465 13.06 4.6c2.435.855 4.427 2.41 5.604 4.37.964 1.607 1.473 3.426 1.473 5.259 0 2.803-1.179 5.498-3.237 7.399-9.943 9.194-21.44 16.206-34.171 20.84l-134.501 48.954 20.246-38.156-13.25-7.031-19.643 37.02-46.85 17.052 5.131 14.096 31.222-11.364-29.183 54.999 13.25 7.031 28.58-53.863 150.129-54.642c14.612-5.319 27.81-13.368 39.221-23.919 5.12-4.729 8.057-11.441 8.057-18.416-.002-4.548-1.249-9.034-3.613-12.979z"/><path d="m104.651 411.12c-4.697 1.709-9.586 2.576-14.529 2.576-17.801 0-33.854-11.243-39.944-27.977l-30.953-85.042 26.323-9.581 58.367 52.185 216.007-78.62-5.131-14.096-207.571 75.55-58.367-52.185-48.853 17.782 36.082 99.138c8.24 22.637 29.957 37.846 54.04 37.846 6.698 0 13.312-1.171 19.659-3.48l27.972-10.181-5.131-14.096z"/></g></g></svg>