<svg id="Capa_1" enable-background="new 0 0 511 511" height="512" viewBox="0 0 511 511" width="512" xmlns="http://www.w3.org/2000/svg"><g><g id="Filled_31_"><path d="m473.5 485.5h-436c-16.569 0-30-13.431-30-30v-430h496v430c0 16.569-13.431 30-30 30z" fill="#e4e8ed"/><path d="m7.5 25.5h496v68h-496z" fill="#c4e5f9"/><path d="m473.5 455.5h-436c-16.569 0-30-13.431-30-30v30c0 16.569 13.431 30 30 30h436c16.569 0 30-13.431 30-30v-30c0 16.569-13.431 30-30 30z" fill="#cad8eb"/><circle cx="176.5" cy="282.5" fill="#9ce3bf" r="70"/><g fill="#87bcc4"><path d="m176.5 322.5c-33.509 0-61.503-23.551-68.372-55-1.056 4.834-1.628 9.849-1.628 15 0 38.66 31.34 70 70 70s70-31.34 70-70c0-5.151-.572-10.166-1.628-15-6.869 31.449-34.863 55-68.372 55z"/><circle cx="61.5" cy="282.5" r="15"/><circle cx="95.183" cy="363.817" r="15"/><circle cx="176.5" cy="397.5" r="15"/><circle cx="257.817" cy="363.817" r="15"/><circle cx="291.5" cy="282.5" r="15"/><circle cx="257.817" cy="201.183" r="15"/><circle cx="176.5" cy="167.5" r="15"/><circle cx="95.183" cy="201.183" r="15"/><circle cx="163.5" cy="266.5" r="15"/></g></g><g fill="#fff"><path d="m37.5 448h15v15h-15z"/><path d="m428.5 250h15v15h-15z"/><path d="m428.5 360h15v15h-15z"/><path d="m118.5 67h-15v-15h15zm-30 0h-15v-15h15zm-30 0h-15v-15h15z"/><path d="m179 312.5h15v15h-15z"/><path d="m198 247.5h15v15h-15z"/></g><g id="Outline_31_"><path d="m15 101h93.5v-15h-93.5v-53h344.357v-15h-359.357v315.643h15z"/><path d="m374.357 18v15h121.643v53h-372.5v15h372.5v125.357h15v-208.357z"/><path d="m496 455.5c0 12.406-10.093 22.5-22.5 22.5h-436c-12.407 0-22.5-10.094-22.5-22.5v-106.857h-15v106.857c0 20.678 16.822 37.5 37.5 37.5h436c20.678 0 37.5-16.822 37.5-37.5v-214.143h-15z"/><path d="m97.5 448h376v15h-376z"/><path d="m67.5 448h15v15h-15z"/><path d="m333.5 190h140v15h-140z"/><path d="m333.5 220h140v15h-140z"/><path d="m333.5 250h80v15h-80z"/><path d="m333.5 300h140v15h-140z"/><path d="m333.5 330h140v15h-140z"/><path d="m333.5 360h80v15h-80z"/><path d="m160.5 52h300v15h-300z"/><path d="m163.5 289c6.01 0 11.66-2.341 15.91-6.59 0 0 0 0 0-.001 4.249-4.249 6.59-9.899 6.59-15.909s-2.341-11.66-6.59-15.909c-4.25-4.25-9.9-6.591-15.91-6.591s-11.66 2.341-15.91 6.59c-4.25 4.25-6.59 9.9-6.59 15.91s2.341 11.66 6.59 15.909c4.25 4.25 9.9 6.591 15.91 6.591zm-5.303-27.804c1.417-1.416 3.3-2.196 5.303-2.196s3.886.78 5.303 2.197c1.417 1.416 2.197 3.3 2.197 5.303s-.78 3.887-2.197 5.303v.001c-1.417 1.416-3.3 2.196-5.303 2.196s-3.886-.78-5.303-2.197c-1.417-1.416-2.197-3.3-2.197-5.303s.78-3.887 2.197-5.304z"/><path d="m111.093 185.273c-4.25-4.25-9.9-6.591-15.91-6.591s-11.661 2.341-15.91 6.59c-4.25 4.25-6.59 9.9-6.59 15.91s2.341 11.66 6.59 15.909c4.25 4.25 9.9 6.591 15.911 6.591 3.412 0 6.696-.779 9.686-2.208l11.809 11.81c-9.543 11.579-15.789 25.967-17.308 41.716h-16.661c-3.096-8.729-11.432-15-21.21-15-12.407 0-22.5 10.094-22.5 22.5s10.093 22.5 22.5 22.5c9.777 0 18.114-6.271 21.21-15h16.659c1.52 15.749 7.765 30.137 17.308 41.716l-11.809 11.81c-2.989-1.43-6.274-2.208-9.686-2.208-6.01 0-11.66 2.341-15.91 6.59v.001c-4.249 4.249-6.59 9.899-6.59 15.909s2.341 11.66 6.59 15.909c4.25 4.25 9.9 6.591 15.911 6.591 6.01 0 11.66-2.341 15.91-6.59 6.912-6.912 8.353-17.229 4.375-25.589l11.816-11.816c11.579 9.543 25.967 15.789 41.716 17.309v16.659c-8.729 3.096-15 11.433-15 21.21 0 12.406 10.093 22.5 22.5 22.5s22.5-10.094 22.5-22.5c0-9.777-6.271-18.114-15-21.21v-16.659c15.749-1.52 30.137-7.766 41.716-17.309l11.816 11.816c-3.978 8.361-2.537 18.677 4.374 25.588 4.25 4.25 9.9 6.591 15.91 6.591s11.661-2.341 15.91-6.59c4.25-4.25 6.59-9.9 6.59-15.91s-2.341-11.66-6.59-15.909c-4.25-4.25-9.9-6.591-15.911-6.591-3.412 0-6.696.779-9.686 2.208l-11.809-11.81c9.543-11.579 15.789-25.967 17.308-41.716h16.659c3.096 8.729 11.432 15 21.21 15 12.407 0 22.5-10.094 22.5-22.5s-10.09-22.5-22.497-22.5c-9.777 0-18.114 6.271-21.21 15h-16.659c-1.52-15.749-7.765-30.137-17.308-41.716l11.809-11.81c2.989 1.43 6.274 2.208 9.686 2.208 6.01 0 11.66-2.341 15.91-6.59 0 0 0 0 0-.001 4.249-4.249 6.59-9.899 6.59-15.909s-2.341-11.66-6.59-15.909c-4.25-4.25-9.9-6.591-15.911-6.591-6.01 0-11.66 2.341-15.91 6.59-6.912 6.912-8.353 17.229-4.375 25.589l-11.816 11.816c-11.579-9.543-25.967-15.789-41.716-17.309v-16.658c8.729-3.096 15-11.433 15-21.21 0-12.406-10.093-22.5-22.5-22.5s-22.5 10.094-22.5 22.5c0 9.777 6.271 18.114 15 21.21v16.659c-15.749 1.52-30.137 7.766-41.716 17.309l-11.816-11.816c3.978-8.361 2.536-18.677-4.375-25.589zm-10.607 21.213c-1.417 1.416-3.3 2.196-5.303 2.196s-3.887-.78-5.304-2.197c-1.417-1.416-2.197-3.3-2.197-5.303s.78-3.887 2.197-5.304c1.417-1.416 3.3-2.196 5.303-2.196s3.886.78 5.303 2.196v.001c2.926 2.925 2.926 7.683.001 10.607zm-38.986 83.514c-4.136 0-7.5-3.364-7.5-7.5s3.364-7.5 7.5-7.5 7.5 3.364 7.5 7.5-3.364 7.5-7.5 7.5zm38.986 79.121c-1.417 1.416-3.3 2.196-5.303 2.196s-3.887-.78-5.304-2.197c-1.417-1.416-2.197-3.3-2.197-5.303s.78-3.887 2.197-5.303v-.001c1.417-1.416 3.3-2.196 5.303-2.196s3.886.78 5.303 2.197c2.926 2.924 2.926 7.682.001 10.607zm152.028-10.607c1.417-1.416 3.3-2.196 5.303-2.196s3.887.78 5.304 2.197c1.417 1.416 2.197 3.3 2.197 5.303s-.78 3.887-2.197 5.304c-1.417 1.416-3.3 2.196-5.303 2.196s-3.886-.78-5.303-2.196v-.001c-2.926-2.925-2.926-7.683-.001-10.607zm38.986-83.514c4.136 0 7.5 3.364 7.5 7.5s-3.364 7.5-7.5 7.5-7.5-3.364-7.5-7.5 3.364-7.5 7.5-7.5zm-38.986-79.121c1.417-1.416 3.3-2.196 5.303-2.196s3.887.78 5.304 2.197c1.417 1.416 2.197 3.3 2.197 5.303s-.78 3.887-2.197 5.303v.001c-1.417 1.416-3.3 2.196-5.303 2.196s-3.886-.78-5.303-2.197c-2.926-2.924-2.926-7.682-.001-10.607zm-76.014 209.121c-4.136 0-7.5-3.364-7.5-7.5s3.364-7.5 7.5-7.5 7.5 3.364 7.5 7.5-3.364 7.5-7.5 7.5zm0-245c4.136 0 7.5 3.364 7.5 7.5s-3.364 7.5-7.5 7.5-7.5-3.364-7.5-7.5 3.364-7.5 7.5-7.5zm0 60c34.462 0 62.5 28.037 62.5 62.5s-28.038 62.5-62.5 62.5-62.5-28.037-62.5-62.5 28.038-62.5 62.5-62.5z"/><path d="m143 301.5h15v15h-15z"/><path d="m205 281.5h15v15h-15z"/></g></g></svg>