<svg id="Capa_1" enable-background="new 0 0 511 511" height="512" viewBox="0 0 511 511" width="512" xmlns="http://www.w3.org/2000/svg"><g><g id="Filled_7_"><path d="m298.999 139.317c-11.904-10.821-27.412-16.817-43.499-16.817-16.086 0-31.595 5.996-43.498 16.817-16.301 14.819-36.574 24.585-58.339 27.992-34.265 5.363-58.163 11.191-58.163 11.191v190s82 20 160 20 160-20 160-20v-190s-23.898-5.828-58.163-11.191c-21.764-3.407-42.038-13.173-58.338-27.992z" fill="#9ce3bf"/><path d="m95.5 338.5v30s82 20 160 20 160-20 160-20v-30s-82 20-160 20-160-20-160-20z" fill="#87bcc4"/></g><g fill="#fff"><path d="m133 347h-15v-15h15zm0-33h-15v-15h15zm0-33h-15v-15h15zm0-33h-15v-15h15zm0-33h-15v-15h15z"/><path d="m393 347h-15v-15h15zm0-33h-15v-15h15zm0-33h-15v-15h15zm0-33h-15v-15h15zm0-33h-15v-15h15z"/><path d="m335.5 331h15v15h-15z"/></g><g id="Outline_7_"><path d="m473.544 152.898c-4.108 0-8.195.683-12.145 2.03l-46.274 15.775c-5.9-1.375-23.428-5.304-47.573-9.339l-2.473 14.795c19.641 3.282 35.061 6.552 42.92 8.309v81.74h15v-82.341l43.24-14.741c2.389-.814 4.846-1.228 7.304-1.228 12.383 0 22.456 10.104 22.456 22.524v166.154c0 12.42-10.073 22.524-22.455 22.524-2.458 0-4.916-.413-7.306-1.228l-43.238-14.739v-81.925h-15v81.32c-19.841 4.42-87.996 18.472-152.5 18.472-20.543 0-43.299-1.419-67.635-4.217l-1.714 14.902c24.903 2.863 48.236 4.315 69.349 4.315 70.992 0 146.075-16.575 159.619-19.706l46.281 15.778c3.951 1.347 8.038 2.03 12.146 2.03 20.652 0 37.455-16.833 37.455-37.524v-166.155c-.001-20.691-16.804-37.525-37.457-37.525z"/><path d="m103 184.468c8.996-2.011 27.913-6.007 51.822-9.75 23.224-3.635 44.741-13.958 62.224-29.852 10.546-9.586 24.203-14.866 38.454-14.866 14.252 0 27.908 5.28 38.453 14.866 15.825 14.387 35.198 24.316 56.024 28.713l3.1-14.677c-18.223-3.847-35.179-12.539-49.034-25.135-13.312-12.102-30.552-18.767-48.543-18.767s-35.23 6.665-48.543 18.768c-15.307 13.915-34.137 22.951-54.454 26.131-28.737 4.499-49.996 9.259-56.628 10.805l-46.275-15.775c-11.593-3.953-23.959-2.132-33.923 4.998-9.963 7.129-15.677 18.244-15.677 30.496v166.154c0 12.251 5.714 23.367 15.677 30.497 6.504 4.655 14.032 7.046 21.701 7.046 4.078 0 8.197-.676 12.222-2.049l46.28-15.777c8.031 1.861 37.825 8.496 75.236 13.516l1.995-14.867c-32.395-4.346-58.925-9.914-70.11-12.412v-178.063zm-15 178.665-43.24 14.741c-6.958 2.372-14.376 1.279-20.354-2.999-5.978-4.277-9.406-10.947-9.406-18.298v-166.154c0-7.351 3.428-14.021 9.406-18.298 3.903-2.793 8.419-4.228 13.021-4.228 2.446 0 4.918.406 7.333 1.229l43.24 14.741z"/><path d="m255.5 160c6.77 0 13.262 2.508 18.272 7.057 7.411 6.744 15.517 12.761 24.092 17.882l7.691-12.878c-7.718-4.61-15.015-10.026-21.694-16.104-7.784-7.066-17.856-10.957-28.361-10.957-10.512 0-20.585 3.896-28.363 10.969-6.681 6.069-13.977 11.484-21.687 16.094l7.698 12.874c8.561-5.119 16.66-11.13 24.077-17.868 5.014-4.559 11.504-7.069 18.275-7.069z"/><path d="m160.5 331h160v15h-160z"/><path d="m160.5 291h190v15h-190z"/><path d="m160.5 251h190v15h-190z"/><path d="m160.5 211h190v15h-190z"/></g></g></svg>