<svg id="Capa_1" enable-background="new 0 0 512.5 512.5" height="512" viewBox="0 0 512.5 512.5" width="512" xmlns="http://www.w3.org/2000/svg"><g><g id="Filled_6_"><path d="m394.25 8.5c-60.169 0-109.2 48.56-109.982 108.547l-42.018 49.453 62.782 16.267c19.996 27.682 52.536 45.733 89.218 45.733 60.655 0 110-49.345 110-110s-49.345-110-110-110z" fill="#f88fa4"/><path d="m394.25 198.5c-36.681 0-69.221-18.051-89.218-45.733l-41.892-10.854-20.89 24.587 62.782 16.267c19.996 27.682 52.536 45.733 89.218 45.733 60.655 0 110-49.345 110-110 0-5.088-.355-10.094-1.027-15-7.339 53.583-53.406 95-108.973 95z" fill="#f05475"/><path d="m49.25 209.5h-41v80c0 16.569 13.431 30 30 30h11z" fill="#ffe4c2"/><path d="m49.25 290.5h110v222h-110z" fill="#e4e8ed"/><path d="m159.25 319.5h11c16.569 0 30-13.431 30-30v-80h-41z" fill="#ffe4c2"/><path d="m180.533 129.306-54.283-19.806h-44l-54.283 19.806c-11.84 4.32-19.717 15.579-19.717 28.183v52.011h41v81h110v-81h41v-52.011c0-12.604-7.877-23.863-19.717-28.183z" fill="#f8e868"/><path d="m368.25 504.5h-110c-11.046 0-20-8.954-20-20v-120c0-11.046 8.954-20 20-20h110c11.046 0 20 8.954 20 20v120c0 11.046-8.954 20-20 20z" fill="#c4e5f9"/><path d="m368.25 474.5h-110c-11.046 0-20-8.954-20-20v30c0 11.046 8.954 20 20 20h110c11.046 0 20-8.954 20-20v-30c0 11.046-8.954 20-20 20z" fill="#9eb6f4"/><path d="m49.25 260.5h110v30h-110z" fill="#efc17a"/><path d="m49.25 482.5h110v30h-110z" fill="#cad8eb"/><path d="m64.25 47.5v30c0 22.091 17.909 40 40 40 22.091 0 40-17.909 40-40v-6l-29-24z" fill="#ffe4c2"/><path d="m64.25 47.5h51l29 24v-24c0-22.091-17.909-40-40-40-22.091 0-40 17.909-40 40z" fill="#616161"/><path d="m8.25 209.5h41v30h-41z" fill="#f2d1a5"/><path d="m159.25 209.5h41v30h-41z" fill="#f2d1a5"/><circle cx="394.25" cy="118.5" fill="#9ce3bf" r="50"/><path d="m394.25 138.5c-22.346 0-41.312-14.736-47.698-35-1.493 4.738-2.302 9.776-2.302 15 0 27.57 22.43 50 50 50s50-22.43 50-50c0-5.224-.809-10.262-2.302-15-6.386 20.264-25.352 35-47.698 35z" fill="#87bcc4"/></g><g fill="#fff"><path d="m85.25 253h15v15h-15z"/><path d="m390.75 91.5h15v15h-15z"/><path d="m365.75 112h15v15h-15z"/><path d="m405.75 121.5h15v15h-15z"/><path d="m340.75 459.5h15v15h-15z"/><path d="m305.75 459.5h15v15h-15z"/><path d="m270.75 459.5h15v15h-15z"/></g><g id="Outline_6_"><path d="m394.25 1c-31.067 0-60.378 12.055-82.532 33.943-21.48 21.223-33.804 49.28-34.881 79.268l-48.047 56.549 71.794 18.603c22.189 29.255 56.996 46.637 93.666 46.637 64.79 0 117.5-52.71 117.5-117.5s-52.71-117.5-117.5-117.5zm0 220c-32.778 0-63.858-15.935-83.138-42.625l-1.583-2.191-53.818-13.944 36.022-42.396.035-2.701c.727-55.77 46.7-101.143 102.482-101.143 56.519 0 102.5 45.981 102.5 102.5s-45.981 102.5-102.5 102.5z"/><path d="m183.103 122.26-3.017-1.101-5.141 14.092 3.017 1.101c8.845 3.227 14.788 11.721 14.788 21.137v44.511h-26v-29.5h-15v50.5h-20.5v15h20.5v15h-36.5v15h36.5v15h-95v-110.5h-15v29.5h-26v-44.511c0-9.416 5.943-17.91 14.788-21.137l49.444-18.041c7.107 4.243 15.406 6.689 24.268 6.689s17.161-2.446 24.268-6.689l32.336 11.799 5.142-14.091-24.593-8.973c6.468-8.117 10.348-18.384 10.348-29.545v-30c0-26.191-21.309-47.5-47.5-47.5s-47.5 21.309-47.5 47.5v30c0 11.161 3.88 21.428 10.348 29.545l-41.703 15.214c-14.741 5.379-24.646 19.536-24.646 35.229v85.582h15v-26.071h26v95h-3.5c-12.407 0-22.5-10.093-22.5-22.5v-31.429h-15v31.429c0 20.678 16.822 37.5 37.5 37.5h3.5v105.5h15v-134.5h95v64.5h15v-35.5h3.5c20.678 0 37.5-16.822 37.5-37.5v-132.011c0-15.693-9.905-29.85-24.647-35.229zm-78.853-107.26c17.92 0 32.5 14.58 32.5 32.5v8.058l-18.799-15.558h-45.318c3.396-14.315 16.278-25 31.617-25zm-32.5 40h40.799l24.201 20.028v2.472c0 17.92-14.58 32.5-32.5 32.5s-32.5-14.58-32.5-32.5zm121 234.5c0 12.407-10.093 22.5-22.5 22.5h-3.5v-95h26z"/><path d="m41.75 447.5h15v65h-15z"/><path d="m96.75 342.5h15v170h-15z"/><path d="m151.75 377.5h15v135h-15z"/><path d="m380.75 484.5c0 6.893-5.607 12.5-12.5 12.5h-110c-6.893 0-12.5-5.607-12.5-12.5v-64.286h-15v64.286c0 15.164 12.336 27.5 27.5 27.5h110c15.164 0 27.5-12.336 27.5-27.5v-88.571h-15z"/><path d="m368.25 337h-27.5v-75h17.5v-15h-90v15h17.5v75h-27.5c-15.164 0-27.5 12.336-27.5 27.5v40.714h15v-40.714c0-6.893 5.607-12.5 12.5-12.5h110c6.893 0 12.5 5.607 12.5 12.5v16.429h15v-16.429c0-15.164-12.336-27.5-27.5-27.5zm-42.5 0h-25v-75h25z"/><path d="m340.75 374.5h15v70h-15z"/><path d="m305.75 374.5h15v70h-15z"/><path d="m270.75 374.5h15v70h-15z"/><path d="m451.245 111c-1.342-10.251-5.388-19.658-11.406-27.483l16.283-16.282-10.606-10.606-16.283 16.282c-7.824-6.018-17.232-10.064-27.483-11.406v-23.005h-15v23.005c-10.251 1.342-19.658 5.388-27.483 11.406l-16.283-16.282-10.606 10.606 16.283 16.282c-6.018 7.824-10.064 17.232-11.406 27.483h-23.005v15h23.005c1.342 10.251 5.388 19.658 11.406 27.483l-16.283 16.282 10.606 10.606 16.283-16.282c7.824 6.018 17.232 10.064 27.483 11.406v23.005h15v-23.005c10.251-1.342 19.658-5.388 27.483-11.406l16.283 16.282 10.606-10.606-16.283-16.282c6.018-7.824 10.064-17.232 11.406-27.483h23.005v-15zm-56.995 50c-23.435 0-42.5-19.065-42.5-42.5s19.065-42.5 42.5-42.5 42.5 19.065 42.5 42.5-19.065 42.5-42.5 42.5z"/></g></g></svg>