<svg id="Capa_1" enable-background="new 0 0 512 512" height="512" viewBox="0 0 512 512" width="512" xmlns="http://www.w3.org/2000/svg"><g><g id="Filled_17_"><path d="m512 468.974c-42.668 0-42.668 20-85.337 20s-42.668-20-85.337-20c-42.667 0-42.667 20-85.333 20-42.665 0-42.665-20-85.331-20s-42.666 20-85.332 20c-42.665 0-42.665-20-85.331-20v-75h512v75z" fill="#ffe4c2"/><path d="m341.326 438.974c-42.667 0-42.667 20-85.333 20-42.665 0-42.665-20-85.331-20s-42.666 20-85.332 20c-42.665 0-42.665-20-85.331-20v30c42.665 0 42.665 20 85.331 20s42.666-20 85.332-20c42.665 0 42.665 20 85.331 20 42.667 0 42.667-20 85.333-20 42.669 0 42.669 20 85.337 20s42.668-20 85.337-20v-30c-42.668 0-42.668 20-85.337 20s-42.668-20-85.337-20z" fill="#f2d1a5"/><path d="m290.137 284.373h40v40h-40z" fill="#e4e8ed" transform="matrix(.342 -.94 .94 .342 -81.953 491.704)"/><path d="m338.541 71.434h80v90h-80z" fill="#e4e8ed" transform="matrix(.342 -.94 .94 .342 139.66 432.323)"/><path d="m322.574 138.631-41.042 112.763c-3.778 10.38 1.574 21.856 11.953 25.634l46.985 17.101c10.38 3.778 21.856-1.574 25.634-11.953l41.042-112.763z" fill="#f8e868"/><path d="m350.73 265.938-46.985-17.101c-10.38-3.778-15.731-15.255-11.953-25.634l-10.261 28.191c-3.778 10.38 1.574 21.856 11.953 25.634l46.985 17.101c10.38 3.778 21.856-1.574 25.634-11.953l10.261-28.191c-3.778 10.38-15.254 15.731-25.634 11.953z" fill="#efc17a"/><path d="m373.801 18.243h30v140h-30z" fill="#c4e5f9" transform="matrix(.94 .342 -.342 .94 53.629 -127.656)"/><path d="m0 363.974h512v30h-512z" fill="#ffe4c2"/><path d="m512 468.974c-42.668 0-42.668 20-85.337 20s-42.668-20-85.337-20c-42.667 0-42.667 20-85.333 20-42.665 0-42.665-20-85.331-20s-42.666 20-85.332 20c-42.665 0-42.665-20-85.331-20v43h512v-43z" fill="#f88fa4"/></g><g fill="#fff"><path d="m13.5 496.974h15v15h-15z"/><path d="m333.826 496.974h15v15h-15z"/><path d="m201.5 416.974h15v15h-15z"/><path d="m389.5 416.974h15v15h-15z"/><path d="m419.163 446.974h15v15h-15z"/><path d="m77.831 446.974h15v15h-15z"/><path d="m338.5 246.974h15v15h-15z"/><path d="m332.5 174.974h15v15h-15z"/></g><g id="Outline_17_"><path d="m0 386.474h97v15h-97z"/><path d="m295.476 472.183c-10.192 4.778-19.82 9.291-39.482 9.291s-29.29-4.513-39.482-9.291c-4.99-2.339-10.149-4.757-16.481-6.712l-4.426 14.332c5.336 1.647 9.807 3.744 14.541 5.962 11.232 5.265 22.846 10.709 45.849 10.709 23.004 0 34.617-5.444 45.85-10.709 10.192-4.778 19.82-9.291 39.483-9.291 17.698 0 26.994 3.568 35.718 7.542l6.219-13.65c-9.442-4.302-21.249-8.892-41.937-8.892-23.006 0-34.62 5.444-45.852 10.709z"/><path d="m426.663 481.474c-14.976 0-23.623-2.6-30.106-5.143l-5.477 13.965c7.334 2.876 18.006 6.178 35.583 6.178 23.005 0 34.619-5.444 45.852-10.709 10.193-4.778 19.821-9.291 39.485-9.291v-15c-23.005 0-34.62 5.444-45.853 10.709-10.193 4.778-19.821 9.291-39.484 9.291z"/><path d="m124.813 472.183c-10.193 4.778-19.821 9.291-39.483 9.291s-29.289-4.513-39.481-9.291c-11.232-5.265-22.846-10.709-45.849-10.709v15c19.662 0 29.29 4.513 39.482 9.291 11.231 5.265 22.845 10.709 45.848 10.709s34.618-5.444 45.849-10.709c10.193-4.778 19.821-9.291 39.483-9.291 4.15 0 8.078.206 11.673.61l1.68-14.905c-4.151-.468-8.644-.705-13.353-.705-23.003 0-34.617 5.444-45.849 10.709z"/><path d="m0 356.474h180v15h-180z"/><path d="m390 356.474h122v15h-122z"/><path d="m293.695 371.474h81.305v-15h-75.846l8.624-23.695 18.794 6.84 13.721-37.697c2.291.607 4.64.918 7.015.918 11.518 0 21.903-7.274 25.844-18.1l65.839-180.89 16.444 5.985 5.131-14.096-44.636-16.245 15.391-42.286 21.143 7.696 5.131-14.096-84.573-30.782-5.131 14.096 21.143 7.695-15.391 42.286-44.635-16.246-5.131 14.096 16.445 5.985-41.161 113.09 14.096 5.13 13.8-37.915 70.476 25.652-38.477 105.715c-1.791 4.922-6.513 8.23-11.748 8.23-1.452 0-2.889-.255-4.272-.759l-46.986-17.101c-4.923-1.792-8.23-6.513-8.23-11.748 0-1.452.256-2.889.76-4.274l19.547-53.705-14.096-5.13-19.547 53.704c-1.104 3.033-1.664 6.198-1.664 9.405 0 10.677 6.257 20.371 15.794 24.87l-13.725 37.706 18.794 6.84-10.491 28.825h-88.192v15h82.732l-5.46 15h-160.272v15h154.813l-6.565 18.037 14.096 5.13 8.432-23.167h229.224v-15h-223.765zm109.435-344.526 14.095 5.13-15.391 42.286-14.095-5.13zm-70.943 107.2 22.231-61.079 14.095 5.13-22.231 61.079zm28.191 10.261 22.231-61.079 14.095 5.13-22.231 61.079zm28.19 10.26 22.231-61.079 14.096 5.13-22.231 61.08zm-85.902 133.683 23.492 8.55-8.55 23.492-23.492-8.55z"/><path d="m483.5 496.974h15v15h-15z"/><path d="m163.163 496.974h15v15h-15z"/><path d="m483.5 416.974h15v15h-15z"/><path d="m13.5 416.974h15v15h-15z"/><path d="m107.5 416.974h15v15h-15z"/><path d="m295.5 416.974h15v15h-15z"/><path d="m248.493 446.974h15v15h-15z"/><path d="m318.5 216.974h15v15h-15z"/><path d="m352.5 204.974h15v15h-15z"/><path d="m349.703 324.383h15v15h-15z" transform="matrix(.96 -.279 .279 .96 -78.36 112.737)"/><path d="m378.125 313.292h34.56v15h-34.56z" transform="matrix(.96 -.279 .279 .96 -73.761 122.965)"/><path d="m227.253 325.541h15v15h-15z" transform="matrix(.258 -.966 .966 .258 -147.528 474.061)"/><path d="m190.007 307.06h15v32.097h-15z" transform="matrix(.258 -.966 .966 .258 -165.582 430.695)"/><path d="m247.255 298.712h15v15h-15z" transform="matrix(.902 -.433 .433 .902 -107.422 140.399)"/><path d="m232.009 261.72h15v25.462h-15z" transform="matrix(.902 -.433 .433 .902 -95.178 130.671)"/></g></g></svg>