<svg id="Capa_1" enable-background="new 0 0 511.5 511.5" height="512" viewBox="0 0 511.5 511.5" width="512" xmlns="http://www.w3.org/2000/svg"><g><g id="Filled_10_"><path d="m319.371 330h-210c-33.137 0-60 26.863-60 60v84c0 16.569 13.431 30 30 30h270c16.569 0 30-13.431 30-30v-84c0-33.137-26.863-60-60-60z" fill="#c4e5f9"/><path d="m349.371 474h-270c-16.569 0-30-13.431-30-30v30c0 16.569 13.431 30 30 30h270c16.569 0 30-13.431 30-30v-30c0 16.569-13.432 30-30 30z" fill="#9eb6f4"/><path d="m255.371 293h-82v37c0 22.644 18.356 41 41 41s41-18.356 41-41z" fill="#ffe4c2"/><path d="m309.371 434h-30v70h30c19.33 0 35-15.67 35-35 0-19.33-15.67-35-35-35z" fill="#ffe4c2"/><path d="m309.371 474h-30v30h30c19.33 0 35-15.67 35-35 0-5.369-1.212-10.453-3.373-15-5.618 11.824-17.666 20-31.627 20z" fill="#f2d1a5"/><path d="m281.547 103.045c-11.052-10.743-24.823-18.855-40.223-23.278l-10.685 2.715-6.148-5.958c-3.324-.346-6.704-.524-10.12-.524-52.469 0-95 41.34-95 92.341v13.318c0 51 42.531 92.341 95 92.341 3.416 0 6.796-.178 10.121-.524 2.932-.293 5.828-.728 8.669-1.279 18.699-3.649 35.415-12.635 48.386-25.243 17.191-16.71 27.824-39.795 27.824-65.296v-13.318c0-25.499-10.633-48.585-27.824-65.295z" fill="#616161"/><path d="m280.371 179.03v66.556c0 36.68-29.549 66.414-66 66.414-36.451 0-66-29.735-66-66.414v-53.514c8.176 2.125 17.044 2.781 26.301 2.781 29.494 0 54.962-13.557 66.916-40.853 10.081 12.312 23.537 21.244 38.783 25.03z" fill="#ffe4c2"/><path d="m444.371 243.468v-151.468c0-16.569-13.431-30-30-30-16.569 0-30 13.431-30 30v151.468c-9.886 8.851-15.841 22.003-14.903 36.519 1.514 23.443 21.304 41.958 44.796 42.013 24.902.058 45.108-20.111 45.108-45-.001-13.325-5.798-25.293-15.001-33.532z" fill="#f88fa4"/><path d="m414.263 292c-19.306-.045-36.102-12.563-42.318-30.032-1.979 5.581-2.888 11.669-2.478 18.019 1.514 23.443 21.304 41.958 44.796 42.013 24.902.058 45.107-20.111 45.107-45 0-5.259-.915-10.301-2.574-14.991-6.192 17.503-22.898 30.037-42.533 29.991z" fill="#f05475"/><g fill="#fff"><circle cx="414.371" cy="277" r="16"/><path d="m302.371 353.5h15v15h-15z"/><path d="m104.371 466.5h15v15h-15z"/></g><path d="m294.371 195h-160c-11.046 0-20-8.954-20-20v-40c0-11.046 8.954-20 20-20h160c11.046 0 20 8.954 20 20v40c0 11.046-8.954 20-20 20z" fill="#c4e5f9"/><path d="m294.371 165h-160c-11.046 0-20-8.954-20-20v30c0 11.046 8.954 20 20 20h160c11.046 0 20-8.954 20-20v-30c0 11.046-8.954 20-20 20z" fill="#9eb6f4"/></g><g fill="#fff"><path d="m302.371 353.5h15v15h-15z"/><path d="m104.371 466.5h15v15h-15z"/></g><g id="Outline_10_"><path d="m371.871 474c0 12.407-10.093 22.5-22.5 22.5h-7.634c6.313-7.418 10.134-17.019 10.134-27.5 0-19.449-13.137-35.877-31-40.906v-27.094h-15v25.5h-73.072v15h39.072v55h-95.928v15h173.428c20.678 0 37.5-16.822 37.5-37.5v-31.286h-15zm-62.5 22.5h-22.5v-55h22.5c15.164 0 27.5 12.336 27.5 27.5s-12.337 27.5-27.5 27.5z"/><path d="m319.371 322.5h-56.5v-21.445c14.141-12.519 23.467-30.397 24.812-50.451 15.593-15.977 25.573-36.632 28.363-58.709 3.645-4.666 5.826-10.529 5.826-16.895v-40c0-14.727-11.636-26.784-26.197-27.467-2.754-3.486-5.732-6.8-8.897-9.873-12.094-11.745-27.097-20.423-43.386-25.099l-1.948-.559-8.587 2.179-5.012-4.857-2.588-.265c-3.624-.371-7.286-.559-10.884-.559-31.84 0-61.941 14.526-81.304 39.033-14.56.683-26.196 12.741-26.196 27.467v40c0 6.366 2.18 12.229 5.826 16.895 2.789 22.077 12.77 42.731 28.363 58.709 1.345 20.054 10.671 37.932 24.812 50.451v21.445h-56.5c-37.22 0-67.5 30.28-67.5 67.5v7.714h15v-7.714c0-28.949 23.551-52.5 52.5-52.5h57.082c3.235 20.749 19.669 37.183 40.418 40.418v32.082h15v-32.082c20.749-3.235 37.183-19.669 40.418-40.418h57.082c14.775 0 28.134 6.144 37.683 16h-24.683v15h34.877c2.11 4.679 3.551 9.718 4.206 15h-23.083v15h23.5v29.214h15v-37.714c-.003-37.22-30.283-67.5-67.503-67.5zm-31.5-96.056v-23.944h6.5c1.491 0 2.953-.123 4.38-.353-2.365 8.604-6.039 16.8-10.88 24.297zm-147 0c-4.841-7.497-8.515-15.692-10.88-24.297 1.427.229 2.89.353 4.38.353h6.5zm-6.5-38.944c-6.893 0-12.5-5.607-12.5-12.5v-40c0-6.893 5.607-12.5 12.5-12.5h97.143v-15h-78.115c16.204-15.23 38.054-24 60.973-24 2.25 0 4.531.086 6.81.256l7.247 7.023 12.73-3.23c12.759 3.977 24.515 10.842 34.192 19.951h-28.836v15h47.857c6.893 0 12.5 5.607 12.5 12.5v40c0 6.893-5.607 12.5-12.5 12.5zm113.5 142.5c0 18.472-15.028 33.5-33.5 33.5s-33.5-15.028-33.5-33.5v-18.658c10.054 5.201 21.437 8.158 33.5 8.158s23.446-2.956 33.5-8.158zm-33.5-25.5c-32.257 0-58.5-26.429-58.5-58.915v-43.085h117v43.085c0 32.486-26.243 58.915-58.5 58.915z"/><path d="m206.871 0h15v15h-15z"/><path d="m206.871 30h15v15h-15z"/><path d="m161.871 15h15v15h-15z"/><path d="m161.871 45h15v15h-15z"/><path d="m251.871 15h15v15h-15z"/><path d="m251.871 45h15v15h-15z"/><path d="m107.871 401v40.5h109.928v-15h-94.928v-25.5z"/><path d="m58.161 481.5h31.21v-15h-32.5v-15h18.5v-15h-18.5v-23.786h-15v61.286c0 20.678 16.822 37.5 37.5 37.5h81.572v-15h-81.572c-9.778 0-18.114-6.271-21.21-15z"/><path d="m191.998 275.907 8.746 12.187c3.135-2.25 8.229-3.593 13.627-3.593s10.492 1.343 13.627 3.593l8.746-12.187c-5.673-4.072-13.828-6.407-22.373-6.407s-16.7 2.335-22.373 6.407z"/><path d="m451.871 92c0-20.678-16.822-37.5-37.5-37.5s-37.5 16.822-37.5 37.5v13.535h15v-13.535c0-12.407 10.093-22.5 22.5-22.5s22.5 10.093 22.5 22.5v8.5h-18.5v15h18.5v131.319l2.498 2.236c7.945 7.113 12.502 17.299 12.502 27.945 0 20.678-16.822 37.5-37.5 37.5h-.09c-19.667-.046-36.064-15.419-37.329-34.999-.054-.83-.081-1.671-.081-2.502 0-10.645 4.557-20.831 12.503-27.944l2.497-2.236v-126.284h-15v119.733c-9.572 9.779-15 22.98-15 36.731 0 1.153.038 2.321.112 3.47 1.772 27.429 24.729 48.965 52.28 49.03h.107c28.949 0 52.5-23.551 52.5-52.5 0-13.752-5.428-26.953-15-36.732v-148.267z"/><path d="m406.871 131v123.734c-9.29 3.138-16 11.93-16 22.266 0 12.958 10.542 23.5 23.5 23.5s23.5-10.542 23.5-23.5c0-10.336-6.71-19.128-16-22.266v-123.734zm16 146c0 4.687-3.813 8.5-8.5 8.5s-8.5-3.813-8.5-8.5 3.813-8.5 8.5-8.5 8.5 3.813 8.5 8.5z"/><path d="m206.674 241.697-9.697-9.697 9.697-9.697-10.606-10.606-9.697 9.697-9.697-9.697-10.606 10.606 9.696 9.697-9.696 9.697 10.606 10.606 9.697-9.697 9.697 9.697z"/><path d="m252.068 211.697-9.697 9.697-9.697-9.697-10.606 10.606 9.696 9.697-9.696 9.697 10.606 10.606 9.697-9.697 9.697 9.697 10.606-10.606-9.697-9.697 9.697-9.697z"/><path d="m406.871 0h15v35.5h-15z"/><path d="m440.618 24.044h30.022v15h-30.022z" transform="matrix(.5 -.866 .866 .5 200.495 410.357)"/><path d="m365.613 16.532h15v30.022h-15z" transform="matrix(.866 -.5 .5 .866 34.214 190.779)"/><path d="m143.158 147.5h42.426v15h-42.426z" transform="matrix(.707 -.707 .707 .707 -61.458 161.626)"/><path d="m193.158 147.5h42.426v15h-42.426z" transform="matrix(.707 -.707 .707 .707 -46.814 196.982)"/><path d="m243.158 147.5h42.426v15h-42.426z" transform="matrix(.707 -.707 .707 .707 -32.169 232.337)"/></g></g></svg>