<svg id="Capa_1" enable-background="new 0 0 511.47 511.47" height="512" viewBox="0 0 511.47 511.47" width="512" xmlns="http://www.w3.org/2000/svg"><g><g id="Filled_11_"><path d="m331.735 511.47v-81.74h13.156c30.195 0 55.383-23.076 58.02-53.156l5.893-57.105 36.773-8.286c12.093-2.725 18.569-15.93 13.32-27.16l-44.269-89.554c0-109-61.894-187-181.947-187-100.486 0-181.947 76.887-181.947 171.733v30.946c0 52.686 18.183 103.939 51.798 146.001l45.202 57.056v98.266h184.001z" fill="#ffe4c2"/><path d="m307.735 399.73h39c25.341 0 49.246-16.257 57.839-39.263l-1.662 16.107c-2.637 30.08-27.825 53.156-58.02 53.156h-37.156v-30z" fill="#f2d1a5"/><path d="m147.735 481.47h184v30h-184z" fill="#f2d1a5"/><path d="m269.017 424.188c-14.244 5.527-30.427 1.19-40-10.718-2.336 15.099-14.183 26.946-29.282 29.282 11.908 9.573 16.245 25.756 10.718 40 14.244-5.527 30.427-1.19 40 10.718 2.336-15.099 14.183-26.946 29.282-29.282-11.909-9.573-16.245-25.756-10.718-40z" fill="#f88fa4"/><circle cx="349.735" cy="200.47" fill="#fff" r="20"/></g><g fill="#fff"><path d="m124.735 112.97h15v15h-15z"/><path d="m232.235 364.47h15v15h-15z"/></g><g id="Outline_11_"><path d="m58.235 210.148v-30.946c0-7.19.505-14.275 1.464-21.232h32.036v-15h-29.213c1.222-5.091 2.696-10.095 4.41-15h42.803v-15h-36.674c25.654-54.644 82.067-93.945 149.075-97.705l-.841-14.977c-99.847 5.603-178.06 84.191-178.06 178.914v30.946c0 7.57.37 15.231 1.099 22.773l14.931-1.443c-.684-7.064-1.03-14.24-1.03-21.33z"/><path d="m61.133 245.863-14.804 2.417c6.651 40.741 24.061 79.661 50.325 112.525l43.581 55.009v95.655h15v-100.876l-46.843-59.127c-24.68-30.882-41.022-67.399-47.259-105.603z"/><path d="m386.655 99.348 13.394-6.755c-14.469-28.69-35.484-51.23-62.461-66.995-28.093-16.415-61.998-25.028-100.773-25.598l-.221 14.998c70.868 1.043 122.758 30.21 150.061 84.35z"/><path d="m465.692 280.848-43.569-88.141c-.188-31.603-5.45-60.487-15.646-85.872l-13.919 5.591c9.668 24.071 14.57 51.675 14.57 82.044v1.752l45.005 91.042c.731 1.587 1.102 3.258 1.102 4.967 0 5.616-3.827 10.4-9.307 11.635l-42.031 9.471-6.446 62.466-.011.115c-2.315 26.401-24.046 46.311-50.549 46.311h-37.156v15h16.5v74.239h15v-74.238h5.656c16.484 0 32.256-6.133 44.411-17.268 12.139-11.122 19.622-26.274 21.075-42.671l5.334-51.69 31.514-7.102c12.37-2.787 21.009-13.589 21.009-26.268.001-3.943-.855-7.773-2.542-11.383z"/><path d="m276.009 426.9 6.153-15.858-15.858 6.153c-11.249 4.366-23.883.979-31.441-8.424l-10.657-13.258-2.601 16.81c-1.845 11.922-11.095 21.172-23.017 23.017l-16.81 2.601 13.258 10.657c9.403 7.558 12.789 20.194 8.424 31.441l-6.153 15.858 15.858-6.153c11.247-4.365 23.883-.979 31.441 8.424l10.657 13.258 2.601-16.81c1.845-11.922 11.095-21.172 23.017-23.017l16.81-2.601-13.258-10.657c-9.402-7.557-12.788-20.193-8.424-31.441zm-29.143 53.185c-7.011-4.729-15.25-7.234-23.662-7.234-.983 0-1.968.034-2.954.103.659-9.422-1.85-18.785-7.131-26.615 8.489-4.141 15.343-10.995 19.484-19.484 7.831 5.282 17.195 7.791 26.615 7.131-.659 9.422 1.85 18.785 7.131 26.615-8.488 4.141-15.342 10.995-19.483 19.484z"/><path d="m232.235 319.47h15v30h-15z"/><path d="m284.235 342.913h30v15h-30z" transform="matrix(.5 -.866 .866 .5 -153.849 434.349)"/><path d="m272.985 375.389h15v15h-15z" transform="matrix(.5 -.866 .866 .5 -191.349 434.349)"/><path d="m172.735 335.413h15v30h-15z" transform="matrix(.866 -.5 .5 .866 -151.061 137.065)"/><path d="m191.485 375.389h15v15h-15z" transform="matrix(.866 -.5 .5 .866 -164.787 150.792)"/><path d="m297.5 141.97h72.471v15h-72.471z" transform="matrix(.883 -.469 .469 .883 -31.116 174.044)"/><path d="m349.735 227.97c15.164 0 27.5-12.336 27.5-27.5s-12.336-27.5-27.5-27.5-27.5 12.336-27.5 27.5 12.336 27.5 27.5 27.5zm0-40c6.893 0 12.5 5.607 12.5 12.5s-5.607 12.5-12.5 12.5-12.5-5.607-12.5-12.5 5.607-12.5 12.5-12.5z"/></g></g></svg>