<svg id="Capa_1" enable-background="new 0 0 511.5 511.5" height="512" viewBox="0 0 511.5 511.5" width="512" xmlns="http://www.w3.org/2000/svg"><g><g id="Filled_26_"><path d="m7.5 289.5h100v222h-100z" fill="#c4e5f9"/><path d="m7.5 481.5h100v30h-100z" fill="#9eb6f4"/><path d="m7.5 289.5h100v-132c0-27.614-22.386-50-50-50-27.614 0-50 22.386-50 50z" fill="#e4e8ed"/><path d="m7.5 259.5h100v30h-100z" fill="#cad8eb"/><path d="m67.5 195.5h40v104c0 11.046-8.954 20-20 20-11.046 0-20-8.954-20-20z" fill="#ffe4c2"/><path d="m87.5 289.5c-11.046 0-20-8.954-20-20v30c0 11.046 8.954 20 20 20s20-8.954 20-20v-30c0 11.046-8.954 20-20 20z" fill="#f2d1a5"/><path d="m65.5 107.5c22.091 0 40-17.909 40-40v-20c0-22.091-17.909-40-40-40-22.091 0-40 17.909-40 40v20c0 22.091 17.909 40 40 40z" fill="#ffe4c2"/><path d="m65.5 77.5c-20.397 0-37.216-15.27-39.678-35-.205 1.639-.322 3.305-.322 5v20c0 22.091 17.909 40 40 40 22.091 0 40-17.909 40-40v-20c0-1.695-.118-3.361-.322-5-2.462 19.73-19.281 35-39.678 35z" fill="#f2d1a5"/><path d="m341.369 35.28c-29.458 29.458-35.486 73.609-18.088 109.082l-5.954 49.31 49.31-5.954c35.473 17.398 79.624 11.371 109.082-18.088 37.04-37.04 37.04-97.31 0-134.35s-97.309-37.04-134.35 0z" fill="#f88fa4"/><path d="m475.72 139.63c-29.458 29.458-73.609 35.486-109.082 18.088l-45.634 5.51-3.676 30.444 49.31-5.954c35.473 17.398 79.624 11.371 109.082-18.088 22.34-22.34 31.184-53.128 26.575-82.175-3.032 19.114-11.875 37.475-26.575 52.175z" fill="#f05475"/><circle cx="408.5" cy="102.5" fill="#9ce3bf" r="45"/><path d="m408.5 117.5c-19.555 0-36.228-12.541-42.42-30-1.665 4.695-2.58 9.742-2.58 15 0 24.813 20.187 45 45 45s45-20.187 45-45c0-5.259-.915-10.305-2.58-15-6.192 17.458-22.865 30-42.42 30z" fill="#87bcc4"/></g><g fill="#fff"><path d="m84 423.5h-15v-15h15zm0-30h-15v-15h15z"/><path d="m389.044 85.455h15v15h-15z"/><path d="m414.044 105.455h15v15h-15z"/></g><g id="Outline_26_"><path d="m0 406.5h15v105h-15z"/><path d="m88.443 109.074c14.628-8.105 24.557-23.699 24.557-41.574v-20c0-26.191-21.309-47.5-47.5-47.5s-47.5 21.309-47.5 47.5v20c0 14.857 6.861 28.137 17.575 36.854-20.859 8.637-35.575 29.201-35.575 53.146v234h15v-94.5h45v2.5c0 15.163 12.336 27.5 27.5 27.5 4.5 0 8.747-1.093 12.5-3.018v187.518h15v-212-10-48.143h-15v48.143 10c0 6.893-5.607 12.5-12.5 12.5s-12.5-5.607-12.5-12.5v-96.5h25v23.357h15v-68.857c0-20.319-10.603-38.196-26.557-48.426zm-55.443-41.574v-20c0-17.921 14.58-32.5 32.5-32.5s32.5 14.579 32.5 32.5v20c0 17.921-14.58 32.5-32.5 32.5s-32.5-14.579-32.5-32.5zm67 120.5h-25v-27.5h-15v121.5h-45v-124.5c0-23.435 19.065-42.5 42.5-42.5s42.5 19.065 42.5 42.5z"/><path d="m39 341.5h15v170h-15z"/><path d="m408.544 15.001c23.401 0 45.375 9.085 61.872 25.582 16.498 16.5 25.584 38.473 25.584 61.873s-9.086 45.374-25.584 61.872c-6.636 6.637-14.218 12.12-22.536 16.298l6.731 13.404c9.754-4.898 18.64-11.323 26.412-19.096 19.331-19.33 29.977-45.071 29.977-72.478 0-27.406-10.646-53.146-29.977-72.479-19.33-19.33-45.07-29.976-72.479-29.976-13.009 0-25.71 2.41-37.752 7.162l5.507 13.953c10.281-4.057 21.13-6.115 32.245-6.115z"/><path d="m308.736 202.264 56.641-6.839c13.424 6.211 28.301 9.484 43.173 9.484 10.575 0 21.031-1.612 31.079-4.793l-4.526-14.301c-8.582 2.717-17.515 4.094-26.552 4.094-13.354 0-26.705-3.086-38.61-8.925l-1.996-.979-42.025 5.074 5.075-42.025-.979-1.995c-5.839-11.904-8.925-25.245-8.925-38.58 0-23.418 9.085-45.399 25.582-61.896 5.187-5.188 10.988-9.696 17.242-13.403l-7.647-12.904c-7.332 4.346-14.129 9.628-20.201 15.7-19.33 19.33-29.976 45.078-29.976 72.503 0 14.854 3.273 29.721 9.484 43.144z"/><path d="m416 173.5v-19.044c8.881-1.276 17.053-4.775 23.924-9.925l13.477 13.477 10.606-10.607-13.477-13.477c5.15-6.871 8.648-15.043 9.925-23.924h19.045v-15h-19.044c-1.276-8.881-4.774-17.053-9.925-23.924l13.477-13.476-10.606-10.607-13.477 13.477c-6.871-5.15-15.044-8.649-23.924-9.925v-19.045h-15v19.044c-8.881 1.276-17.053 4.775-23.924 9.925l-13.477-13.477-10.608 10.608 13.477 13.477c-5.15 6.871-8.648 15.043-9.925 23.924h-19.044v15h19.044c1.276 8.881 4.774 17.053 9.925 23.924l-13.477 13.475 10.606 10.607 13.477-13.477c6.871 5.15 15.044 8.649 23.924 9.925v19.045zm-45-71c0-20.678 16.822-37.5 37.5-37.5s37.5 16.822 37.5 37.5-16.822 37.5-37.5 37.5-37.5-16.822-37.5-37.5z"/><path d="m135.5 68h15v15h-15z"/><path d="m195.5 68h15v15h-15z"/><path d="m165.5 88h15v15h-15z"/><path d="m215.5 108h15v15h-15z"/><path d="m175.5 128h15v15h-15z"/><path d="m256.5 128h15v15h-15z"/><path d="m216.5 158h15v15h-15z"/><path d="m276.5 188h15v15h-15z"/><path d="m246.5 228h15v15h-15z"/><path d="m346.5 218h15v15h-15z"/><path d="m426.5 238h15v15h-15z"/><path d="m376.5 258h15v15h-15z"/><path d="m305.5 248h15v15h-15z"/><path d="m265.5 298h15v15h-15z"/><path d="m325.5 338h15v15h-15z"/><path d="m284.5 368h15v15h-15z"/><path d="m344.5 398h15v15h-15z"/><path d="m333.5 448h15v15h-15z"/><path d="m383.5 438h15v15h-15z"/><path d="m403.5 478h15v15h-15z"/><path d="m353.5 496h15v15h-15z"/><path d="m453.5 496h15v15h-15z"/><path d="m496.5 466h15v15h-15z"/><path d="m403.5 388h15v15h-15z"/><path d="m372.5 348h15v15h-15z"/><path d="m332.5 288h15v15h-15z"/><path d="m392.5 298h15v15h-15z"/><path d="m462.5 288h15v15h-15z"/><path d="m486.5 328h15v15h-15z"/><path d="m432.5 338h15v15h-15z"/><path d="m466.5 368h15v15h-15z"/><path d="m439.5 411h15v15h-15z"/><path d="m481.5 416h15v15h-15z"/><path d="m441.5 458h15v15h-15z"/><path d="m256.5 88h15v15h-15z"/></g></g></svg>