<svg id="Capa_1" enable-background="new 0 0 512 512" height="512" viewBox="0 0 512 512" width="512" xmlns="http://www.w3.org/2000/svg"><g><g id="Filled_14_"><path d="m56 448v64h400v-64c0-44.183-35.817-80-80-80h-240c-44.183 0-80 35.817-80 80z" fill="#f88fa4"/><path d="m56 482h400v30h-400z" fill="#f05475"/><path d="m206 304v64c0 27.616 22.384 50 50 50s50-22.384 50-50v-64z" fill="#ffe4c2"/><path d="m256 388c-27.616 0-50-22.384-50-50v30c0 27.616 22.384 50 50 50s50-22.384 50-50v-30c0 27.616-22.384 50-50 50z" fill="#f2d1a5"/><path d="m256 334c55.229 0 100-44.771 100-100v-60c0-55.228-44.771-100-100-100-55.228 0-100 44.771-100 100v60c0 55.228 44.771 100 100 100z" fill="#ffe4c2"/><path d="m256 74c-51.853 0-94.486 39.467-99.504 90h136.101c15.738 0 30.211 8.626 37.697 22.47l25.706 47.53v-60c0-55.229-44.771-100-100-100z" fill="#616161"/><path d="m428.306 10 53.694 31-34.49 29.739 22.516 13-114.514 34.344 45.357-46.559-22.517-13z" fill="#f8e868"/><path d="m83.694 10-53.694 31 34.49 29.739-22.516 13 114.514 34.344-45.357-46.559 22.517-13z" fill="#f8e868"/><g fill="#efc17a"><path d="m465.732 55.027-68.932 20.673-41.288 42.383 114.514-34.344-22.516-13z"/><path d="m46.268 55.027 18.222 15.712-22.516 13 114.514 34.344-41.288-42.383z"/></g></g><g fill="#fff"><path d="m386 419.5h15v15h-15z"/><path d="m248.5 473h15v15h-15z"/></g><g id="Outline_14_"><path d="m375.999 360.5h-.232v15h.232c29.864 0 55.562 18.153 66.656 44h-26.655v15h31.22c.828 4.376 1.279 8.883 1.279 13.496v1.504h-18.499v15h18.499l.001 47.5h15l-.001-64.004c0-48.246-39.252-87.496-87.5-87.496z"/><path d="m48.5 468.277h15v43.723h-15z"/><path d="m376.5 472h15v40h-15z"/><path d="m120.5 472h15v40h-15z"/><path d="m494.895 39.785-67.748-39.115-61.139 59.387 22.759 13.14-58.824 60.384 158.881-47.65-28.42-16.408zm-113.815 62.8 31.889-32.735-22.273-12.86 38.771-37.661 39.64 22.886-34.49 29.739 16.613 9.592z"/><path d="m343.189 143.049c3.523 9.926 5.311 20.339 5.311 30.951v30.366l-11.608-21.465c-8.808-16.285-25.78-26.402-44.294-26.402h-127.422c.875-4.561 2.074-9.056 3.634-13.451l-14.135-5.019c-4.098 11.541-6.176 23.643-6.176 35.97v60c-.001 23.1 7.217 45.116 20.873 63.668l12.08-8.893c-11.745-15.956-17.953-34.896-17.952-54.774v-60c0-.835.031-1.667.053-2.5h129.045c12.999 0 24.916 7.103 31.101 18.538l24.778 45.816c-.992 50.152-42.092 90.646-92.477 90.646-24.768 0-48.035-9.661-65.518-27.204l-10.625 10.588c5.719 5.738 11.97 10.751 18.643 14.992v35.624h-62.499c-48.248 0-87.5 39.25-87.5 87.496v5.288h15v-5.288c0-39.975 32.523-72.496 72.5-72.496h63.004c3.367 25.716 23.779 46.128 49.495 49.495v33.005h15v-33.005c25.716-3.367 46.128-23.779 49.495-49.495h47.772v-15h-47.267v-35.71c30.03-19.086 50-52.649 50-90.79v-60c0-12.327-2.078-24.429-6.176-35.97zm-44.689 224.951c0 23.435-19.065 42.5-42.5 42.5s-42.5-19.065-42.5-42.5v-35.201c13.246 5.701 27.639 8.701 42.5 8.701 15.088 0 29.457-3.13 42.5-8.766z"/><path d="m256 81.5c28.199 0 54.509 12.634 72.184 34.663l11.699-9.387c-20.536-25.596-51.111-40.276-83.883-40.276s-63.347 14.68-83.883 40.276l11.699 9.387c17.675-22.029 43.985-34.663 72.184-34.663z"/><path d="m182.057 133.582-58.824-60.384 22.759-13.14-61.139-59.388-67.748 39.115 34.49 29.739-28.42 16.408zm-139.162-91.367 39.64-22.886 38.771 37.661-22.275 12.86 31.889 32.735-70.149-21.038 16.613-9.592z"/><path d="m389.145 198.935 58.487-24.082-20.184-20.183 32.724-15.271-6.344-13.592-52.13 24.327 19.416 19.415-37.68 15.516z"/><path d="m122.855 198.935 5.711-13.87-37.68-15.516 19.416-19.415-52.13-24.327-6.344 13.592 32.724 15.271-20.184 20.183z"/><path d="m248.5 30h15v16h-15z"/><path d="m248.5 0h15v15h-15z"/><path d="m196.5 39.909h15v16h-15z" transform="matrix(.866 -.5 .5 .866 3.377 108.42)"/><path d="m181.25 13.995h15v15h-15z" transform="matrix(.866 -.5 .5 .866 14.541 97.256)"/><path d="m300 40.409h16v15h-16z" transform="matrix(.5 -.866 .866 .5 112.508 290.69)"/><path d="m315.75 13.995h15v15h-15z" transform="matrix(.5 -.866 .866 .5 143.008 290.689)"/><path d="m193.304 246.303 14.696-14.696 14.696 14.696 10.608-10.606-14.697-14.697 14.697-14.697-10.608-10.606-14.696 14.696-14.696-14.696-10.608 10.606 14.697 14.697-14.697 14.697z"/><path d="m273.304 246.303 14.696-14.696 14.696 14.696 10.608-10.606-14.697-14.697 14.697-14.697-10.608-10.606-14.696 14.696-14.696-14.696-10.608 10.606 14.697 14.697-14.697 14.697z"/></g></g></svg>