<svg id="Capa_1" enable-background="new 0 0 511.5 511.5" height="512" viewBox="0 0 511.5 511.5" width="512" xmlns="http://www.w3.org/2000/svg"><g><g id="Filled_12_"><path d="m104.75 511.5v-98.266l-45.202-57.056c-33.615-42.062-51.798-93.314-51.798-146v-30.946c0-94.845 81.46-171.732 181.946-171.732 120.053 0 181.947 78 181.947 187l44.269 89.554c5.249 11.23-1.228 24.435-13.32 27.16l-36.773 8.286-2.064 20h-27.005c-16.569 0-30 13.431-30 30 0 16.569 13.431 30 30 30h16.237c-9.944 18.129-29.192 30.261-51.081 30.261h-13.156v81.739z" fill="#ffe4c2"/><path d="m387.75 421.5c19.882 0 36 16.118 36 36v54h80v-54c0-64.065-51.935-116-116-116z" fill="#c4e5f9"/><path d="m423.75 481.5h80v30h-80z" fill="#9eb6f4"/><path d="m104.75 481.5h184v30h-184z" fill="#f2d1a5"/></g><g fill="#fff"><path d="m149.75 406h15v15h-15z"/><path d="m234.75 422.26h15v15h-15z"/><path d="m81.75 113h15v15h-15z"/></g><g id="Outline_12_"><path d="m496.25 466.5h15v15h-15z"/><path d="m387.75 334v15c57.824 0 105.421 45.194 108.357 102.887l14.98-.763c-3.342-65.677-57.519-117.124-123.337-117.124z"/><path d="m496.25 496.5h15v15h-15z"/><path d="m456.25 496.5h15v15h-15z"/><path d="m387.75 374v15c37.771 0 68.5 30.729 68.5 68.5v24h15v-24c0-46.042-37.458-83.5-83.5-83.5z"/><path d="m387.75 414v15c15.715 0 28.5 12.785 28.5 28.5v54h15v-54c0-23.986-19.514-43.5-43.5-43.5z"/><path d="m286.435 240.356 57.321-45.856-57.321-45.857-9.371 11.713 42.68 34.144-42.68 34.143z"/><path d="m96.703 391h22.047v-15h-33.93l-19.413-24.503c-23.847-29.84-39.969-65.075-46.622-101.896l-14.761 2.667c7.094 39.264 24.268 76.815 49.645 108.569l43.581 55.009v95.654h15v-90.5h22.5v-15h-26.163z"/><path d="m50.87 57.269c-32.643 33.243-50.62 76.557-50.62 121.963v30.946c0 8.908.511 17.914 1.52 26.767l14.903-1.698c-.944-8.292-1.423-16.726-1.423-25.069v-30.946c0-7.182.515-14.268 1.49-21.232h32.01v-15h-29.143c1.238-5.088 2.731-10.092 4.465-15h42.678v-15h-36.493c25.306-53.429 80.129-92.501 145.164-97.458l-1.14-14.957c-47.223 3.599-91.051 23.73-123.411 56.684z"/><path d="m341.959 96.079 13.234-7.062c-14.997-28.107-36.454-50.044-63.775-65.203-28.449-15.783-62.626-23.795-101.584-23.814l-.007 15c71.242.034 123.849 28.071 152.132 81.079z"/><path d="m425.249 292.262c0-3.942-.855-7.772-2.542-11.383l-43.568-88.142c-.198-33.198-5.98-63.342-17.196-89.615l-13.795 5.889c10.614 24.866 15.996 53.629 15.996 85.489v1.752l45.005 91.043c.73 1.588 1.101 3.258 1.101 4.966 0 5.616-3.826 10.4-9.305 11.635l-42.032 9.472-1.923 18.632h-20.24c-20.678 0-37.5 16.822-37.5 37.5s16.822 37.5 37.5 37.5h1.427c-9.418 9.626-22.433 15.261-36.271 15.261h-37.156v15h16.5v74.239h15v-74.24h5.656c24.009 0 46.102-13.087 57.656-34.154l6.092-11.106h-28.904c-12.406 0-22.5-10.093-22.5-22.5s10.094-22.5 22.5-22.5h33.771l2.205-21.369 31.515-7.102c12.369-2.786 21.008-13.588 21.008-26.267z"/></g></g></svg>