<svg id="Capa_1" enable-background="new 0 0 511.5 511.5" height="512" viewBox="0 0 511.5 511.5" width="512" xmlns="http://www.w3.org/2000/svg"><g><g id="Filled_28_"><path d="m229.5 213.5v-40h-120v40l-70 30v230c0 16.569 13.431 30 30 30h200c16.569 0 30-13.431 30-30v-230z" fill="#c4e5f9"/><path d="m269.5 473.5h-200c-16.569 0-30-13.431-30-30v30c0 16.569 13.431 30 30 30h200c16.569 0 30-13.431 30-30v-30c0 16.569-13.431 30-30 30z" fill="#9eb6f4"/><path d="m94.5 133.5h150v40h-150z" fill="#e4e8ed"/><circle cx="169.5" cy="366.5" fill="#f88fa4" r="100"/><circle cx="169.5" cy="366.5" fill="#9ce3bf" r="50"/><path d="m169.5 386.5c-22.346 0-41.312-14.736-47.698-35-1.493 4.738-2.302 9.776-2.302 15 0 27.57 22.43 50 50 50s50-22.43 50-50c0-5.224-.809-10.262-2.302-15-6.386 20.264-25.352 35-47.698 35z" fill="#87bcc4"/><path d="m389.5 367.5h40v60h-40z" fill="#e4e8ed"/><path d="m364.5 97.5h90v80h-90z" fill="#e4e8ed"/><path d="m364.5 177.5v170c0 11.046 8.954 20 20 20h50c11.046 0 20-8.954 20-20v-170z" fill="#f8e868"/><path d="m434.5 337.5h-50c-11.046 0-20-8.954-20-20v30c0 11.046 8.954 20 20 20h50c11.046 0 20-8.954 20-20v-30c0 11.046-8.954 20-20 20z" fill="#efc17a"/><path d="m394.5 7.5h30v170h-30z" fill="#cad8eb"/></g><g fill="#fff"><path d="m85.5 466h15v15h-15z"/><path d="m170.5 206h15v15h-15z"/><path d="m262 256h15v15h-15z"/></g><g id="Outline_28_"><path d="m48.29 481h21.21v-15h-22.5v-63.658h-15v71.158c0 20.678 16.822 37.5 37.5 37.5h141.699v-15h-141.699c-9.777 0-18.114-6.271-21.21-15z"/><path d="m237 181h15v-55h-52.5v15h37.5v25h-135v-25h82.5v-15h-97.5v55h15v27.555l-70 30v148.787h15v-138.897l70-30v-37.445h105v25h-21.5v15h27.461l64.039 27.445v40.498h15v-50.388l-70-30z"/><path d="m292 473.5c0 12.406-10.094 22.5-22.5 22.5h-43.301v15h43.301c20.678 0 37.5-16.822 37.5-37.5v-169.557h-15z"/><path d="m169.5 474c59.275 0 107.5-48.225 107.5-107.5s-48.225-107.5-107.5-107.5-107.5 48.225-107.5 107.5 48.225 107.5 107.5 107.5zm92.5-107.5c0 51.005-41.495 92.5-92.5 92.5-22.808 0-43.71-8.302-59.855-22.037l24.873-24.873c7.824 6.018 17.231 10.063 27.482 11.405v23.005h15v-23.005c10.251-1.342 19.658-5.388 27.482-11.405l16.282 16.282 10.607-10.607-16.282-16.282c6.018-7.824 10.063-17.231 11.405-27.482h23.006v-15h-23.005c-1.342-10.251-5.387-19.658-11.405-27.482l24.873-24.873c13.735 16.144 22.037 37.046 22.037 59.854zm-127.366 24.259c-4.805-6.885-7.634-15.245-7.634-24.259 0-23.435 19.065-42.5 42.5-42.5 9.014 0 17.375 2.829 24.259 7.634zm69.732-48.518c4.805 6.885 7.634 15.245 7.634 24.259 0 23.435-19.065 42.5-42.5 42.5-9.014 0-17.375-2.829-24.259-7.634zm-34.866-68.241c22.808 0 43.71 8.302 59.855 22.037l-24.873 24.873c-7.824-6.018-17.231-10.063-27.482-11.405v-23.005h-15v23.005c-10.251 1.342-19.658 5.388-27.482 11.405l-16.282-16.282-10.607 10.607 16.282 16.282c-6.018 7.824-10.063 17.231-11.405 27.482h-23.006v15h23.005c1.342 10.251 5.387 19.658 11.405 27.482l-24.873 24.873c-13.735-16.144-22.037-37.046-22.037-59.854 0-51.005 41.495-92.5 92.5-92.5z"/><path d="m432 90v-75h22.5v-15h-90v15h22.5v75h-47.5v15h17.5v180.357h15v-100.357h75v20h-41.5v15h41.5v25h-20.5v15h20.5v25h-41.5v15h41.5v25h-20.5v15h20.5v7.5c0 6.893-5.607 12.5-12.5 12.5h-50c-6.893 0-12.5-5.607-12.5-12.5v-47.143h-15v47.143c0 14.32 11.005 26.113 25 27.381v60.119h20v76.5h15v-76.5h20v-60.119c13.995-1.268 25-13.061 25-27.381v-242.5h17.5v-15zm-45 80h-15v-65h15zm35 250h-25v-45h25zm-5-250h-15v-65h15zm0-80h-15v-75h15zm30 80h-15v-65h15z"/></g></g></svg>