<svg id="Capa_1" enable-background="new 0 0 512 512" height="512" viewBox="0 0 512 512" width="512" xmlns="http://www.w3.org/2000/svg"><g><g id="Filled_39_"><circle cx="256" cy="256" fill="#c4e5f9" r="150"/><path d="m256 376c-77.78 0-141.729-59.201-149.255-135-.49 4.934-.745 9.937-.745 15 0 82.843 67.157 150 150 150s150-67.157 150-150c0-5.063-.255-10.066-.745-15-7.526 75.799-71.475 135-149.255 135z" fill="#9eb6f4"/><path d="m256 321-63 11-41.486 31.609c27.011 26.232 63.859 42.391 104.486 42.391 28.229 0 54.633-7.803 77.183-21.363l-26.183-43.637z" fill="#9ce3bf"/><path d="m256 376c-31.811 0-61.303-9.911-85.574-26.801l-18.913 14.41c27.012 26.232 63.86 42.391 104.487 42.391 28.229 0 54.633-7.803 77.183-21.363l-13.64-22.734c-19.296 9.038-40.827 14.097-63.543 14.097z" fill="#87bcc4"/><g fill="#9ce3bf"><path d="m163 232 46-2 23-66-24.5-49.981c-59.041 20.163-101.5 76.112-101.5 141.981 0 14.89 2.18 29.269 6.221 42.847l38.779-26.847z"/><path d="m340.009 131.716-53.009 38.284-13 32 17 47h52l1 30 22 20 31.817 5.966c5.298-15.347 8.183-31.819 8.183-48.966 0-51.715-26.172-97.315-65.991-124.284z"/><circle cx="360" cy="54" r="30"/></g><path d="m360 54c-11.102 0-20.789-6.036-25.977-15-2.554 4.414-4.023 9.534-4.023 15 0 16.569 13.431 30 30 30s30-13.431 30-30c0-5.466-1.469-10.586-4.023-15-5.188 8.964-14.875 15-25.977 15z" fill="#87bcc4"/><circle cx="54" cy="54" fill="#9ce3bf" r="30"/><path d="m54 54c-11.102 0-20.789-6.036-25.977-15-2.554 4.414-4.023 9.534-4.023 15 0 16.569 13.431 30 30 30s30-13.431 30-30c0-5.466-1.469-10.586-4.023-15-5.188 8.964-14.875 15-25.977 15z" fill="#87bcc4"/><circle cx="54" cy="458" fill="#9ce3bf" r="30"/><path d="m54 458c-11.102 0-20.789-6.036-25.977-15-2.554 4.414-4.023 9.534-4.023 15 0 16.569 13.431 30 30 30s30-13.431 30-30c0-5.466-1.469-10.586-4.023-15-5.188 8.964-14.875 15-25.977 15z" fill="#87bcc4"/></g><g fill="#fff"><path d="m334 207.5h15v15h-15z"/><path d="m172 177.5h15v15h-15z"/><path d="m142 197.5h15v15h-15z"/><path d="m250 356.5h15v15h-15z"/></g><g id="Outline_39_"><path d="m371.863 149.281c-22.36-24.309-52.393-41.681-86.792-48.103l-2.752 14.746c15.929 2.973 30.823 8.545 44.282 16.222l-45.739 33.034-14.895 36.662 19.77 54.656h50.009l.863 25.918 25.919 23.562 25.2 4.725c-10.729 26.007-28.911 48.104-51.984 63.624l-23.626-39.378-55.336-21.7-66.872 11.676-37.657 28.691c-13.823-14.701-24.545-32.321-31.174-51.781l36.35-25.166 11.223-37.409 45.757-1.99 9.822-28.186-14.164-4.936-6.475 18.578-46.243 2.01-12.777 42.591-27.766 19.222c-2.164-9.856-3.306-20.08-3.306-30.551 0-1.136.013-2.268.04-3.396l-14.996-.357c-.029 1.248-.044 2.499-.044 3.754 0 62.03 36.173 116.228 88.979 141.828l-9.943 11.672h-51.536v15h58.464l17.487-20.528c13.938 5.099 28.812 8.286 44.314 9.232l.914-14.973c-12.072-.737-23.72-2.983-34.772-6.534l20.302-23.834-11.418-9.727-23.73 27.856c-12.52-5.645-24.061-13.051-34.33-21.883l32.859-25.036 59.128-10.323 46.664 18.3 20.984 34.972c-18.387 9.716-39.213 15.545-61.437 16.376l.561 14.99c40.803-1.527 78.922-18.578 107.335-48.01 28.487-29.506 44.175-68.351 44.175-109.377 0-35.407-11.783-68.477-31.919-95.088l31.767-35.412h98.652v-15h-105.348zm18.148 58.219h-26.011v15h30.519c1.186 4.913 2.118 9.918 2.78 15h-19.299v15h20.455c.028 1.164.045 2.33.045 3.5 0 14.034-2.01 27.585-5.749 40.385l-23.279-4.365-18.081-16.438-1.137-34.082h-53.991l-14.23-39.344 11.105-27.338 46.962-33.916c7.907 5.788 15.178 12.358 21.702 19.596l-18.385 20.494 11.166 10.016 16.776-18.701c7.782 10.732 14.085 22.569 18.652 35.193z"/><path d="m432 70.5h50v15h-50z"/><path d="m497 70.5h15v15h-15z"/><path d="m432 40.5h80v15h-80z"/><path d="m148.569 105.5h-57.569v15h50.431l12.596 15.503c-29.197 24.796-49.358 60.121-54.338 100.558l14.887 1.834c4.49-36.463 22.631-68.33 48.91-90.75l14.694 18.085 11.643-9.459-14.425-17.753c8.808-6.047 18.315-11.125 28.362-15.092l20.129 41.064-8.885 25.496 14.164 4.936 10.947-31.41-22.003-44.884c12.1-3.34 24.81-5.127 37.889-5.127 4.063 0 8.172.174 12.211.516l1.266-14.947c-4.46-.379-8.995-.57-13.478-.57-33.29 0-64.429 10.433-90.089 28.343z"/><path d="m126 70.5h50v15h-50z"/><path d="m191 70.5h15v15h-15z"/><path d="m126 40.5h80v15h-80z"/><path d="m126 474.5h50v15h-50z"/><path d="m191 474.5h15v15h-15z"/><path d="m126 444.5h80v15h-80z"/><path d="m328.728 74.664-12.215 12.216 10.607 10.607 12.216-12.216c3.935 2.608 8.384 4.499 13.164 5.474v17.255h15v-17.255c4.781-.974 9.23-2.865 13.164-5.474l12.216 12.216 10.607-10.607-12.216-12.216c2.608-3.935 4.499-8.384 5.474-13.164h17.255v-15h-17.255c-.974-4.781-2.865-9.23-5.474-13.164l12.216-12.216-10.607-10.607-12.216 12.216c-3.935-2.608-8.384-4.499-13.164-5.474v-17.255h-15v17.255c-4.781.974-9.23 2.865-13.164 5.474l-12.216-12.216-10.607 10.607 12.216 12.216c-2.608 3.935-4.499 8.384-5.474 13.164h-17.255v15h17.255c.974 4.781 2.865 9.23 5.473 13.164zm31.272-43.164c12.406 0 22.5 10.094 22.5 22.5s-10.094 22.5-22.5 22.5-22.5-10.094-22.5-22.5 10.094-22.5 22.5-22.5z"/><path d="m22.728 74.664-12.215 12.216 10.607 10.607 12.216-12.216c3.935 2.608 8.384 4.499 13.164 5.474v17.255h15v-17.255c4.781-.974 9.23-2.865 13.164-5.474l12.216 12.216 10.607-10.607-12.215-12.216c2.608-3.935 4.499-8.384 5.474-13.164h17.254v-15h-17.255c-.974-4.781-2.865-9.23-5.474-13.164l12.216-12.216-10.607-10.607-12.216 12.215c-3.935-2.608-8.384-4.499-13.164-5.474v-17.254h-15v17.255c-4.781.974-9.23 2.865-13.164 5.474l-12.216-12.216-10.607 10.607 12.216 12.216c-2.608 3.935-4.499 8.384-5.474 13.164h-17.255v15h17.255c.974 4.781 2.865 9.23 5.473 13.164zm31.272-43.164c12.406 0 22.5 10.094 22.5 22.5s-10.094 22.5-22.5 22.5-22.5-10.094-22.5-22.5 10.094-22.5 22.5-22.5z"/><path d="m85.272 437.336 12.216-12.216-10.608-10.607-12.216 12.216c-3.935-2.608-8.384-4.499-13.164-5.474v-17.255h-15v17.255c-4.781.974-9.23 2.865-13.164 5.474l-12.216-12.216-10.607 10.607 12.216 12.216c-2.608 3.935-4.499 8.384-5.474 13.164h-17.255v15h17.255c.974 4.781 2.865 9.23 5.474 13.164l-12.216 12.216 10.607 10.607 12.216-12.216c3.935 2.608 8.384 4.499 13.164 5.474v17.255h15v-17.255c4.781-.974 9.23-2.865 13.164-5.474l12.216 12.216 10.607-10.607-12.216-12.216c2.608-3.935 4.499-8.384 5.474-13.164h17.255v-15h-17.255c-.974-4.781-2.865-9.23-5.473-13.164zm-31.272 43.164c-12.406 0-22.5-10.094-22.5-22.5s10.094-22.5 22.5-22.5 22.5 10.094 22.5 22.5-10.094 22.5-22.5 22.5z"/></g></g></svg>