<svg id="Capa_1" enable-background="new 0 0 511.54 511.54" height="512" viewBox="0 0 511.54 511.54" width="512" xmlns="http://www.w3.org/2000/svg"><g><g id="Filled_13_"><path d="m236.828 108.663 84.815-6.863c-17.466-58.705-62.832-94.3-133.863-94.3h-.003c-78.428 0-142.007 60.01-142.007 134.035v24.153c0 37.955 12.099 74.951 34.592 106.239l21.205-11.466c44.824-24.237 77.732-65.814 91.027-115.006 5.504-20.369 23.203-35.09 44.234-36.792z" fill="#616161"/><path d="m163.632 137.627c-11.098 41.061-38.921 76.213-76.336 96.444l-22.45 12.14c4.439 8.906 9.616 17.509 15.515 25.715l21.205-11.466c44.824-24.237 77.731-65.814 91.027-115.006 5.505-20.369 23.204-35.09 44.235-36.792l84.815-6.864c-3.116-10.473-7.136-20.195-12.016-29.125l-75.219 6.087c-33.55 2.716-61.994 26.372-70.776 58.867z" fill="#424242"/><path d="m364.34 215.46-34.56-52.96c0-22.198-2.737-42.552-8.136-60.7l-84.815 6.863c-21.031 1.702-38.73 16.423-44.235 36.792-13.295 49.192-46.203 90.769-91.027 115.006l-21.205 11.466c1.876 2.61 3.816 5.185 5.836 7.713l35.588 44.531v29.329l142.844 55v-71.1c23.58 3.25 45.55-10.58 53.57-31.9l-13.539-3.81c-8.593-2.418-14.843-10.13-14.891-19.057-.068-12.824 11.887-22.307 24.345-19.344l9.295 2.21 1.83-22.38 28.7-6.46c9.44-2.129 14.49-12.439 10.4-21.199z" fill="#ffe4c2"/><path d="m115.413 316.197 6.372 7.974v29.329l142.845 55v-36.65z" fill="#f2d1a5"/><path d="m93.77 408.5 5.578-40.285c1.756-12.68 14.806-20.469 26.8-15.996l161.622 60.281-9 59z" fill="#e4e8ed"/><path d="m284.032 437.003-186.109-58.502-4.153 29.999 185 63z" fill="#cad8eb"/><path d="m301.77 511.5v-2c-8.077-28.581-30.422-50.914-59.007-58.976l-148.993-42.024-39.149 69.326c-5.802 10.275-8.851 21.874-8.851 33.674z" fill="#c4e5f9"/><path d="m52.695 481.5c-4.547 9.329-6.925 19.586-6.925 30h256v-2c-2.901-10.265-7.651-19.718-13.861-28z" fill="#9eb6f4"/></g><g fill="#fff"><path d="m125.77 444h15v15h-15z"/><path d="m106.77 83h15v15h-15z"/></g><g id="Outline_13_"><path d="m56.486 198.728c-2.134-10.867-3.216-21.984-3.216-33.041v-24.152c0-4.572.266-9.087.771-13.535h23.729v-15h-21.051c1.26-5.125 2.854-10.132 4.756-15h30.295v-15h-23.213c22.495-40.382 67.49-68 119.221-68 37.859 0 68.6 10.35 91.367 30.763l10.014-11.168c-25.604-22.956-59.713-34.595-101.382-34.595-82.439 0-149.507 63.493-149.507 141.535v24.152c0 12.025 1.177 24.114 3.497 35.931z"/><path d="m373.27 221.863c0-3.059-.611-6.036-1.817-8.859-.206-.483-.467-.944-.754-1.384l-33.425-51.364c-.391-47.186-13.151-86.665-36.962-114.281l-11.361 9.795c9.498 11.015 17.043 24.236 22.538 39.329l-75.265 6.09c-23.856 1.93-44.12 18.592-50.663 41.562l-.209.752c-.822 3.043-1.737 6.104-2.72 9.095l14.252 4.68c.986-3.004 1.91-6.072 2.749-9.13l.2-.734c4.665-17.263 19.775-29.831 37.6-31.273l78.53-6.354-.031-.383c4.198 16.065 6.352 33.869 6.352 53.099v2.23l35.434 54.31c.366.91.552 1.858.552 2.823 0 3.608-2.459 6.683-5.979 7.476l-34.078 7.679-1.569 19.165-.794-.188c-2.09-.497-4.227-.749-6.351-.749-15.32 0-27.725 12.741-27.214 28.201.396 11.993 8.84 22.227 20.39 25.477l4.837 1.361c-7.644 12.27-21.271 20.085-36.029 20.085-2.444 0-4.921-.215-7.359-.639l-72.555-12.62-2.57 14.778 68.13 11.85v49.327l-26.69-9.955-5.242 14.055 54.24 20.23-6.052 39.679c-8.582-6.133-18.228-10.848-28.584-13.77l-142.704-40.25 4.682-33.811c.853-6.156 6.172-10.798 12.373-10.798 1.481 0 2.954.269 4.377.8l87.614 32.678 5.242-14.055-87.098-32.485v-23.843l-37.684-47.155c.001-.005.001-.006.002-.011l13.532-7.318c38.631-20.89 69.276-54.69 86.29-95.174l-13.828-5.812c-15.694 37.343-43.962 68.521-79.597 87.791l-15.299 8.273c-10.187-15.293-17.862-31.859-22.863-49.436l-14.428 4.104c6.979 24.534 18.73 47.25 34.926 67.516l33.947 42.478v17.087c-11.479 2.086-20.719 11.406-22.366 23.299l-5.382 38.869-38.447 68.084c-6.425 11.377-9.82 24.296-9.82 37.361h15c0-7.713 1.48-15.36 4.311-22.5h37.189v-15h-29.376l8.471-15h36.905v-15h-28.434l15.068-26.683 143.323 40.425c25.562 7.209 45.991 27.397 53.543 52.822v.936h.271c.004.013.008.027.011.04l14.718-.04v-3.04l-.282-1c-4.151-14.687-11.901-27.945-22.205-38.754l9.321-61.103-23.976-8.942v-53.304c23.508-.269 44.789-15.151 53.089-37.216l2.877-7.647-21.543-6.062c-5.04-1.418-8.863-5.755-9.247-10.977-.53-7.189 5.146-13.209 12.195-13.209.957 0 1.927.115 2.881.342l17.787 4.23 2.097-25.589 23.325-5.256c10.41-2.347 17.681-11.439 17.681-22.11z"/><path d="m356.694 263.939h15v15h-15z" transform="matrix(.99 -.141 .141 .99 -34.723 54.226)"/><path d="m386.263 257.879h40.711v15h-40.711z" transform="matrix(.99 -.141 .141 .99 -33.44 60.164)"/><path d="m381.27 277.812h15v73.376h-15z" transform="matrix(.3 -.954 .954 .3 -27.838 591.069)"/><path d="m369.309 344.685h15v37.941h-15z" transform="matrix(.677 -.736 .736 .677 -145.938 394.742)"/><path d="m338.789 328.078h15v15h-15z" transform="matrix(.677 -.736 .736 .677 -135.13 363.222)"/><path d="m447.27 283.5h15v15h-15z"/><path d="m416.77 354h15v15h-15z"/><path d="m437.27 394.5h15v15h-15z"/><path d="m458.27 333.5h15v15h-15z"/><path d="m338.27 373.5h15v15h-15z"/><path d="m398.27 403.5h15v15h-15z"/><path d="m270.572 194.262 36.914-30.762-36.914-30.762-9.604 11.524 23.086 19.238-23.086 19.238z"/></g></g></svg>