<svg id="Capa_1" enable-background="new 0 0 511 511" height="512" viewBox="0 0 511 511" width="512" xmlns="http://www.w3.org/2000/svg"><g><g id="Filled_25_"><path d="m55.5 183.5h400v260h-400z" fill="#e4e8ed"/><path d="m345.5 503.5h-180v-10c0-11.046 8.954-20 20-20h140c11.046 0 20 8.954 20 20z" fill="#e4e8ed"/><path d="m195.5 443.5h120v30h-120z" fill="#cad8eb"/><path d="m155.5 143.5h200v340h-200z" fill="#c4e5f9" transform="matrix(0 1 -1 0 569 58)"/><path d="m240.5 228.5h30v340h-30z" fill="#9eb6f4" transform="matrix(0 1 -1 0 654 143)"/><path d="m224.5 57.5v76c0 11.046-8.954 20-20 20h-110c-11.046 0-20-8.954-20-20v-76c0-11.046 8.954-20 20-20h110c11.046 0 20 8.954 20 20z" fill="#616161"/><path d="m104.5 67.5h90v56h-90z" fill="#c4e5f9"/><path d="m129.5 153.5h40v30h-40z" fill="#424242"/><path d="m173.5 7.5 10 30h-68l10-30z" fill="#f8e868"/><path d="m303.5 332.5c-27.614 0-50 22.386-50 50v31h100v-31c0-27.614-22.386-50-50-50z" fill="#f88fa4"/><path d="m253.5 383.5h100v30h-100z" fill="#f05475"/><path d="m303.5 344.5c-13.807 0-25-11.193-25-25v-10c0-13.807 11.193-25 25-25 13.807 0 25 11.193 25 25v10c0 13.807-11.193 25-25 25z" fill="#ffe4c2"/><path d="m207.5 352.5c-27.614 0-50 22.386-50 50v11h100v-11c0-27.614-22.386-50-50-50z" fill="#f8e868"/><path d="m253.753 383.5h-92.506c-2.409 5.859-3.747 12.272-3.747 19v11h100v-11c0-6.728-1.338-13.141-3.747-19z" fill="#efc17a"/><path d="m207.5 364.5c-13.807 0-25-11.193-25-25v-10c0-13.807 11.193-25 25-25 13.807 0 25 11.193 25 25v10c0 13.807-11.193 25-25 25z" fill="#ffe4c2"/></g><g fill="#fff"><path d="m164.5 254h15v15h-15z"/><path d="m326 388h-15v-15h15zm-30 0h-15v-15h15z"/><path d="m381.5 236h15v15h-15z"/></g><g id="Outline_25_"><path d="m350.5 176v15h97.5v87.5h15v-102.5z"/><path d="m63 191h59 55 158.5v-15h-158.5v-15h27.5c15.164 0 27.5-12.337 27.5-27.5v-76c0-15.163-12.336-27.5-27.5-27.5h-15.594l-10-30h-58.812l-10 30h-15.594c-15.164 0-27.5 12.337-27.5 27.5v19.857h15v-19.857c0-6.893 5.607-12.5 12.5-12.5h10.594 88.812 10.594c6.893 0 12.5 5.607 12.5 12.5v76c0 6.893-5.607 12.5-12.5 12.5h-27.5-55-27.5c-6.893 0-12.5-5.607-12.5-12.5v-41.143h-15v41.143c0 15.163 12.336 27.5 27.5 27.5h27.5v15h-74v147.5h15zm62.906-161 5-15h37.188l5 15zm11.094 131h25v15h-25z"/><path d="m448 436h-192.5v15h52.5v15h-105v-15h37.5v-15h-177.5v-97.5h-15v112.5h140v15h-2.5c-15.164 0-27.5 12.337-27.5 27.5v17.5h54.643v-15h-39.643v-2.5c0-6.893 5.607-12.5 12.5-12.5h140c6.893 0 12.5 5.607 12.5 12.5v2.5h-110.357v15h125.357v-17.5c0-15.163-12.336-27.5-27.5-27.5h-2.5v-15h140v-157.5h-15z"/><path d="m78 421h355v-215h-355zm172-15h-85v-3.5c0-15.876 8.666-30.126 22.424-37.47 5.532 4.359 12.502 6.97 20.076 6.97s14.544-2.611 20.076-6.97c13.758 7.344 22.424 21.594 22.424 37.47zm-60-66.5v-10c0-9.649 7.851-17.5 17.5-17.5s17.5 7.851 17.5 17.5v10c0 9.649-7.851 17.5-17.5 17.5s-17.5-7.851-17.5-17.5zm156 66.5h-81v-3.5c0-7.401-1.393-14.541-3.979-21.128.4-15.421 8.971-29.173 22.403-36.343 5.532 4.359 12.502 6.97 20.076 6.97s14.544-2.611 20.076-6.97c13.758 7.345 22.424 21.595 22.424 37.471zm-60-86.5v-10c0-9.649 7.851-17.5 17.5-17.5s17.5 7.851 17.5 17.5v10c0 9.649-7.851 17.5-17.5 17.5s-17.5-7.851-17.5-17.5zm-193-98.5h325v185h-57v-23.5c0-20.567-10.749-39.117-28.004-49.377 1.923-4.147 3.004-8.76 3.004-13.623v-10c0-7.895-2.832-15.138-7.53-20.775l7.27-7.725h60.76v-15h-67.241l-12.868 13.672c-3.955-1.716-8.313-2.672-12.891-2.672-17.92 0-32.5 14.579-32.5 32.5v10c0 4.863 1.081 9.477 3.004 13.623-11.561 6.874-20.196 17.471-24.639 29.902-3.604-3.813-7.751-7.156-12.368-9.902 1.923-4.147 3.004-8.76 3.004-13.623v-10c0-17.921-14.58-32.5-32.5-32.5-3.78 0-7.408.655-10.785 1.847l-13.975-14.847h-67.241v15h60.759l7.675 8.154c-5.53 5.829-8.934 13.695-8.934 22.346v10c0 4.863 1.081 9.477 3.004 13.623-17.255 10.26-28.004 28.81-28.004 49.377v3.5h-57z"/><path d="m202 60h-105v71h105zm-15 56h-75v-41h75z"/><path d="m332.5 236h34v15h-34z"/><path d="m115.5 254h34v15h-34z"/></g></g></svg>