<svg id="Capa_1" enable-background="new 0 0 511.5 511.5" height="512" viewBox="0 0 511.5 511.5" width="512" xmlns="http://www.w3.org/2000/svg"><g><g id="Filled_20_"><path d="m147.5 503.524h-120c-11.046 0-20-8.954-20-20v-280c0-11.046 8.954-20 20-20h120c11.046 0 20 8.954 20 20v280c0 11.046-8.954 20-20 20z" fill="#e4e8ed"/><path d="m37.5 143.524h100v40h-100z" fill="#cad8eb"/><path d="m62.5 63.524h50v80h-50z" fill="#e4e8ed"/><path d="m62.5 113.524h50v30h-50z" fill="#cad8eb"/><path d="m137.5 261.524h-30v-30h-40v30h-30v40h30v30h40v-30h30z" fill="#f88fa4"/><circle cx="345.5" cy="255.524" fill="#9ce3bf" r="30"/><path d="m345.5 255.524c-11.102 0-20.789-6.036-25.977-15-2.554 4.414-4.023 9.534-4.023 15 0 16.569 13.431 30 30 30s30-13.431 30-30c0-5.466-1.469-10.586-4.023-15-5.188 8.964-14.875 15-25.977 15z" fill="#87bcc4"/><g fill="#9ce3bf"><circle cx="483.5" cy="235.524" r="20"/><circle cx="443.5" cy="321.524" r="20"/><circle cx="431.5" cy="96.524" r="50"/></g><path d="m431.5 116.524c-22.346 0-41.312-14.736-47.698-35-1.493 4.738-2.302 9.776-2.302 15 0 27.57 22.43 50 50 50s50-22.43 50-50c0-5.224-.809-10.262-2.302-15-6.386 20.264-25.352 35-47.698 35z" fill="#87bcc4"/><path d="m147.5 463.524h-120c-11.046 0-20-8.954-20-20v40c0 11.046 8.954 20 20 20h120c11.046 0 20-8.954 20-20v-40c0 11.046-8.954 20-20 20z" fill="#cad8eb"/></g><g fill="#fff"><path d="m32.5 466.024h15v15h-15z"/><path d="m102.5 394.024h15v15h-15z"/><path d="m428 69.524h15v15h-15z"/><path d="m403 90.024h15v15h-15z"/><path d="m443 99.524h15v15h-15z"/></g><g id="Outline_20_"><path d="m147.5 176.024h-2.5v-40h-25v-27.5h-15v27.5h-35v-65h35v22.5h15v-37.5h-65v80h-25v40h-2.5c-15.164 0-27.5 12.336-27.5 27.5v186.429h15v-186.429c0-6.893 5.607-12.5 12.5-12.5h62.143v-15h-44.643v-25h85v25h-25.357v15h42.857c6.893 0 12.5 5.607 12.5 12.5v85.714h15v-85.714c0-15.164-12.336-27.5-27.5-27.5z"/><path d="m160 466.024h-97.5v15h97.5v2.5c0 6.893-5.607 12.5-12.5 12.5h-120c-6.893 0-12.5-5.607-12.5-12.5v-78.571h-15v78.571c0 15.164 12.336 27.5 27.5 27.5h120c15.164 0 27.5-12.336 27.5-27.5v-179.286h-15z"/><path d="m218.5 89.024h15v15h-15z"/><path d="m173.5 89.024h15v15h-15z"/><path d="m263.5 89.024h15v15h-15z"/><path d="m308.5 89.024h15v15h-15z"/><path d="m167.094 48.762h15v15h-15z" transform="matrix(.94 -.342 .342 .94 -8.713 63.113)"/><path d="m293.952 2.589h15v15h-15z" transform="matrix(.94 -.342 .342 .94 14.726 103.702)"/><path d="m251.666 17.98h15v15h-15z" transform="matrix(.94 -.342 .342 .94 6.917 90.184)"/><path d="m209.38 33.371h15v15h-15z" transform="matrix(.94 -.342 .342 .94 -.898 76.648)"/><path d="m293.952 175.459h15v15h-15z" transform="matrix(.342 -.94 .94 .342 26.425 403.656)"/><path d="m251.666 160.068h15v15h-15z" transform="matrix(.342 -.94 .94 .342 13.062 353.79)"/><path d="m167.093 129.286h15v15h-15z" transform="matrix(.342 -.94 .94 .342 -13.659 254.065)"/><path d="m209.379 144.677h15v15h-15z" transform="matrix(.342 -.94 .94 .342 -.298 303.928)"/><path d="m60 224.024v30h-30v55h30v30h55v-30h30v-55h-30v-30zm70 45v25h-30v30h-25v-30h-30v-25h30v-30h25v30z"/><path d="m37.5 364.024h100v15h-100z"/><path d="m57.5 394.024h30v15h-30z"/><path d="m382.245 263.024h17.255v-15h-17.255c-.974-4.781-2.865-9.23-5.474-13.165l12.216-12.216-10.606-10.606-12.216 12.216c-3.935-2.609-8.384-4.5-13.165-5.474v-17.255h-15v17.255c-4.781.974-9.23 2.865-13.165 5.474l-12.216-12.216-10.606 10.606 12.216 12.216c-2.609 3.935-4.5 8.384-5.474 13.165h-17.255v15h17.255c.974 4.781 2.865 9.23 5.474 13.165l-12.216 12.216 10.606 10.606 12.216-12.216c3.935 2.609 8.384 4.5 13.165 5.474v17.255h15v-17.255c4.781-.974 9.23-2.865 13.165-5.474l12.216 12.216 10.606-10.606-12.216-12.216c2.609-3.935 4.5-8.384 5.474-13.165zm-36.745 15c-12.407 0-22.5-10.093-22.5-22.5s10.093-22.5 22.5-22.5 22.5 10.093 22.5 22.5-10.093 22.5-22.5 22.5z"/><path d="m483.5 208.024c-15.164 0-27.5 12.336-27.5 27.5s12.336 27.5 27.5 27.5 27.5-12.336 27.5-27.5-12.336-27.5-27.5-27.5zm0 40c-6.893 0-12.5-5.607-12.5-12.5s5.607-12.5 12.5-12.5 12.5 5.607 12.5 12.5-5.607 12.5-12.5 12.5z"/><path d="m467.504 308.127 12.412-12.412-10.606-10.606-12.412 12.412c-1.845-1.034-3.822-1.859-5.897-2.448v-17.548h-15v17.548c-2.075.589-4.052 1.414-5.897 2.448l-12.412-12.412-10.606 10.606 12.412 12.412c-1.034 1.845-1.859 3.822-2.448 5.897h-17.55v15h17.548c.589 2.075 1.414 4.052 2.448 5.897l-12.412 12.412 10.606 10.606 12.412-12.412c1.845 1.034 3.822 1.859 5.897 2.448v17.548h15v-17.548c2.075-.589 4.052-1.414 5.897-2.448l12.412 12.412 10.606-10.606-12.412-12.412c1.034-1.845 1.859-3.822 2.448-5.897h17.55v-15h-17.548c-.589-2.075-1.414-4.052-2.448-5.897zm-24.004 25.897c-6.893 0-12.5-5.607-12.5-12.5s5.607-12.5 12.5-12.5 12.5 5.607 12.5 12.5-5.607 12.5-12.5 12.5z"/><path d="m488.495 89.024c-1.342-10.251-5.388-19.658-11.406-27.483l16.283-16.283-10.606-10.606-16.283 16.283c-7.824-6.018-17.232-10.064-27.483-11.406v-23.005h-15v23.005c-10.251 1.342-19.658 5.388-27.483 11.406l-16.283-16.283-10.606 10.606 16.283 16.283c-6.018 7.824-10.064 17.232-11.406 27.483h-23.005v15h23.005c1.342 10.251 5.388 19.658 11.406 27.483l-16.283 16.283 10.606 10.606 16.283-16.283c7.824 6.018 17.232 10.064 27.483 11.406v23.005h15v-23.005c10.251-1.342 19.658-5.388 27.483-11.406l16.283 16.283 10.606-10.606-16.283-16.283c6.018-7.824 10.064-17.232 11.406-27.483h23.005v-15zm-56.995 50c-23.435 0-42.5-19.065-42.5-42.5s19.065-42.5 42.5-42.5 42.5 19.065 42.5 42.5-19.065 42.5-42.5 42.5z"/></g></g></svg>