<svg id="Capa_1" enable-background="new 0 0 511.5 511.5" height="512" viewBox="0 0 511.5 511.5" width="512" xmlns="http://www.w3.org/2000/svg"><g><g><g id="Filled_38_"><path d="m502.27 176.5s-110.138 125-246 125-246-125-246-125 110.138-125 246-125 246 125 246 125z" fill="#fff"/><path d="m487.679 161.5c-34.227 33.2-124.91 110-231.409 110s-197.182-76.8-231.409-110c-9.437 9.154-14.591 15-14.591 15s110.138 125 246 125 246-125 246-125-5.154-5.846-14.591-15z" fill="#e4e8ed"/><circle cx="256.27" cy="156.5" fill="#616161" r="105"/><path d="m256.27 231.5c-52.896 0-96.649-39.117-103.929-90-.701 4.9-1.071 9.906-1.071 15 0 57.99 47.01 105 105 105s105-47.01 105-105c0-5.094-.37-10.1-1.071-15-7.28 50.883-51.033 90-103.929 90z" fill="#424242"/><circle cx="256.27" cy="156.5" fill="#e4e8ed" r="60"/><circle cx="290.27" cy="120.5" fill="#fff" r="20"/><path d="m145.27 313.5c41.66 0 77.141 26.957 89.922 64.343l39.078 30.657-39.078 30.657c-12.781 37.386-48.262 64.343-89.922 64.343-52.383 0-95-42.617-95-95s42.617-95 95-95z" fill="#f88fa4"/><path d="m145.27 473.5c5 0 77.141 3.043 89.922-34.343-12.781 37.386-48.262 64.343-89.922 64.343-52.383 0-95-42.617-95-95 0-5.104.41-10.112 1.188-15 7.214 45.281 46.532 80 93.812 80z" fill="#f05475"/><circle cx="145.27" cy="408.5" fill="#9ce3bf" r="45"/><path d="m145.27 423.5c-19.555 0-36.228-12.541-42.42-30-1.665 4.695-2.58 9.741-2.58 15 0 24.813 20.187 45 45 45s45-20.187 45-45c0-5.259-.915-10.305-2.58-15-6.192 17.459-22.865 30-42.42 30z" fill="#87bcc4"/><path d="m466.27 511.5v-187h-110c-23.79 12.549-40 37.497-40 66.229v120.771z" fill="#ffe4c2"/><path d="m316.27 481.5h150v30h-150z" fill="#f2d1a5"/><path d="m466.27 448.5h-60c-27.614 0-50-22.386-50-50v-75c0-11.046 8.954-20 20-20h70c11.046 0 20 8.954 20 20z" fill="#f88fa4"/><path d="m356.27 368.5v30c0 27.614 22.386 50 50 50h60v-30h-60c-27.614 0-50-22.386-50-50z" fill="#f05475"/></g><g fill="#fff"><path d="m396.27 471h15v15h-15z"/><path d="m125.77 391.5h15v15h-15z"/><path d="m150.77 411.5h15v15h-15z"/></g></g><g><path d="m256.27 15c45.661 0 137.49 16.574 239.478 127.574l11.045-10.148c-21.242-23.12-55.613-56.411-98.717-83.711-51.038-32.325-102.114-48.715-151.806-48.715s-100.768 16.39-151.806 48.715c-43.104 27.3-77.475 60.591-98.717 83.711l11.045 10.148c101.988-111 193.817-127.574 239.478-127.574z"/><path d="m506.919 171.567c-1.145-1.312-28.555-32.479-73.278-63.979l-8.637 12.264c32.955 23.212 56.598 46.7 66.056 56.646-11.277 11.854-42.722 42.946-86.176 69.992l7.926 12.734c56.706-35.293 92.609-76.073 94.109-77.792l4.307-4.933z"/><path d="m78.534 227.044c-28.691-21.097-49.298-41.452-58.017-50.546 9.5-9.912 33.13-33.206 66.113-56.359 24.887-17.47 58.387-37.039 96.711-49.226-24.199 20.651-39.572 51.355-39.572 85.587 0 62.033 50.467 112.5 112.5 112.5s112.5-50.467 112.5-112.5c0-34.334-15.465-65.12-39.79-85.772 27.615 8.755 55.625 22.387 83.815 40.832l8.213-12.553c-55.785-36.499-111.211-55.007-164.737-55.007-1.062 0-2.121.018-3.176.047-70.857.999-134.191 35.11-175.082 63.814-44.731 31.401-72.221 62.377-73.369 63.681l-4.369 4.958 4.369 4.958c1.008 1.145 25.156 28.369 65.004 57.67zm275.236-70.544c0 53.762-43.738 97.5-97.5 97.5s-97.5-43.738-97.5-97.5c0-52.834 42.242-95.984 94.727-97.458.924-.012 1.846-.042 2.773-.042 53.762 0 97.5 43.738 97.5 97.5z"/><path d="m90.576 235.6-8.484 12.369c59.037 40.497 117.64 61.031 174.178 61.031 46.493-.001 94.743-14.11 143.409-41.937l-7.445-13.021c-46.37 26.514-92.115 39.957-135.964 39.958-53.453 0-109.2-19.648-165.694-58.4z"/><path d="m203.77 156.5c0-27.491 21.467-50.49 48.872-52.359l-1.021-14.965c-35.243 2.403-62.851 31.976-62.851 67.324 0 37.22 30.28 67.5 67.5 67.5 36.782 0 67.055-29.924 67.481-66.706l-14.998-.174c-.333 28.607-23.876 51.88-52.483 51.88-28.948 0-52.5-23.552-52.5-52.5z"/><path d="m290.27 148c15.163 0 27.5-12.337 27.5-27.5s-12.337-27.5-27.5-27.5-27.5 12.337-27.5 27.5 12.337 27.5 27.5 27.5zm0-40c6.893 0 12.5 5.607 12.5 12.5s-5.607 12.5-12.5 12.5-12.5-5.607-12.5-12.5 5.607-12.5 12.5-12.5z"/><path d="m446.27 296h-70c-13.975 0-25.541 10.482-27.269 23.995-24.919 14.841-40.231 41.553-40.231 70.733v120.772h15v-120.771c0-20.599 9.335-39.695 25-52.345v60.116c0 31.706 25.794 57.5 57.5 57.5h52.5v15h-32.5v15h32.5v25.5h15v-109.429h-15v38.929h-52.5c-23.435 0-42.5-19.065-42.5-42.5v-75c0-6.893 5.607-12.5 12.5-12.5h70c6.893 0 12.5 5.607 12.5 12.5v63.571h15v-63.571c0-15.163-12.337-27.5-27.5-27.5z"/><path d="m427.77 326.5h15v15h-15z"/><path d="m427.77 356.5h15v15h-15z"/><path d="m145.27 306c-16.025 0-31.386 3.613-45.652 10.738l6.701 13.42c12.168-6.077 25.272-9.158 38.951-9.158 37.421 0 70.706 23.818 82.826 59.269l.719 2.104 33.305 26.127-33.305 26.128-.719 2.104c-6.229 18.221-18.556 34.137-34.71 44.817l8.271 12.512c18.273-12.08 32.366-29.896 39.876-50.346l44.887-35.215-44.886-35.214c-14.783-40.341-53.183-67.286-96.264-67.286z"/><path d="m145.276 496c-.001 0-.004 0-.006 0-48.248 0-87.5-39.252-87.5-87.5 0-28.153 13.731-54.779 36.732-71.227l-8.725-12.201c-26.929 19.256-43.007 50.445-43.007 83.428 0 56.519 45.981 102.5 102.499 102.5h.008c14.706 0 28.917-3.066 42.236-9.113l-6.201-13.658c-11.359 5.157-23.481 7.771-36.036 7.771z"/><path d="m187.301 439.924c5.15-6.871 8.648-15.043 9.925-23.924h19.044v-15h-19.044c-1.276-8.88-4.775-17.053-9.925-23.924l13.477-13.477-10.607-10.607-13.477 13.477c-6.871-5.15-15.043-8.648-23.924-9.925v-19.044h-15v19.044c-8.88 1.276-17.053 4.775-23.924 9.925l-13.477-13.477-10.607 10.608 13.477 13.477c-5.15 6.871-8.648 15.043-9.925 23.924h-19.044v15h19.044c1.276 8.88 4.775 17.053 9.925 23.924l-13.477 13.475 10.607 10.607 13.477-13.477c6.351 4.76 13.817 8.103 21.924 9.591v19.379h15v-18.789c9.655-1.01 18.539-4.645 25.924-10.179l13.477 13.477 10.607-10.607zm-42.031 6.076c-20.678 0-37.5-16.822-37.5-37.5s16.822-37.5 37.5-37.5 37.5 16.822 37.5 37.5-16.822 37.5-37.5 37.5z"/><path d="m396.27 471h15v15h-15z"/><path d="m125.77 391.5h15v15h-15z"/><path d="m150.77 411.5h15v15h-15z"/></g></g></svg>