<svg id="Capa_1" enable-background="new 0 0 511.037 511.037" height="512" viewBox="0 0 511.037 511.037" width="512" xmlns="http://www.w3.org/2000/svg"><g><g id="Filled_30_"><path d="m460.519 212.5c0-113.218-91.782-205-205-205s-205 91.782-205 205c0 52.464 20.014 104.928 60.043 144.957l144.957 143.043 144.957-143.043c40.028-40.029 60.043-92.493 60.043-144.957z" fill="#f88fa4"/><path d="m455.177 165.824c.219 3.825.342 7.675.342 11.554 0 53.39-20.775 103.582-58.507 141.349l-141.493 139.626-141.494-139.625c-37.732-37.768-58.507-87.96-58.507-141.349 0-3.879.123-7.729.342-11.554-3.492 14.994-5.342 30.619-5.342 46.676 0 52.464 20.014 104.928 60.043 144.957l144.958 143.042 144.957-143.043c40.029-40.029 60.043-92.493 60.043-144.957 0-16.057-1.851-31.682-5.342-46.676z" fill="#f05475"/><circle cx="305.519" cy="130.5" fill="#9ce3bf" r="50"/><path d="m305.519 150.5c-22.346 0-41.312-14.736-47.698-35-1.493 4.738-2.302 9.776-2.302 15 0 27.57 22.43 50 50 50s50-22.43 50-50c0-5.224-.809-10.262-2.302-15-6.387 20.264-25.352 35-47.698 35z" fill="#87bcc4"/><g fill="#9ce3bf"><circle cx="269.519" cy="380.5" r="20"/><circle cx="171.519" cy="126.5" r="20"/><circle cx="342.519" cy="288.5" r="30"/></g><path d="m342.519 288.5c-11.102 0-20.789-6.036-25.977-15-2.554 4.414-4.023 9.534-4.023 15 0 16.569 13.431 30 30 30s30-13.431 30-30c0-5.466-1.469-10.586-4.023-15-5.189 8.964-14.875 15-25.977 15z" fill="#87bcc4"/><circle cx="180.519" cy="260.5" fill="#9ce3bf" r="45"/><path d="m180.519 275.5c-19.555 0-36.228-12.541-42.42-30-1.665 4.695-2.58 9.742-2.58 15 0 24.813 20.187 45 45 45s45-20.187 45-45c0-5.259-.915-10.305-2.58-15-6.193 17.458-22.866 30-42.42 30z" fill="#87bcc4"/></g><g fill="#fff"><path d="m302.019 103.5h15v15h-15z"/><path d="m277.019 124h15v15h-15z"/><path d="m317.019 133.5h15v15h-15z"/><path d="m110.019 165h15v15h-15z"/><path d="m389.519 215h15v15h-15z"/><path d="m199.519 355h15v15h-15z"/><path d="m161.063 243.455h15v15h-15z"/><path d="m186.063 263.455h15v15h-15z"/></g><g id="Outline_30_"><path d="m459.246 151.883-14.379 4.271c5.41 18.207 8.152 37.164 8.152 56.346 0 52.754-20.543 102.351-57.811 139.618l-139.689 137.845-77.293-76.273-10.536 10.678 87.83 86.67 150.26-148.276c40.136-40.137 62.24-93.5 62.24-150.261-.001-20.63-2.953-41.024-8.774-60.618z"/><path d="m149.442 395.725h14.999v15h-14.999z" transform="matrix(.702 -.712 .712 .702 -240.302 231.706)"/><path d="m58.019 212.5c0-108.901 88.598-197.5 197.5-197.5 71.519 0 137.636 38.829 172.549 101.335l13.096-7.314c-37.562-67.247-108.697-109.021-185.645-109.021-117.173 0-212.5 95.327-212.5 212.5 0 56.761 22.104 110.124 62.275 150.296l30.365 29.964 10.536-10.678-30.33-29.929c-37.303-37.302-57.846-86.899-57.846-139.653z"/><path d="m440.247 142.474 14.025-5.32c-1.826-4.814-3.857-9.628-6.037-14.305l-13.597 6.334c2.026 4.346 3.912 8.817 5.609 13.291z"/><path d="m225.519 123v15h23.005c1.342 10.251 5.388 19.658 11.406 27.482l-16.282 16.282 10.606 10.607 16.283-16.283c7.824 6.018 17.231 10.063 27.482 11.406v23.006h15v-23.005c10.251-1.342 19.658-5.388 27.482-11.406l16.283 16.283 10.606-10.607-16.282-16.282c6.018-7.824 10.063-17.231 11.406-27.482h23.005v-15h-23.005c-1.342-10.251-5.388-19.658-11.406-27.482l16.282-16.282-10.606-10.607-16.283 16.283c-7.824-6.018-17.231-10.063-27.482-11.406v-23.007h-15v23.005c-10.251 1.342-19.658 5.388-27.482 11.406l-16.283-16.283-10.606 10.607 16.282 16.282c-6.018 7.824-10.063 17.231-11.406 27.482h-23.005zm80-35c23.435 0 42.5 19.065 42.5 42.5s-19.065 42.5-42.5 42.5-42.5-19.065-42.5-42.5 19.065-42.5 42.5-42.5z"/><path d="m269.519 408c15.164 0 27.5-12.337 27.5-27.5s-12.336-27.5-27.5-27.5-27.5 12.337-27.5 27.5 12.336 27.5 27.5 27.5zm0-40c6.893 0 12.5 5.607 12.5 12.5s-5.607 12.5-12.5 12.5-12.5-5.607-12.5-12.5 5.607-12.5 12.5-12.5z"/><path d="m171.519 154c15.164 0 27.5-12.337 27.5-27.5s-12.337-27.5-27.5-27.5-27.5 12.337-27.5 27.5 12.336 27.5 27.5 27.5zm0-40c6.893 0 12.5 5.607 12.5 12.5s-5.607 12.5-12.5 12.5-12.5-5.607-12.5-12.5 5.607-12.5 12.5-12.5z"/><path d="m396.519 296v-15h-17.255c-.974-4.781-2.865-9.23-5.474-13.164l12.215-12.216-10.606-10.607-12.216 12.216c-3.935-2.609-8.384-4.5-13.165-5.474v-17.255h-15v17.255c-4.781.974-9.23 2.865-13.165 5.474l-12.216-12.216-10.606 10.607 12.215 12.216c-2.609 3.934-4.499 8.384-5.474 13.164h-17.255v15h17.255c.974 4.781 2.865 9.23 5.474 13.164l-12.215 12.216 10.606 10.607 12.216-12.216c3.935 2.609 8.384 4.5 13.165 5.474v17.255h15v-17.255c4.781-.974 9.23-2.865 13.165-5.474l12.216 12.216 10.606-10.607-12.215-12.216c2.609-3.934 4.499-8.384 5.474-13.164zm-54 15c-12.407 0-22.5-10.094-22.5-22.5s10.093-22.5 22.5-22.5 22.5 10.094 22.5 22.5-10.094 22.5-22.5 22.5z"/><path d="m79.519 205h15v15h-15z"/><path d="m199.519 75h15v15h-15z"/><path d="m419.519 175h15v15h-15z"/><path d="m259.519 225h15v15h-15z"/><path d="m229.519 415h15v15h-15z"/><path d="m188.019 331.5v-19.044c8.881-1.276 17.053-4.775 23.924-9.925l13.477 13.477 10.606-10.607-13.477-13.477c5.15-6.871 8.648-15.043 9.925-23.924h19.044v-15h-19.044c-1.276-8.881-4.774-17.053-9.925-23.924l13.477-13.477-10.606-10.607-13.477 13.477c-6.871-5.15-15.044-8.649-23.924-9.925v-19.044h-15v19.044c-8.881 1.276-17.053 4.775-23.924 9.925l-13.477-13.477-10.607 10.608 13.477 13.477c-5.15 6.871-8.648 15.043-9.925 23.924h-19.044v15h19.044c1.276 8.881 4.774 17.053 9.925 23.924l-13.477 13.475 10.606 10.607 13.477-13.477c6.871 5.15 15.044 8.649 23.924 9.925v19.045zm-45-71c0-20.678 16.822-37.5 37.5-37.5s37.5 16.822 37.5 37.5-16.822 37.5-37.5 37.5-37.5-16.822-37.5-37.5z"/></g></g></svg>