<svg id="Capa_1" enable-background="new 0 0 511.5 511.5" height="512" viewBox="0 0 511.5 511.5" width="512" xmlns="http://www.w3.org/2000/svg"><g><g id="Filled_1_"><path d="m337.75 511.5v-187c0-33.137-26.863-60-60-60h-64v-37h-82v37h-64c-33.137 0-60 26.863-60 60v187z" fill="#ffe4c2"/><path d="m7.75 481.5h330v30h-330z" fill="#f2d1a5"/><path d="m239.926 34.545c-11.052-10.743-24.823-18.855-40.223-23.278l-10.685 2.715-6.148-5.958c-3.324-.346-6.704-.524-10.12-.524-52.469 0-95 41.34-95 92.341v13.318c0 51 42.531 92.341 95 92.341 3.416 0 6.796-.178 10.121-.524 2.932-.293 5.828-.728 8.669-1.279 18.699-3.649 35.415-12.635 48.386-25.243 17.191-16.71 27.824-39.795 27.824-65.296v-13.317c0-25.5-10.633-48.586-27.824-65.296z" fill="#616161"/><path d="m238.75 110.53v66.556c0 36.68-29.549 66.414-66 66.414-36.451 0-66-29.735-66-66.414v-53.514c8.176 2.125 17.045 2.781 26.301 2.781 29.494 0 54.962-13.557 66.916-40.853 10.081 12.312 23.537 21.244 38.783 25.03z" fill="#ffe4c2"/><path d="m171.75 392.1c0-35.462-1.209-86.6-20.625-86.6-21.094 0-54.375 41.397-54.375 86.6 0 52.909 16.737 60.133 39.844 48.799 21.562-10.575 35.156-13.337 35.156-48.799z" fill="#f88fa4"/><path d="m171.75 392.1c0-35.462 1.209-86.6 20.625-86.6 21.094 0 54.375 41.397 54.375 86.6 0 52.909-16.737 60.133-39.844 48.799-21.562-10.575-35.156-13.337-35.156-48.799z" fill="#f88fa4"/><path d="m136.594 410.9c-20.189 9.902-35.515 5.635-39.063-30.891-.507 3.982-.78 8.021-.78 12.092 0 52.909 16.737 60.133 39.844 48.8 21.562-10.576 35.156-13.337 35.156-48.8 0-6.941-.047-14.483-.267-22.124-1.968 28.055-15.051 31.192-34.89 40.923z" fill="#f05475"/><path d="m206.906 410.9c-19.839-9.731-32.923-12.867-34.889-40.923-.22 7.641-.267 15.183-.267 22.124 0 35.462 13.594 38.224 35.156 48.8 23.106 11.333 39.844 4.109 39.844-48.8 0-4.071-.274-8.11-.78-12.092-3.549 36.526-18.875 40.793-39.064 30.891z" fill="#f05475"/><path d="m393.75 99.5c-60.751 0-110 49.249-110 110 0 17.737 4.204 34.49 11.661 49.327l-29.661 57.673 69.837-13.627c16.874 10.533 36.806 16.627 58.163 16.627 60.751 0 110-49.249 110-110s-49.249-110-110-110z" fill="#f88fa4"/><path d="m393.75 289.5c-21.357 0-41.289-6.093-58.163-16.627l-52.687 10.281-17.15 33.346 69.837-13.627c16.874 10.533 36.806 16.627 58.163 16.627 60.751 0 110-49.249 110-110 0-5.089-.353-10.095-1.022-15-7.317 53.654-53.316 95-108.978 95z" fill="#f05475"/><circle cx="393.75" cy="209.5" fill="#9ce3bf" r="50"/><path d="m393.75 229.5c-22.346 0-41.312-14.736-47.698-35-1.493 4.738-2.302 9.776-2.302 15 0 27.57 22.43 50 50 50s50-22.43 50-50c0-5.224-.809-10.262-2.302-15-6.386 20.264-25.352 35-47.698 35z" fill="#87bcc4"/></g><g fill="#fff"><path d="m390.25 182.5h15v15h-15z"/><path d="m365.25 203h15v15h-15z"/><path d="m405.25 212.5h15v15h-15z"/><path d="m125.75 486h15v15h-15z"/></g><g id="Outline_1_"><path d="m.25 444.214h15v67.286h-15z"/><path d="m139.25 272v-29.158c10.054 5.201 21.437 8.158 33.5 8.158s23.446-2.956 33.5-8.158v29.158h56.5v-15h-41.5v-24.446c14.135-12.514 23.46-30.384 24.81-50.429 18.846-19.256 29.19-44.57 29.19-71.626v-10.658c0-26.709-10.688-51.809-30.097-70.674-12.084-11.746-27.084-20.428-43.38-25.108l-1.95-.56-8.592 2.183-5.003-4.848-2.58-.269c-3.596-.375-7.263-.565-10.898-.565-56.519 0-102.5 44.789-102.5 99.841v10.659c0 27.056 10.344 52.37 29.19 71.626 1.35 20.045 10.674 37.914 24.81 50.429v24.445h-56.5c-37.22 0-67.5 30.28-67.5 67.5v104.714h15v-104.714c0-28.949 23.551-52.5 52.5-52.5zm-40-158.126v44.12c-9.103-14.008-14-30.335-14-47.494v-10.659c0-46.781 39.252-84.841 87.5-84.841 2.267 0 4.547.086 6.807.256l7.25 7.025 12.733-3.235c13.192 4.114 25.312 11.305 35.159 20.876 16.478 16.017 25.552 37.295 25.552 59.918v10.66c0 17.159-4.897 33.485-14 47.494v-53.329l-5.692-1.414c-13.436-3.336-25.465-11.118-34.788-22.502l-7.76-9.476-4.913 11.219c-10.12 23.108-32.006 36.362-60.046 36.362-9.99 0-17.748-.807-24.414-2.54zm15 63.211v-44.397c5.564.788 11.723 1.165 18.801 1.165 30.16 0 54.605-12.799 68.639-35.509 8.613 8.146 18.631 14.19 29.561 17.816v60.925c0 32.485-26.243 58.915-58.5 58.915s-58.501-26.429-58.501-58.915z"/><path d="m330.25 391.5h15v120h-15z"/><path d="m330.25 333.5h15v43h-15z"/><path d="m78.25 471h18.5v-15h-18.5v-104.5h-15v160h15v-10.5h32.5v-15h-32.5z"/><path d="m267.25 351.5h15v160h-15z"/><path d="m192.375 298c-9.987 0-16.45 7.198-20.625 18.642-4.175-11.444-10.638-18.642-20.625-18.642-13.154 0-28.588 11.069-41.286 29.611-13.085 19.106-20.589 42.612-20.589 64.489 0 31.493 5.666 49.692 17.83 57.274 3.855 2.403 8.216 3.604 13.055 3.604 5.895 0 12.5-1.783 19.762-5.345 1.987-.975 3.906-1.882 5.751-2.754 10.622-5.023 19.978-9.453 26.103-19.03 6.125 9.577 15.481 14.007 26.103 19.03 1.845.873 3.764 1.779 5.751 2.754 7.263 3.562 13.867 5.345 19.762 5.345 4.838 0 9.2-1.201 13.055-3.604 12.164-7.582 17.83-25.781 17.83-57.274 0-21.877-7.504-45.383-20.589-64.489-12.7-18.542-28.134-29.611-41.288-29.611zm-53.14 133.318c-1.907.902-3.89 1.84-5.944 2.848-8.263 4.054-14.413 4.887-18.276 2.479-4.021-2.506-10.765-11.625-10.765-44.544 0-42.486 31.44-79.1 46.875-79.1 2.968 0 7.416 6.201 10.186 23.676 2.59 16.337 2.939 37.186 2.939 55.424 0 27.388-7.323 30.851-25.015 39.217zm89.25 5.327c-3.863 2.41-10.013 1.575-18.276-2.479-2.054-1.007-4.037-1.945-5.944-2.847-17.692-8.366-25.015-11.829-25.015-39.218 0-18.239.349-39.087 2.939-55.424 2.77-17.475 7.218-23.676 10.186-23.676 15.435 0 46.875 36.614 46.875 79.1 0 32.919-6.744 42.038-10.765 44.544z"/><path d="m393.75 107c37.159 0 71.492 20.186 89.601 52.68l13.103-7.302c-20.756-37.242-60.11-60.378-102.704-60.378-27.133 0-53.603 9.468-74.534 26.661-20.643 16.956-35.013 40.613-40.465 66.613l14.681 3.078c9.884-47.138 52.074-81.352 100.318-81.352z"/><path d="m503.276 166.87-13.978 5.444c4.613 11.842 6.952 24.353 6.952 37.186 0 56.519-45.981 102.5-102.5 102.5-19.22 0-37.959-5.356-54.191-15.489l-2.507-1.565-57.559 11.231 24.332-47.312-1.712-3.407c-7.208-14.341-10.862-29.804-10.862-45.958 0-2.441.087-4.904.257-7.321l-14.963-1.055c-.195 2.766-.294 5.583-.294 8.375 0 17.218 3.625 33.757 10.782 49.219l-35.025 68.104 82.17-16.034c18.014 10.617 38.544 16.212 59.572 16.212 64.79 0 117.5-52.71 117.5-117.5 0-14.702-2.683-29.045-7.974-42.63z"/><path d="m473.75 217v-15h-23.005c-1.342-10.251-5.388-19.658-11.406-27.483l16.283-16.282-10.606-10.606-16.283 16.282c-7.824-6.018-17.232-10.064-27.483-11.406v-23.005h-15v23.005c-10.251 1.342-19.658 5.388-27.483 11.406l-16.283-16.282-10.606 10.606 16.283 16.282c-6.018 7.824-10.064 17.232-11.406 27.483h-23.005v15h23.005c1.342 10.251 5.388 19.658 11.406 27.483l-16.283 16.282 10.606 10.606 16.283-16.282c7.824 6.018 17.232 10.064 27.483 11.406v23.005h15v-23.005c10.251-1.342 19.658-5.388 27.483-11.406l16.283 16.282 10.606-10.606-16.283-16.282c6.018-7.824 10.064-17.232 11.406-27.483zm-80 35c-23.435 0-42.5-19.065-42.5-42.5s19.065-42.5 42.5-42.5 42.5 19.065 42.5 42.5-19.065 42.5-42.5 42.5z"/></g></g></svg>