<svg id="Capa_1" enable-background="new 0 0 511.5 511.5" height="512" viewBox="0 0 511.5 511.5" width="512" xmlns="http://www.w3.org/2000/svg"><g><g id="Filled_27_"><g><path d="m55.612 381.5v130h400v-130c0-44.183-35.817-80-80-80h-240c-44.182 0-80 35.817-80 80z" fill="#f2d1a5"/><path d="m55.612 381.5v130h400v-130c0-44.183-35.817-80-80-80h-240c-44.182 0-80 35.817-80 80z" fill="#f8e868"/></g><g fill="#efc17a"><path d="m55.612 481.5h400v30h-400z"/><path d="m55.612 481.5h400v30h-400z"/></g><path d="m205.612 237.5v64c0 27.616 22.384 50 50 50s50-22.384 50-50v-64z" fill="#ffe4c2"/><path d="m255.612 321.5c-27.616 0-50-22.384-50-50v30c0 27.616 22.384 50 50 50s50-22.384 50-50v-30c0 27.616-22.384 50-50 50z" fill="#f2d1a5"/><path d="m255.612 267.5c55.229 0 100-44.771 100-100v-60c0-55.228-44.771-100-100-100-55.228 0-100 44.771-100 100v60c0 55.228 44.772 100 100 100z" fill="#ffe4c2"/><path d="m255.612 7.5c-51.853 0-94.486 39.467-99.504 90h136.102c15.738 0 30.211 8.626 37.697 22.47l25.705 47.53v-60c0-55.229-44.771-100-100-100z" fill="#616161"/><g fill="#f88fa4"><circle cx="417.612" cy="313.5" r="30"/><circle cx="55.612" cy="413.5" r="30"/><circle cx="126.612" cy="303.5" r="30"/></g></g><g fill="#fff"><path d="m248.112 425.5h15v15h-15z"/><path d="m248.112 455.5h15v15h-15z"/><path d="m316.612 474h15v15h-15z"/></g><g id="Outline_27_"><path d="m448.112 455.367h15v56.133h-15z"/><path d="m373.112 443h-14.5v15h14.5v16h-26.5v15h26.5v22.5h15v-100h-15z"/><path d="m123.112 411.5h15v100h-15z"/><path d="m455.112 313.5c0-20.678-16.822-37.5-37.5-37.5-13.767 0-25.818 7.462-32.34 18.549-3.204-.352-6.434-.549-9.66-.549h-62.5v-35.627c6.626-4.211 12.836-9.181 18.521-14.867l-10.607-10.606c-17.472 17.476-40.703 27.1-65.414 27.1-51.005 0-92.5-41.495-92.5-92.5v-60c0-.836.018-1.668.04-2.5h129.058c12.999 0 24.916 7.104 31.101 18.537l24.766 45.794c-.371 19.26-6.565 37.571-18.004 53.06l12.066 8.912c13.721-18.579 20.974-40.642 20.974-63.803v-60c0-59.275-48.225-107.5-107.5-107.5-14.252.001-28.101 2.748-41.161 8.165l5.747 13.855c11.229-4.657 23.145-7.02 35.415-7.021 51.005 0 92.5 41.495 92.5 92.5v30.366l-11.608-21.465c-8.81-16.284-25.782-26.4-44.296-26.4h-127.459c4.836-25.553 20.186-47.886 43.092-61.729l-7.758-12.838c-15.56 9.403-28.583 22.695-37.662 38.439-9.363 16.237-14.312 34.781-14.312 53.627v60c0 38.142 19.97 71.704 50 90.79v35.711h-35.221c-4.217-16.092-18.882-28-36.278-28-20.678 0-37.5 16.822-37.5 37.5 0 1.266.065 2.517.188 3.751-24.191 15.101-39.5 40.996-41.046 69.478-17.166 3.43-30.142 18.611-30.142 36.771 0 18.11 12.904 33.261 30 36.745v61.255h15v-61.255c17.096-3.484 30-18.635 30-36.745 0-18.054-12.826-33.167-29.844-36.712 1.427-22.029 12.798-42.115 30.792-54.706 6.47 11.29 18.633 18.918 32.552 18.918 18.809 0 34.424-13.921 37.093-32h34.912c3.367 25.716 23.779 46.128 49.495 49.495v52.005h15v-52.005c25.716-3.367 46.128-23.779 49.495-49.495h63.005c1.587 0 3.174.069 4.758.172-.164 1.421-.258 2.864-.258 4.328 0 20.678 16.822 37.5 37.5 37.5 7.588 0 14.651-2.272 20.56-6.161 6.518 11.074 9.94 23.599 9.94 36.661v58.849h15v-58.849c0-17.089-4.856-33.419-14.069-47.584 3.832-5.88 6.069-12.89 6.069-20.416zm-377 100c0 12.406-10.093 22.5-22.5 22.5s-22.5-10.094-22.5-22.5 10.093-22.5 22.5-22.5 22.5 10.094 22.5 22.5zm48.5-87.5c-12.407 0-22.5-10.094-22.5-22.5s10.093-22.5 22.5-22.5 22.5 10.094 22.5 22.5-10.093 22.5-22.5 22.5zm171.5-24.5c0 23.435-19.065 42.5-42.5 42.5s-42.5-19.065-42.5-42.5v-35.266c13.043 5.636 27.412 8.766 42.5 8.766 14.858 0 29.252-3.001 42.5-8.703zm119.5 34.5c-12.406 0-22.5-10.094-22.5-22.5s10.094-22.5 22.5-22.5 22.5 10.094 22.5 22.5-10.093 22.5-22.5 22.5z"/><path d="m367.838 343.716-17.179 14.18-5.256-14.442-34.112 24.957 8.857 12.106 17.992-13.163 5.689 15.629 33.558-27.699z"/><path d="m423.898 364.551-14.484 3.898 5.789 21.509-15.321-1.198 8.584 41.386 14.687-3.046-4.527-21.829 16.583 1.298z"/><path d="m21.465 317.091-12.964 7.545 7.999 13.742-16.138 2.963 20.254 32.156 12.693-7.994-8.447-13.41 15.337-2.817z"/><path d="m33.309 461.497-12.693-7.994-20.254 32.156 16.138 2.963-7.999 13.742 12.964 7.545 18.734-32.185-15.337-2.817z"/><path d="m94.728 450.728-12.964 7.544 7.999 13.743-16.137 2.963 20.253 32.156 12.692-7.994-8.446-13.411 15.337-2.816z"/><path d="m498.081 208.813-16.141 28.598-16.631-18.663-23.413 51.158 13.639 6.242 13.856-30.273 15.303 17.173 26.45-46.861z"/><path d="m400.844 228.779 1.274 33.269 14.988-.574-2.151-56.22-22.487 10.918-4.027-32.592-14.886 1.84 6.596 53.404z"/><path d="m50.896 255.068 25.719 21.144 9.525-11.588-43.46-35.728-6.773 24.063-27.039-18.635-8.512 12.352 44.308 30.535z"/><path d="m107.754 253.025 14.687-3.05-6.771-32.598 22.502 4.77-6.45-53.423-14.892 1.798 3.936 32.602-24.454-5.185z"/><path d="m174.818 375.068-16.247-29.059-13.093 7.32 27.456 49.107 15.074-19.941 18.391 27.205 12.427-8.4-30.137-44.58z"/></g></g></svg>