<svg id="Capa_1" enable-background="new 0 0 511 511" height="512" viewBox="0 0 511 511" width="512" xmlns="http://www.w3.org/2000/svg"><g><g id="Filled_4_"><path d="m503.5 473.5h-320v-20c0-11.046 8.954-20 20-20h280c11.046 0 20 8.954 20 20z" fill="#616161"/><path d="m259.5 77.5h80v170h-80z" fill="#e4e8ed"/><path d="m279.5 247.5h40v40h-40z" fill="#616161"/><path d="m279.5 7.5h40v70h-40z" fill="#616161"/><path d="m413.5 433.5h-60v-70c0-16.569 13.431-30 30-30 16.569 0 30 13.431 30 30z" fill="#c4e5f9"/><path d="m339.5 133.5v50h54c33.137 0 60 26.863 60 60v70c0 22.091-17.909 40-40 40v50c49.706 0 90-40.294 90-90v-70c0-60.751-49.249-110-110-110z" fill="#e4e8ed"/><circle cx="339.5" cy="158.5" fill="#c4e5f9" r="40"/><path d="m117.5 121.5c60.751 0 110 49.249 110 110 0 17.737-4.204 34.49-11.661 49.327l29.661 57.673-69.837-13.627c-16.874 10.534-36.806 16.627-58.163 16.627-60.751 0-110-49.249-110-110s49.249-110 110-110z" fill="#f88fa4"/><path d="m117.5 311.5c21.357 0 41.289-6.093 58.163-16.627l52.687 10.281 17.15 33.346-69.837-13.627c-16.874 10.534-36.806 16.627-58.163 16.627-60.751 0-110-49.249-110-110 0-5.089.353-10.095 1.022-15 7.317 53.654 53.316 95 108.978 95z" fill="#f05475"/><circle cx="117.5" cy="231.5" fill="#9ce3bf" r="50"/><path d="m117.5 251.5c-22.346 0-41.312-14.736-47.698-35-1.493 4.738-2.302 9.776-2.302 15 0 27.57 22.43 50 50 50s50-22.43 50-50c0-5.224-.809-10.262-2.302-15-6.386 20.264-25.352 35-47.698 35z" fill="#87bcc4"/></g><g fill="#fff"><path d="m376 365h15v15h-15z"/><path d="m376 395h15v15h-15z"/><path d="m332 151h15v15h-15z"/><path d="m114 204.5h15v15h-15z"/><path d="m89 225h15v15h-15z"/><path d="m129 234.5h15v15h-15z"/></g><g id="Outline_4_"><path d="m463.5 466h-272.5v-12.5c0-6.893 5.607-12.5 12.5-12.5h61.429v-15h-61.429c-15.163 0-27.5 12.336-27.5 27.5v27.5h287.5z"/><path d="m203.5 496h60v15h-60z"/><path d="m423.5 496h60v15h-60z"/><path d="m243.5 366h88v15h-88z"/><path d="m259.243 348.823-35.025-68.104c7.156-15.461 10.782-32 10.782-49.219 0-64.79-52.71-117.5-117.5-117.5-.002 0 .001 0-.001 0-41.016 0-78.403 20.854-100.002 55.78l12.758 7.89c18.847-30.476 51.462-48.67 87.245-48.67 56.519 0 102.5 45.981 102.5 102.5 0 16.155-3.654 31.618-10.862 45.958l-1.713 3.407 24.332 47.312-57.559-11.231-2.507 1.565c-16.232 10.133-34.971 15.489-54.191 15.489-56.519 0-102.5-45.981-102.5-102.5 0-14.438 2.939-28.394 8.737-41.479l-13.715-6.076c-6.65 15.01-10.022 31.01-10.022 47.555 0 64.79 52.71 117.5 117.5 117.5 21.028 0 41.558-5.595 59.572-16.21z"/><path d="m37.5 224v15h23.005c1.342 10.251 5.388 19.658 11.406 27.482l-16.283 16.283 10.607 10.606 16.282-16.282c7.824 6.018 17.231 10.063 27.482 11.406v23.005h15v-23.005c10.251-1.342 19.658-5.387 27.482-11.406l16.282 16.282 10.607-10.606-16.283-16.283c6.018-7.824 10.063-17.231 11.406-27.482h23.007v-15h-23.005c-1.342-10.251-5.387-19.658-11.406-27.482l16.283-16.283-10.607-10.606-16.282 16.282c-7.824-6.018-17.231-10.063-27.482-11.406v-23.005h-15v23.005c-10.251 1.342-19.658 5.387-27.482 11.406l-16.282-16.282-10.607 10.606 16.283 16.283c-6.018 7.824-10.063 17.231-11.406 27.482zm80-35c23.435 0 42.5 19.065 42.5 42.5s-19.065 42.5-42.5 42.5-42.5-19.065-42.5-42.5 19.065-42.5 42.5-42.5z"/><path d="m511 313.5v-70c0-24.8-7.635-48.515-22.08-68.58l-12.174 8.764c12.596 17.497 19.254 38.181 19.254 59.816v70c0 42.961-33.013 78.34-75 82.144v-32.144c0-1.036-.054-2.059-.136-3.073 22.706-3.55 40.136-23.24 40.136-46.927v-70c0-37.22-30.28-67.5-67.5-67.5h-9.855c2.156-5.42 3.355-11.321 3.355-17.5s-1.199-12.08-3.355-17.5h9.855c28.383 0 54.782 11.339 74.334 31.926l10.877-10.33c-22.413-23.598-52.675-36.596-85.211-36.596h-19.406c-7.046-7.496-16.487-12.712-27.094-14.402v-26.598h17.5v-15h-37.5v-70h-55v70h-37.5v15h17.5v36.5h15v-36.5h65v26.598c-22.64 3.607-40 23.263-40 46.902s17.36 43.295 40 46.902v34.598h-65v-103.5h-15v118.5h20v40h55v-40h20v-49.598c10.607-1.69 20.047-6.906 27.094-14.402h19.406c28.948 0 52.5 23.551 52.5 52.5v70c0 16.883-12.941 30.796-29.425 32.351-6.323-11.803-18.775-19.851-33.075-19.851-20.678 0-37.5 16.822-37.5 37.5v32.5h-122.5v15h122.5v15h-66.071v15h203.571c6.893 0 12.5 5.607 12.5 12.5v12.5h-17.5v15h32.5v-27.5c0-15.164-12.337-27.5-27.5-27.5h-62.5v-15.286c50.271-3.842 90-45.975 90-97.214zm-199-243.5h-25v-55h25zm0 210h-25v-25h25zm27.5-89c-17.921 0-32.5-14.58-32.5-32.5s14.579-32.5 32.5-32.5 32.5 14.58 32.5 32.5-14.579 32.5-32.5 32.5zm66.5 235h-45v-62.5c0-12.407 10.094-22.5 22.5-22.5s22.5 10.093 22.5 22.5z"/></g></g></svg>