<svg id="Capa_1" enable-background="new 0 0 511 511" height="512" viewBox="0 0 511 511" width="512" xmlns="http://www.w3.org/2000/svg"><g><g id="Filled_49_"><path d="m7.5 147.5h496v40h-496z" fill="#e4e8ed" transform="matrix(-1 0 0 -1 511 335)"/><path d="m7.5 473.5h496v30h-496z" fill="#e4e8ed" transform="matrix(-1 0 0 -1 511 977)"/><path d="m75.5 7.5h360v140h-360z" fill="#f8e868"/><path d="m75.5 117.5h360v30h-360z" fill="#efc17a"/><path d="m20.5 187.5h470v286h-470z" fill="#e4e8ed" transform="matrix(-1 0 0 -1 511 661)"/><path d="m20.5 443.5h470v30h-470z" fill="#cad8eb" transform="matrix(-1 0 0 -1 511 917)"/><g fill="#f8e868"><path d="m385.5 368.5h90v60h-90z" transform="matrix(0 1 -1 0 829 -32)"/><path d="m380.5 237.5h100v60h-100z" transform="matrix(0 -1 1 0 163 698)"/><path d="m35.5 368.5h90v60h-90z" transform="matrix(0 1 -1 0 479 318)"/></g><path d="m415.5 398.5h30v60h-30z" fill="#efc17a" transform="matrix(0 1 -1 0 859 -2)"/><path d="m65.5 398.5h30v60h-30z" fill="#efc17a" transform="matrix(0 1 -1 0 509 348)"/><path d="m30.5 237.5h100v60h-100z" fill="#f8e868" transform="matrix(0 -1 1 0 -187 348)"/><path d="m415.5 272.5h30v60h-30z" fill="#efc17a" transform="matrix(0 -1 1 0 128 733)"/><path d="m65.5 272.5h30v60h-30z" fill="#efc17a" transform="matrix(0 -1 1 0 -222 383)"/><path d="m255.5 220.5c-60.751 0-110 49.249-110 110s49.249 110 110 110 110-49.249 110-110-49.249-110-110-110zm0 30c16.647 0 32.118 5.116 44.936 13.851l-111.085 111.085c-8.735-12.818-13.851-28.289-13.851-44.936 0-44.112 35.888-80 80-80zm0 160c-16.647 0-32.118-5.116-44.936-13.851l111.085-111.085c8.735 12.818 13.851 28.289 13.851 44.936 0 44.112-35.888 80-80 80z" fill="#f88fa4"/></g><g fill="#fff"><path d="m99.5 110h15v15h-15z"/><path d="m396.5 110h15v15h-15z"/><path d="m99.5 30h15v15h-15z"/><path d="m396.5 30h15v15h-15z"/></g><g id="Outline_49_"><path d="m443 140v-140h-102.5v15h87.5v125h-126.5v15h194.5v25h-372.5v15h359.5v83.5h15v-83.5h13v-55z"/><path d="m498 293.5h-15v172.5h-246.5v15h259.5v15h-481v-15h206.5v-15h-193.5v-271h80.5v-15h-93.5v-25h271.5v-15h-203.5v-125h242.5v-15h-257.5v140h-68v55h13v271h-13v45h511v-45h-13z"/><path d="m393 451h75v-105h-75zm15-90h45v75h-45z"/><path d="m468 210h-75v115h75zm-15 100h-45v-85h45z"/><path d="m43 451h75v-105h-75zm15-90h45v75h-45z"/><path d="m118 210h-75v115h75zm-15 100h-45v-85h45z"/><path d="m138 330.5c0 64.79 52.71 117.5 117.5 117.5 28.463 0 55.924-10.309 77.323-29.025 21.195-18.538 35.044-44.023 38.996-71.762l-14.85-2.115c-7.14 50.112-50.762 87.902-101.469 87.902-56.519 0-102.5-45.981-102.5-102.5 0-.445.003-.891.008-1.334l-14.998-.186c-.007.506-.01 1.012-.01 1.52z"/><path d="m372.997 331.276.003-.776c0-64.79-52.71-117.5-117.5-117.5-28.33 0-55.693 10.224-77.05 28.786-21.142 18.377-35.05 43.68-39.16 71.245l14.836 2.213c7.417-49.737 50.998-87.244 101.374-87.244 56.519 0 102.5 45.981 102.5 102.5l-.003.653z"/><path d="m255.5 243c-48.248 0-87.5 39.252-87.5 87.5 0 17.613 5.24 34.612 15.152 49.159l5.1 7.482 123.89-123.89-7.482-5.1c-14.548-9.911-31.547-15.151-49.16-15.151zm-64.635 120.314c-5.166-10.124-7.865-21.311-7.865-32.814 0-39.977 32.523-72.5 72.5-72.5 11.503 0 22.69 2.699 32.814 7.865z"/><path d="m255.5 418c48.248 0 87.5-39.252 87.5-87.5 0-17.613-5.24-34.612-15.152-49.159l-5.1-7.482-123.89 123.89 7.482 5.1c14.548 9.911 31.547 15.151 49.16 15.151zm64.635-120.314c5.166 10.124 7.865 21.311 7.865 32.814 0 39.977-32.523 72.5-72.5 72.5-11.503 0-22.69-2.699-32.814-7.865z"/><path d="m373 120.5v-85.5h-11.961l-25.539 29.942-25.539-29.942h-11.961v85.5h15v-58.822l22.5 26.38 22.5-26.38v58.822z"/><path d="m258 120.5v-33.383c14.315-3.396 25-16.278 25-31.617v-21h-15v21c0 9.649-7.851 17.5-17.5 17.5s-17.5-7.851-17.5-17.5v-21h-15v21c0 15.339 10.685 28.221 25 31.617v33.383z"/><path d="m170.5 50h29v-15h-29c-17.921 0-32.5 14.579-32.5 32.5v20c0 17.921 14.579 32.5 32.5 32.5s32.5-14.579 32.5-32.5v-17.5h-32.5v15h17.5v2.5c0 9.649-7.851 17.5-17.5 17.5s-17.5-7.851-17.5-17.5v-20c0-9.649 7.851-17.5 17.5-17.5z"/></g></g></svg>