<svg id="Capa_1" enable-background="new 0 0 511 511" height="512" viewBox="0 0 511 511" width="512" xmlns="http://www.w3.org/2000/svg"><g><g><path d="m7.5 463.5h496v40h-496z" fill="#616161"/><path d="m490.5 463.5h-470v-456h393l77 51z" fill="#e4e8ed"/><path d="m240.5 213.5h30v470h-30z" fill="#cad8eb" transform="matrix(0 1 -1 0 704 193)"/><path d="m42.5 45.5h426v410h-426z" fill="#c4e5f9" transform="matrix(0 1 -1 0 506 -5)"/><path d="m240.5 243.5h30v410h-30z" fill="#9eb6f4" transform="matrix(0 1 -1 0 704 193)"/><path d="m310.5 333.5v-73c0-33.137-26.863-60-60-60-33.137 0-60 26.863-60 60v73c0 11.046 8.954 20 20 20h80c11.046 0 20-8.954 20-20z" fill="#f8e868"/><g fill="#efc17a"><path d="m282.5 323.5v30h8c11.046 0 20-8.954 20-20v-10z"/><path d="m218.5 323.5h-28v10c0 11.046 8.954 20 20 20h8z"/></g><path d="m218.5 323.5h64v140h-64z" fill="#f88fa4"/><path d="m218.5 433.5h64v30h-64z" fill="#f05475"/><circle cx="413.5" cy="97.5" fill="#f88fa4" r="90"/><circle cx="413.5" cy="97.5" fill="#9ce3bf" r="45"/><path d="m250.5 213.5c-13.807 0-25-11.193-25-25v-25h50v25c0 13.807-11.193 25-25 25z" fill="#ffe4c2"/><path d="m275.5 163.5h-50v-14c0-8.837 7.163-16 16-16h42z" fill="#616161"/></g><g id="Outline_40_" fill="#fff"><path d="m73 372h15v15h-15z"/><path d="m103.5 372h15v15h-15z"/><path d="m133.5 372h15v15h-15z"/><path d="m73 222h15v15h-15z"/><path d="m103.5 222h15v15h-15z"/><path d="m133.5 222h15v15h-15z"/><path d="m163 61.5h15v15h-15z"/><path d="m163 92h15v15h-15z"/><path d="m163 122h15v15h-15z"/><path d="m423 372h15v15h-15z"/><path d="m392.5 372h15v15h-15z"/><path d="m362.5 372h15v15h-15z"/><path d="m423 222h15v15h-15z"/><path d="m392.5 222h15v15h-15z"/><path d="m362.5 222h15v15h-15z"/></g><g fill="#fff"><path d="m73 372h15v15h-15z"/><path d="m103.5 372h15v15h-15z"/><path d="m133.5 372h15v15h-15z"/><path d="m73 222h15v15h-15z"/><path d="m103.5 222h15v15h-15z"/><path d="m133.5 222h15v15h-15z"/><path d="m163 61.5h15v15h-15z"/><path d="m163 92h15v15h-15z"/><path d="m163 122h15v15h-15z"/><path d="m423 372h15v15h-15z"/><path d="m392.5 372h15v15h-15z"/><path d="m362.5 372h15v15h-15z"/><path d="m423 222h15v15h-15z"/><path d="m392.5 222h15v15h-15z"/><path d="m362.5 222h15v15h-15z"/></g><g id="Filled_40_"><path d="m15 471h331.5v-15h-56.5v-95h.5c15.164 0 27.5-12.337 27.5-27.5v-49.571h-15v49.571c0 6.893-5.607 12.5-12.5 12.5h-.5v-72.5-1h-15v1 87.5 95h-17v-102.5h-15v102.5h-17v-95-87.5-1h-15v1 72.5h-.5c-6.893 0-12.5-5.607-12.5-12.5v-73c0-20.72 12.211-39.372 30.825-47.809 5.755 5.162 13.353 8.309 21.675 8.309s15.919-3.147 21.675-8.309c18.614 8.437 30.825 27.089 30.825 47.809v8.429h15v-8.429c0-25.722-14.637-48.963-37.187-60.3 1.407-3.633 2.187-7.576 2.187-11.7v-24.017l10.262-38.483h-51.762c-12.958 0-23.5 10.542-23.5 23.5v6.5 15 17.5c0 4.124.78 8.067 2.187 11.7-22.55 11.337-37.187 34.578-37.187 60.3v73c0 15.163 12.336 27.5 27.5 27.5h.5v95h-153v-411h256.26v-15h-271.26v426h-15v-312.5h-15v312.5h-13v55h58.5v-15h-43.5zm218-321.5c0-4.687 3.813-8.5 8.5-8.5h32.238l-4 15h-36.738zm0 21.5h35v17.5c0 9.649-7.851 17.5-17.5 17.5s-17.5-7.851-17.5-17.5z"/><path d="m483 184.16h15v74.34h-15z"/><path d="m498 273.5h-15v182.5h-15v-252.46h-15v252.46h-91.5v15h134.5v25h-422.5v15h437.5v-55h-13z"/><path d="m28 15h191.5v-15h-206.5v128.5h15z"/><path d="m234.5 0h105.92v15h-105.92z"/><path d="m73 402h15v15h-15z"/><path d="m73 342h15v15h-15z"/><path d="m133.5 421h15v15h-15z"/><path d="m133.5 321h15v15h-15z"/><path d="m103.5 332h15v15h-15z"/><path d="m103.5 412h15v15h-15z"/><path d="m73 252h15v15h-15z"/><path d="m73 192h15v15h-15z"/><path d="m133.5 271h15v15h-15z"/><path d="m133.5 171h15v15h-15z"/><path d="m103.5 182h15v15h-15z"/><path d="m103.5 262h15v15h-15z"/><path d="m243 235.5h15v15h-15z"/><path d="m243 265.5h15v40h-15z"/><path d="m133 61.5h15v15h-15z"/><path d="m193 61.5h15v15h-15z"/><path d="m114 122h15v15h-15z"/><path d="m203 92h15v15h-15z"/><path d="m123 92h15v15h-15z"/><path d="m423 402h15v15h-15z"/><path d="m423 342h15v15h-15z"/><path d="m362.5 421h15v15h-15z"/><path d="m362.5 321h15v15h-15z"/><path d="m392.5 332h15v15h-15z"/><path d="m392.5 412h15v15h-15z"/><path d="m423 252h15v15h-15z"/><path d="m362.5 271h15v15h-15z"/><path d="m392.5 262h15v15h-15z"/><path d="m413.5 195c53.762 0 97.5-43.738 97.5-97.5s-43.738-97.5-97.5-97.5-97.5 43.738-97.5 97.5 43.738 97.5 97.5 97.5zm82.5-97.5c0 45.49-37.009 82.5-82.5 82.5-20.05 0-38.447-7.197-52.76-19.133l21.336-21.336c6.871 5.15 15.043 8.648 23.924 9.925v19.044h15v-19.044c8.881-1.276 17.053-4.775 23.924-9.925l13.478 13.478 10.606-10.607-13.477-13.477c5.15-6.871 8.649-15.043 9.925-23.924h19.044v-15.001h-19.044c-1.276-8.881-4.775-17.053-9.925-23.924l21.336-21.336c11.937 14.313 19.133 32.71 19.133 52.76zm-113.771 20.665c-3.932-5.93-6.229-13.033-6.229-20.665 0-20.678 16.822-37.5 37.5-37.5 7.632 0 14.735 2.297 20.665 6.229zm62.542-41.33c3.932 5.93 6.229 13.033 6.229 20.665 0 20.678-16.822 37.5-37.5 37.5-7.632 0-14.735-2.297-20.665-6.229zm-31.271-61.835c20.05 0 38.447 7.197 52.76 19.133l-21.336 21.336c-6.871-5.15-15.043-8.648-23.924-9.925v-19.044h-15v19.044c-8.881 1.276-17.053 4.775-23.924 9.925l-13.477-13.477-10.607 10.608 13.477 13.477c-5.15 6.871-8.648 15.043-9.925 23.924h-19.044v15h19.044c1.276 8.881 4.775 17.053 9.925 23.924l-21.336 21.336c-11.937-14.314-19.133-32.711-19.133-52.761 0-45.49 37.009-82.5 82.5-82.5z"/></g></g></svg>