<svg id="Capa_1" enable-background="new 0 0 511 511" height="512" viewBox="0 0 511 511" width="512" xmlns="http://www.w3.org/2000/svg"><g><g id="Filled_21_"><path d="m491.784 491.784c-15.621 15.621-40.948 15.621-56.569 0l-155.563-155.563 56.569-56.569 155.564 155.564c15.62 15.621 15.62 40.947-.001 56.568z" fill="#e4e8ed"/><path d="m448.064 461.784-146.988-146.987-21.424 21.424 155.564 155.563c15.621 15.621 40.948 15.621 56.568 0 7.97-7.97 11.863-18.465 11.701-28.91-15.69 14.514-40.176 14.156-55.421-1.09z" fill="#cad8eb"/><path d="m324.505 344.505h80v40h-80z" fill="#c4e5f9" transform="matrix(.707 -.707 .707 .707 -150.983 364.505)"/><path d="m343.503 357.223-21.424 21.424 9.428 9.428 18.856 18.856 21.424-21.424z" fill="#9eb6f4"/><circle cx="207.5" cy="207.5" fill="#e4e8ed" r="160"/><circle cx="207.5" cy="207.5" fill="#c4e5f9" r="125"/><path d="m207.5 302.5c-63.958 0-116.689-48.038-124.101-110-.588 4.919-.899 9.923-.899 15 0 69.036 55.964 125 125 125s125-55.964 125-125c0-5.077-.311-10.081-.899-15-7.412 61.962-60.143 110-124.101 110z" fill="#9eb6f4"/><circle cx="207.5" cy="207.5" fill="#9ce3bf" r="50"/><path d="m207.5 227.5c-22.346 0-41.312-14.736-47.698-35-1.493 4.738-2.302 9.776-2.302 15 0 27.57 22.43 50 50 50s50-22.43 50-50c0-5.224-.809-10.262-2.302-15-6.386 20.264-25.352 35-47.698 35z" fill="#87bcc4"/></g><g fill="#fff"><path d="m465.975 476.582-10.606-10.606 10.606-10.606 10.606 10.606zm-21.213-21.214-10.606-10.606 10.606-10.606 10.606 10.606z"/><path d="m204 180.5h15v15h-15z"/><path d="m179 201h15v15h-15z"/><path d="m219 210.5h15v15h-15z"/></g><g id="Outline_21_"><path d="m207.5 360c-84.089 0-152.5-68.411-152.5-152.5 0-18.82 3.403-37.201 10.114-54.63l-13.998-5.39c-7.376 19.156-11.116 39.35-11.116 60.02 0 92.36 75.14 167.5 167.5 167.5 10.64 0 21.292-1.011 31.662-3.002l-2.829-14.73c-9.439 1.812-19.14 2.732-28.833 2.732z"/><path d="m207.5 40c-31.728 0-62.633 8.952-89.376 25.887-26.01 16.472-46.994 39.718-60.683 67.225l13.429 6.683c26.028-52.303 78.382-84.795 136.63-84.795 42.423 0 83.297 17.955 112.141 49.262l11.031-10.164c-31.675-34.38-76.57-54.098-123.172-54.098z"/><path d="m207.5 340c73.061 0 132.5-59.439 132.5-132.5 0-49.251-27.068-94.16-70.642-117.203l-7.012 13.26c38.646 20.437 62.654 60.266 62.654 103.943 0 64.79-52.71 117.5-117.5 117.5-36.423 0-70.191-16.482-92.646-45.22l-11.819 9.235c25.317 32.402 63.393 50.985 104.465 50.985z"/><path d="m75 207.5c0 24.182 6.578 47.849 19.022 68.44l12.838-7.759c-11.03-18.25-16.86-39.234-16.86-60.681 0-64.79 52.71-117.5 117.5-117.5 14.483 0 28.62 2.602 42.018 7.733l5.365-14.008c-15.117-5.789-31.059-8.725-47.383-8.725-73.061 0-132.5 59.439-132.5 132.5z"/><path d="m258.765 145.628-16.283 16.283c-7.824-6.018-17.232-10.064-27.483-11.406v-23.005h-15v23.005c-10.251 1.342-19.658 5.388-27.483 11.406l-16.283-16.283-10.606 10.606 16.283 16.283c-6.018 7.824-10.064 17.232-11.406 27.483h-23.004v15h23.005c1.342 10.251 5.388 19.658 11.406 27.483l-16.283 16.283 10.606 10.606 16.283-16.283c7.824 6.018 17.232 10.064 27.483 11.406v23.005h15v-23.005c10.251-1.342 19.658-5.388 27.483-11.406l16.283 16.283 10.606-10.606-16.283-16.283c6.018-7.824 10.064-17.232 11.406-27.483h23.005v-15h-23.005c-1.342-10.251-5.388-19.658-11.406-27.483l16.283-16.283zm-51.265 104.372c-23.435 0-42.5-19.065-42.5-42.5s19.065-42.5 42.5-42.5 42.5 19.065 42.5 42.5-19.065 42.5-42.5 42.5z"/><path d="m274.011 388.15 5.2 14.069c4.845-1.791 9.684-3.789 14.382-5.94l-6.245-13.639c-4.357 1.996-8.844 3.849-13.337 5.51z"/><path d="m246.287 396.071 3.019 14.693c5.062-1.04 10.148-2.287 15.114-3.707l-4.122-14.423c-4.604 1.317-9.319 2.473-14.011 3.437z"/><path d="m207.5 400c-51.33 0-99.649-20.045-136.057-56.444l-12.803-12.799v63.743h15v-28.542c37.436 31.744 84.347 49.042 133.86 49.042 8.842 0 17.743-.565 26.457-1.68l-1.903-14.879c-8.085 1.035-16.346 1.559-24.554 1.559z"/><path d="m384.07 130.82 13.75-5.994c-2.063-4.733-4.334-9.45-6.75-14.019l-13.261 7.011c2.241 4.238 4.347 8.612 6.261 13.002z"/><path d="m400 207.5c0 27.827-5.84 54.692-17.359 79.848l-4.864 10.623h52.723v-15h-29.707c9.433-24.022 14.207-49.355 14.207-75.471 0-23.355-3.871-46.295-11.504-68.184l-14.163 4.939c7.078 20.297 10.667 41.576 10.667 63.245z"/><path d="m383.29 97.337c-2.747-4.369-5.696-8.692-8.766-12.852l-12.068 8.909c2.85 3.859 5.586 7.872 8.135 11.926z"/><path d="m130.818 30.934-5.995-13.75c-4.732 2.063-9.449 4.335-14.019 6.751l7.013 13.26c4.238-2.241 8.612-4.348 13.001-6.261z"/><path d="m207.5 15c51.33 0 99.649 20.045 136.057 56.444l12.803 12.799v-63.743h-15v28.542c-37.436-31.744-84.347-49.042-133.86-49.042-23.359 0-46.301 3.872-68.189 11.507l4.94 14.163c20.296-7.08 41.576-10.67 63.249-10.67z"/><path d="m105.319 44.416-7.985-12.697c-4.367 2.747-8.69 5.697-12.85 8.768l8.911 12.066c3.86-2.851 7.872-5.588 11.924-8.137z"/><path d="m31.71 317.663c2.747 4.369 5.696 8.692 8.766 12.851l12.068-8.909c-2.85-3.86-5.586-7.872-8.135-11.926z"/><path d="m15 207.5c0-51.33 20.045-99.649 56.444-136.057l12.799-12.803h-60.743v15h25.542c-31.744 37.436-49.042 84.347-49.042 133.86 0 23.355 3.871 46.295 11.504 68.184l14.163-4.939c-7.078-20.297-10.667-41.576-10.667-63.245z"/><path d="m30.93 284.18-13.75 5.994c2.063 4.733 4.334 9.45 6.75 14.019l13.261-7.011c-2.241-4.238-4.347-8.612-6.261-13.002z"/><path d="m497.087 429.913-47.478-47.478-10.606 10.606 47.478 47.478c6.138 6.139 9.519 14.3 9.519 22.981s-3.381 16.842-9.519 22.981c-6.139 6.138-14.3 9.519-22.981 9.519s-16.842-3.381-22.981-9.519l-79.55-79.55 45.962-45.962 21.465 21.465 10.606-10.606-84.342-84.342c13.362-24.411 20.34-51.642 20.34-79.986 0-36.947-11.841-72.004-34.243-101.382l-11.928 9.096c20.393 26.742 31.171 58.654 31.171 92.286 0 67.316-45.146 127.524-109.786 146.414l4.207 14.397c11.461-3.349 22.536-7.969 33.015-13.7l142.476 142.476c8.972 8.972 20.9 13.913 33.587 13.913s24.616-4.941 33.587-13.913 13.914-20.899 13.914-33.587-4.941-24.616-13.913-33.587zm-196.457-83.321c15.294-10.273 28.952-23.041 40.175-37.774 2.032-2.668 3.975-5.384 5.833-8.143l21.403 21.403-45.962 45.962zm32.055 32.055 45.962-45.962 17.678 17.678-45.962 45.962z"/></g></g></svg>