<svg id="Capa_1" enable-background="new 0 0 511 511" height="512" viewBox="0 0 511 511" width="512" xmlns="http://www.w3.org/2000/svg"><g><g id="Filled_43_"><path d="m133.5 503.5v-496h370v456c0 22.091-17.909 40-40 40z" fill="#f8e868"/><path d="m463.5 473.5c-5.514 0-10-4.486-10-10v-70h-320v110h330c22.091 0 40-17.909 40-40v-30c0 22.091-17.909 40-40 40z" fill="#efc17a"/><path d="m423.5 463.5v-40h-350v40c0 22.091 17.909 40 40 40h350c-22.091 0-40-17.909-40-40z" fill="#e4e8ed"/><path d="m424.76 473.5h-311.26c-22.091 0-40-17.909-40-40v30c0 22.091 17.909 40 40 40h350c-18.638 0-34.299-12.748-38.74-30z" fill="#cad8eb"/><path d="m172.5 54.5c11.598 0 21 8.745 21 22 0 8.237-3.534 13.301-8.739 19-7.011 7.678-12.261 14.683-12.261 26.241 0-11.558-5.25-18.563-12.261-26.241-5.204-5.699-8.739-10.763-8.739-19 0-13.255 9.402-22 21-22z" fill="#87bcc4"/><circle cx="172.5" cy="219.5" fill="#9ce3bf" r="95"/><g fill="#87bcc4"><path d="m172.5 284.5c-47.362 0-86.625-34.661-93.817-80-.775 4.886-1.183 9.896-1.183 15 0 52.467 42.533 95 95 95s95-42.533 95-95c0-5.104-.407-10.114-1.183-15-7.192 45.339-46.455 80-93.817 80z"/><path d="m55.827 102.827c8.201-8.201 21.033-8.665 30.406.707 5.825 5.825 6.906 11.904 7.256 19.614.471 10.387 1.712 19.052 9.885 27.225-8.173-8.173-16.839-9.414-27.225-9.885-7.71-.35-13.789-1.431-19.614-7.256-9.373-9.371-8.909-22.203-.708-30.405z"/><path d="m7.5 219.5c0-11.598 8.745-21 22-21 8.237 0 13.301 3.534 19 8.739 7.678 7.011 14.683 12.261 26.241 12.261-11.558 0-18.563 5.25-26.241 12.261-5.699 5.204-10.763 8.739-19 8.739-13.255 0-22-9.402-22-21z"/><path d="m55.827 336.173c-8.201-8.201-8.665-21.033.707-30.406 5.825-5.825 11.904-6.906 19.614-7.256 10.387-.471 19.052-1.712 27.225-9.885-8.173 8.173-9.414 16.839-9.885 27.225-.35 7.71-1.431 13.789-7.256 19.614-9.371 9.373-22.203 8.909-30.405.708z"/><path d="m172.5 384.5c-11.598 0-21-8.745-21-22 0-8.237 3.534-13.301 8.739-19 7.011-7.678 12.261-14.683 12.261-26.241 0 11.558 5.25 18.563 12.261 26.241 5.204 5.699 8.739 10.763 8.739 19 0 13.255-9.402 22-21 22z"/><path d="m289.173 336.173c-8.201 8.201-21.033 8.665-30.406-.707-5.825-5.825-6.906-11.904-7.256-19.614-.471-10.387-1.712-19.052-9.885-27.225 8.173 8.173 16.839 9.414 27.225 9.885 7.71.35 13.789 1.431 19.614 7.256 9.373 9.371 8.909 22.203.708 30.405z"/><path d="m337.5 219.5c0 11.598-8.745 21-22 21-8.237 0-13.301-3.534-19-8.739-7.678-7.011-14.683-12.261-26.241-12.261 11.558 0 18.563-5.25 26.241-12.261 5.699-5.204 10.763-8.739 19-8.739 13.255 0 22 9.402 22 21z"/><path d="m289.173 102.827c8.201 8.201 8.665 21.033-.707 30.406-5.825 5.825-11.904 6.906-19.614 7.256-10.387.471-19.052 1.712-27.225 9.885 8.173-8.173 9.414-16.839 9.885-27.225.35-7.71 1.431-13.789 7.256-19.614 9.371-9.373 22.203-8.909 30.405-.708z"/><circle cx="184.57" cy="176.5" r="20"/><circle cx="133.57" cy="233.5" r="20"/><circle cx="203.57" cy="253.5" r="20"/></g></g><g fill="#fff"><path d="m141.5 461h-15v-15h15zm-30 0h-15v-15h15z"/><path d="m224.57 199h15v15h-15z"/><path d="m124.57 169h15v15h-15z"/><path d="m148.57 273h15v15h-15z"/></g><g id="Outline_43_"><path d="m141 15h157.071v-15h-172.071v45.5h15z"/><path d="m496 463.5c0 17.921-14.579 32.5-32.5 32.5s-32.5-14.579-32.5-32.5v-47.5h-130.357v15h115.357v32.5c0 12.561 4.9 23.997 12.89 32.5h-245.39v15h280c26.191 0 47.5-21.309 47.5-47.5v-351.429h-15z"/><path d="m313.071 0v15h182.929v82.071h15v-97.071z"/><path d="m81 463.5v-32.5h204.643v-15h-144.643v-22.5h-15v22.5h-60v47.5c0 26.191 21.309 47.5 47.5 47.5h55v-15h-55c-17.921 0-32.5-14.579-32.5-32.5z"/><path d="m363.5 140h110v15h-110z"/><path d="m363.5 170h110v15h-110z"/><path d="m363.5 200h50v15h-50z"/><path d="m363.5 250h110v15h-110z"/><path d="m363.5 280h50v15h-50z"/><path d="m428.5 200h15v15h-15z"/><path d="m428.5 280h15v15h-15z"/><path d="m75.809 147.981c8.397.381 13.911 1.291 18.877 4.811-5.782 6.74-10.701 14.22-14.59 22.296l13.516 6.508c14.505-30.128 45.471-49.596 78.888-49.596 48.248 0 87.5 39.252 87.5 87.499-.001 9.339-1.462 18.526-4.343 27.308l14.252 4.676c2.564-7.816 4.164-15.902 4.788-24.128 5.998 1.024 10.54 4.279 16.745 9.945 5.67 5.177 12.672 10.7 24.058 10.7 16.817 0 29.5-12.252 29.5-28.5s-12.683-28.5-29.5-28.5c-11.386 0-18.388 5.523-24.058 10.7-6.203 5.665-10.745 8.92-16.741 9.944-1.703-22.369-10.622-42.751-24.422-58.826 4.975-3.541 10.495-4.456 18.912-4.837 7.669-.348 16.525-1.394 24.578-9.445 8.65-8.651 11.162-20.336 7.47-30.488l31.779-24.048h97.482v-15h-102.518l-35.401 26.79c-11.464-9.682-27.86-8.815-39.118 2.441-8.052 8.053-9.097 16.908-9.444 24.577-.382 8.417-1.296 13.937-4.837 18.912-16.075-13.801-36.457-22.719-58.826-24.422 1.025-5.996 4.279-10.537 9.944-16.741 5.177-5.67 10.7-12.672 10.7-24.058 0-16.817-12.252-29.5-28.5-29.5s-28.5 12.684-28.5 29.501c0 11.386 5.523 18.388 10.7 24.058 5.668 6.206 8.923 10.749 9.946 16.749-16.878 1.285-33.131 6.697-47.413 15.856-4.025 2.581-7.847 5.428-11.447 8.514-3.515-4.964-4.425-10.476-4.805-18.868-.348-7.669-1.394-16.525-9.445-24.578-11.892-11.889-29.522-12.195-41.012-.707h-.001c-11.488 11.489-11.185 29.12.708 41.014 8.053 8.051 16.909 9.096 24.578 9.443zm225.749 64.795c5.028-4.591 8.396-6.776 13.942-6.776 8.537 0 14.5 5.552 14.5 13.5s-5.963 13.5-14.5 13.5c-5.546 0-8.914-2.186-13.942-6.776-2.56-2.337-5.228-4.657-8.16-6.724 2.932-2.066 5.6-4.386 8.16-6.724zm-42.555-89.288c.309-6.802 1.146-10.729 5.066-14.65 3.148-3.147 6.868-4.733 10.505-4.733 3.338 0 6.605 1.336 9.295 4.025 5.62 5.621 5.33 13.763-.707 19.799-3.922 3.923-7.849 4.76-14.65 5.068-3.462.157-6.989.403-10.524 1.016.612-3.535.858-7.063 1.015-10.525zm-100.003-46.988c0-8.537 5.552-14.5 13.5-14.5s13.5 5.963 13.5 14.5c0 5.546-2.186 8.914-6.776 13.942-2.337 2.56-4.657 5.228-6.724 8.16-2.066-2.933-4.386-5.601-6.724-8.16-4.59-5.028-6.776-8.396-6.776-13.942zm-97.87 31.631c5.622-5.622 13.765-5.329 19.799.707 3.923 3.922 4.76 7.849 5.068 14.65.157 3.462.403 6.989 1.016 10.524-3.535-.612-7.062-.858-10.524-1.016-6.802-.309-10.729-1.146-14.65-5.066-6.038-6.037-6.329-14.179-.709-19.799z"/><path d="m70.403 349.895c7.486 0 15.059-3.052 21.134-9.126 8.052-8.053 9.097-16.908 9.444-24.577.382-8.417 1.296-13.937 4.837-18.912 16.075 13.801 36.457 22.719 58.826 24.422-1.025 5.996-4.279 10.537-9.944 16.741-5.177 5.67-10.7 12.672-10.7 24.058 0 16.817 12.252 29.5 28.5 29.5s28.5-12.683 28.5-29.5c0-11.386-5.523-18.388-10.7-24.058-5.667-6.206-8.923-10.749-9.946-16.748 22.052-1.669 42.565-10.322 58.883-24.335 3.495 4.955 4.402 10.46 4.782 18.833.348 7.669 1.394 16.525 9.445 24.578 6.075 6.074 13.646 9.124 21.133 9.124 2.09 0 4.171-.245 6.213-.721l26.069 32.826h92.621v-15h-85.379l-20-25.185c.118-.114.238-.222.355-.338h.001c11.488-11.489 11.185-29.12-.708-41.014-8.053-8.052-16.908-9.097-24.577-9.444-8.382-.38-13.891-1.288-18.85-4.793 5.117-5.986 9.605-12.616 13.323-19.828l-13.334-6.871c-15.093 29.282-44.915 47.473-77.831 47.473-48.248 0-87.5-39.252-87.5-87.5 0-8.53 1.223-16.956 3.635-25.044l-14.375-4.287c-2.082 6.985-3.402 14.18-3.956 21.477-5.998-1.023-10.541-4.278-16.746-9.945-5.67-5.178-12.672-10.701-24.058-10.701-16.817 0-29.5 12.252-29.5 28.5s12.683 28.5 29.5 28.5c11.386 0 18.388-5.523 24.058-10.7 6.203-5.665 10.745-8.92 16.741-9.944 1.703 22.369 10.622 42.751 24.422 58.826-4.975 3.541-10.495 4.456-18.912 4.837-7.669.348-16.525 1.394-24.578 9.445-11.891 11.892-12.195 29.522-.707 41.012v.001c5.62 5.62 12.709 8.418 19.879 8.418zm198.109-43.892c6.802.309 10.729 1.146 14.65 5.066 6.037 6.038 6.328 14.18.708 19.8-5.622 5.621-13.765 5.329-19.799-.707-3.923-3.922-4.76-7.849-5.068-14.65-.157-3.462-.403-6.989-1.016-10.524 3.535.612 7.063.858 10.525 1.015zm-96.012 34.394c2.066 2.933 4.386 5.601 6.724 8.16 4.591 5.028 6.776 8.396 6.776 13.942 0 8.537-5.552 14.5-13.5 14.5s-13.5-5.963-13.5-14.5c0-5.546 2.186-8.914 6.776-13.942 2.337-2.559 4.658-5.227 6.724-8.16zm-129.058-114.173c-5.028 4.59-8.396 6.776-13.942 6.776-8.537 0-14.5-5.552-14.5-13.5s5.963-13.5 14.5-13.5c5.546 0 8.914 2.186 13.942 6.776 2.56 2.337 5.228 4.657 8.16 6.724-2.932 2.066-5.6 4.386-8.16 6.724zm18.396 84.847c3.922-3.923 7.849-4.76 14.65-5.068 3.462-.157 6.989-.403 10.524-1.016-.612 3.535-.858 7.062-1.016 10.524-.309 6.802-1.146 10.729-5.066 14.65-6.038 6.036-14.18 6.328-19.8.707v.001c-5.619-5.62-5.329-13.762.708-19.798z"/><path d="m184.57 204c15.163 0 27.5-12.337 27.5-27.5s-12.337-27.5-27.5-27.5-27.5 12.337-27.5 27.5 12.337 27.5 27.5 27.5zm0-40c6.893 0 12.5 5.607 12.5 12.5s-5.607 12.5-12.5 12.5-12.5-5.607-12.5-12.5 5.608-12.5 12.5-12.5z"/><path d="m133.57 206c-15.163 0-27.5 12.337-27.5 27.5s12.337 27.5 27.5 27.5 27.5-12.337 27.5-27.5-12.337-27.5-27.5-27.5zm0 40c-6.893 0-12.5-5.607-12.5-12.5s5.607-12.5 12.5-12.5 12.5 5.607 12.5 12.5-5.607 12.5-12.5 12.5z"/><path d="m203.57 281c15.163 0 27.5-12.337 27.5-27.5s-12.337-27.5-27.5-27.5-27.5 12.337-27.5 27.5 12.337 27.5 27.5 27.5zm0-40c6.893 0 12.5 5.607 12.5 12.5s-5.607 12.5-12.5 12.5-12.5-5.607-12.5-12.5 5.608-12.5 12.5-12.5z"/><path d="m330.5 39h70v15h-70z"/><path d="m416.5 39h15v15h-15z"/><path d="m321.5 337h48v15h-48z"/><path d="m384.5 337h15v15h-15z"/></g></g></svg>